<?xml version="1.0" encoding="UTF-8" standalone="no"?>
<svg
   xmlns:dc="http://purl.org/dc/elements/1.1/"
   xmlns:cc="http://creativecommons.org/ns#"
   xmlns:rdf="http://www.w3.org/1999/02/22-rdf-syntax-ns#"
   xmlns:svg="http://www.w3.org/2000/svg"
   xmlns="http://www.w3.org/2000/svg"
   xmlns:sodipodi="http://sodipodi.sourceforge.net/DTD/sodipodi-0.dtd"
   xmlns:inkscape="http://www.inkscape.org/namespaces/inkscape"
   width="36.0mm"
   height="22.5mm"
   viewBox="0 0 36.0 22.5"
   version="1.1"
   id="svg8"
   inkscape:version="1.0.1 (c497b03c, 2020-09-10)"
   sodipodi:docname="Letters.svg">
  <defs
     id="defs2" />
  <sodipodi:namedview
     id="base"
     pagecolor="#ffffff"
     bordercolor="#666666"
     borderopacity="1.0"
     inkscape:pageopacity="0.0"
     inkscape:pageshadow="2"
     inkscape:zoom="15.839192"
     inkscape:cx="37.670181"
     inkscape:cy="42.36104"
     inkscape:document-units="mm"
     inkscape:current-layer="g57"
     inkscape:document-rotation="0"
     showgrid="true"
     inkscape:window-width="1637"
     inkscape:window-height="937"
     inkscape:window-x="1714"
     inkscape:window-y="26"
     inkscape:window-maximized="0"
     borderlayer="true"
     inkscape:snap-global="false"
     showguides="false">
    <inkscape:grid
       spacingx="2.54"
       spacingy="2.54"
       empspacing="1"
       type="xygrid"
       units="mm"
       id="grid41" />
    <inkscape:grid
       spacingx="2.54"
       spacingy="2.54"
       empspacing="1"
       type="xygrid"
       units="mm"
       id="grid82" />
  </sodipodi:namedview>
  <metadata
     id="metadata5">
    <rdf:RDF>
      <cc:Work
         rdf:about="">
        <dc:format>image/svg+xml</dc:format>
        <dc:type
           rdf:resource="http://purl.org/dc/dcmitype/StillImage" />
        <dc:title />
      </cc:Work>
    </rdf:RDF>
    <rdf:RDF>
      <cc:Work
         rdf:about="">
        <dc:title />
      </cc:Work>
    </rdf:RDF>
  </metadata>
  <g
     inkscape:label="[fixed] BG"
     inkscape:groupmode="layer"
     sodipodi:insensitive="true"
     id="g47">
    <rect
       x="0"
       y="0"
       width="25.0"
       height="34.0"
       style="fill:#FFFFFF;fill-opacity:1;stroke:none"
       id="rect45" />
  </g>
  <g
     inkscape:label="Edge.Cuts"
     inkscape:groupmode="layer"
     id="g49" />
  <g
     inkscape:label="B.Cu"
     inkscape:groupmode="layer"
     id="g51" />
  <g
     inkscape:label="B.Mask"
     inkscape:groupmode="layer"
     id="g53" />
  <g
     inkscape:label="B.SilkS"
     inkscape:groupmode="layer"
     id="g55" />
  <g
     inkscape:label="F.Cu"
     inkscape:groupmode="layer"
     id="g57"
     style="display:inline">
    <text
       xml:space="preserve"
       style="font-style:normal;font-variant:normal;font-weight:normal;font-stretch:normal;font-size:1.41111px;line-height:1.25;font-family:'Permanent Marker';-inkscape-font-specification:'Permanent Marker';stroke-width:0.264583"
       x="4.0632443"
       y="7.4177823"
       id="text102"><tspan
         sodipodi:role="line"
         id="tspan100"
         x="4.0632443"
         y="7.4177823"
         style="font-style:normal;font-variant:normal;font-weight:normal;font-stretch:normal;font-family:'Permanent Marker';-inkscape-font-specification:'Permanent Marker';stroke-width:0.264583" /></text>
    <text
       xml:space="preserve"
       style="font-style:normal;font-variant:normal;font-weight:normal;font-stretch:normal;font-size:1.41111px;line-height:1.25;font-family:'Permanent Marker';-inkscape-font-specification:'Permanent Marker';stroke-width:0.264583"
       x="3.7797618"
       y="5.622396"
       id="text106"><tspan
         sodipodi:role="line"
         id="tspan104"
         x="3.7797618"
         y="5.622396"
         style="font-style:normal;font-variant:normal;font-weight:normal;font-stretch:normal;font-family:'Permanent Marker';-inkscape-font-specification:'Permanent Marker';stroke-width:0.264583" /></text>
    <text
       xml:space="preserve"
       style="font-size:1.41111px;line-height:1.25;font-family:Chewy;-inkscape-font-specification:Chewy;stroke-width:0.264583"
       x="12.567708"
       y="6.8980651"
       id="text39"><tspan
         sodipodi:role="line"
         id="tspan37"
         x="12.567708"
         y="6.8980651"
         style="stroke-width:0.264583"></tspan></text>
    <g
       aria-label="The K-BLE"
       transform="scale(0.88691482,1.127504)"
       id="text35"
       style="font-size:3.12876px;line-height:1.25;font-family:Chewy;-inkscape-font-specification:Chewy;fill:#aa0000;stroke-width:0.586643">
      <path
         d="m 5.4333193,7.8713867 q 0,0.076386 -0.061109,0.1405498 Q 5.3141573,8.0730455 5.2286051,8.121932 5.1461081,8.167763 5.057501,8.198318 4.968894,8.228872 4.9108404,8.241094 4.8863974,8.4763621 4.8711194,8.7116302 4.8588974,8.9438429 4.8588974,9.179111 q 0,0.1252726 0.00611,0.2474898 0.00611,0.1222172 0.00611,0.2444344 0,0.054998 -0.012222,0.1222172 -0.00917,0.064164 -0.036665,0.1222172 -0.024443,0.058053 -0.070275,0.097774 -0.045831,0.03972 -0.1130509,0.03972 -0.079441,0 -0.128328,-0.04583 -0.045832,-0.042776 -0.07333,-0.1069415 -0.024444,-0.064164 -0.03361,-0.1344389 -0.00917,-0.07333 -0.00917,-0.1313835 -0.00611,-0.1833258 -0.00917,-0.3666516 -0.00306,-0.1863812 -0.00306,-0.3727624 0,-0.1558269 0,-0.305543 0.00306,-0.149716 0.00306,-0.3055429 -0.042776,0.00611 -0.088608,0.00917 -0.042776,0.00306 -0.088607,0.00306 -0.036665,0 -0.097774,-0.00611 Q 4.0522545,8.280821 3.9972566,8.262492 3.9422586,8.241104 3.9025386,8.207494 3.8628176,8.170829 3.8628176,8.115831 q 0,-0.091663 0.07333,-0.1588823 0.070275,-0.070275 0.1802704,-0.1191618 0.1130509,-0.051942 0.2474898,-0.085552 0.1374943,-0.036665 0.2688778,-0.054998 0.1344389,-0.021388 0.2444344,-0.030554 0.1130509,-0.00917 0.1741595,-0.00917 0.058053,0 0.1222172,0.00611 0.067219,0.00306 0.1252726,0.024443 0.058053,0.021388 0.094718,0.064164 0.039721,0.042776 0.039721,0.1191617 z"
         style="fill:#aa0000;stroke-width:0.586643"
         id="path69" />
      <path
         d="m 6.6646575,9.166889 q 0,0.051942 -0.00306,0.1558269 0,0.1008292 -0.00917,0.2138801 -0.00611,0.1099954 -0.018333,0.2108246 -0.012222,0.097774 -0.030554,0.1436052 -0.024443,0.058053 -0.064164,0.1008292 -0.039721,0.042776 -0.10694,0.042776 -0.1038846,0 -0.1497161,-0.082497 Q 6.2368974,9.869638 6.2216204,9.7474206 6.2063434,9.6252034 6.2093984,9.4815982 6.2124584,9.337993 6.2063384,9.2157758 6.2002284,9.0935586 6.1727284,9.011062 6.1452294,8.928565 6.0718993,8.928565 q -0.1008292,0 -0.155827,0.03361 -0.051942,0.030554 -0.076386,0.082497 -0.021388,0.051942 -0.027499,0.1191617 -0.00306,0.067219 -0.00917,0.1405498 -0.00611,0.070275 -0.00917,0.1894367 -0.00306,0.1191617 -0.027499,0.235268 -0.024444,0.1161064 -0.082497,0.2016584 -0.054998,0.082497 -0.1649932,0.082497 -0.06722,0 -0.1099955,-0.051942 Q 5.3691553,9.9093584 5.3447119,9.8268618 5.3202684,9.7443652 5.3080467,9.643536 5.2988804,9.5427068 5.295825,9.4479885 q 0,-0.097774 0,-0.1772149 0.00306,-0.079441 0.00306,-0.1191618 0,-0.061109 0.00306,-0.2016584 Q 5.308055,8.8094037 5.323333,8.6382996 5.33861,8.4641401 5.363053,8.2808143 5.387497,8.0974885 5.427217,7.9477725 5.466938,7.795001 5.521935,7.7002827 q 0.058053,-0.094718 0.1344389,-0.091663 0.048887,0.00306 0.082497,0.042776 0.036665,0.039721 0.058053,0.1038846 0.024443,0.061109 0.039721,0.1344389 0.015277,0.07333 0.021388,0.1466606 0.00917,0.070275 0.00917,0.1313835 0.00306,0.061109 0.00306,0.094718 0,0.079441 -0.00306,0.1588824 -0.00306,0.079441 -0.00917,0.1588823 0.070275,-0.094718 0.1863812,-0.1558269 0.1191618,-0.061109 0.2383235,-0.061109 0.1527715,0 0.2291572,0.085552 0.079441,0.082497 0.1130509,0.2077692 0.03361,0.1222172 0.036665,0.262767 0.00306,0.1374943 0.00306,0.2474898 z"
         style="fill:#aa0000;stroke-width:0.586643"
         id="path71" />
      <path
         d="m 8.1648734,9.4143788 q 0,0.1038846 -0.067219,0.2047138 -0.064164,0.097774 -0.1649933,0.1772149 -0.097774,0.076386 -0.2108246,0.1252726 -0.1130509,0.045832 -0.2077692,0.045832 -0.1619378,0 -0.2902659,-0.079441 Q 7.0985284,9.8054738 7.0129764,9.6802012 6.9274243,9.5549285 6.8815929,9.4052125 6.8388169,9.252441 6.8388169,9.1088358 q 0,-0.1527715 0.042776,-0.326931 0.042776,-0.1741595 0.1283281,-0.3208201 0.088607,-0.1466606 0.2199909,-0.2444344 0.1344389,-0.097774 0.3177647,-0.097774 0.1038846,0 0.1986029,0.036665 0.094718,0.03361 0.1649932,0.097774 0.070275,0.064164 0.1130509,0.1527714 0.042776,0.088608 0.042776,0.198603 0,0.1436052 -0.061109,0.2688778 -0.061109,0.1252726 -0.1619378,0.2169355 -0.1008292,0.091663 -0.2322127,0.1497161 -0.1313835,0.054998 -0.2688778,0.061109 0.012222,0.088607 0.070275,0.128328 0.061109,0.039721 0.1436052,0.039721 0.061109,0 0.1191617,-0.030554 0.058053,-0.030554 0.1130509,-0.067219 0.054998,-0.039721 0.1069401,-0.070275 0.054998,-0.030554 0.1099955,-0.030554 0.061109,0 0.1099954,0.039721 0.048887,0.039721 0.048887,0.1038846 z M 7.6698938,8.6657985 q 0,-0.039721 -0.021388,-0.082497 -0.021388,-0.042776 -0.067219,-0.042776 -0.067219,0 -0.1130509,0.036665 -0.045831,0.03361 -0.076386,0.088608 -0.030554,0.051942 -0.048887,0.1130509 -0.015277,0.061109 -0.018333,0.1130509 0.042776,-0.00917 0.1008292,-0.024444 0.061109,-0.015277 0.1130509,-0.03972 0.054998,-0.027499 0.091663,-0.06722 0.039721,-0.039721 0.039721,-0.094718 z"
         style="fill:#aa0000;stroke-width:0.586643"
         id="path73" />
      <path
         d="m 10.563386,9.8238064 q 0,0.085552 -0.04278,0.1374943 -0.04278,0.054997 -0.131384,0.054997 -0.07028,0 -0.131383,-0.042776 Q 10.19979,9.9307464 10.147847,9.8696378 10.098961,9.8054738 10.05924,9.7351989 10.022575,9.664924 9.9981313,9.6129817 9.9339673,9.4846537 9.8698033,9.3563256 9.8086947,9.2279976 9.7475861,9.0966141 L 9.5642603,9.209665 q 0.00306,0.088607 -0.00917,0.1772149 -0.012222,0.088608 -0.018333,0.1772149 -0.00611,0.061109 -0.021388,0.1344389 -0.012222,0.070275 -0.042776,0.134439 -0.030554,0.061109 -0.082497,0.1038846 -0.051942,0.042776 -0.128328,0.042776 -0.070275,0 -0.1161064,-0.027499 Q 9.099835,9.9215801 9.0692807,9.8757487 9.0417818,9.8299172 9.0295601,9.7718641 9.0173384,9.7138109 9.0173384,9.6527023 v -0.024443 q 0,-0.1802704 0.018333,-0.3605408 0.021388,-0.1833257 0.027499,-0.3666515 0.00611,-0.241379 0.015277,-0.4827579 0.00917,-0.241379 0.024443,-0.4827579 0.00306,-0.054998 0.018333,-0.1069401 0.015277,-0.051942 0.045831,-0.091663 0.030554,-0.042776 0.07333,-0.067219 0.045831,-0.024444 0.10694,-0.024444 0.094718,0 0.1405498,0.06722 0.048887,0.067219 0.067219,0.1619378 0.018333,0.094718 0.015277,0.1955475 0,0.1008292 0,0.1680486 0,0.1924921 -0.00917,0.3849842 0.088607,-0.07333 0.171104,-0.1680487 0.085552,-0.094718 0.1497161,-0.1924921 0.039721,-0.058053 0.091663,-0.1588823 0.051942,-0.1038846 0.1130507,-0.1986029 0.06111,-0.097774 0.134439,-0.1680487 0.07333,-0.07333 0.155827,-0.07333 0.08861,0 0.128328,0.051942 0.04278,0.048887 0.04278,0.1313835 0,0.1222172 -0.03972,0.2505452 -0.03666,0.1283281 -0.100829,0.2536007 -0.06416,0.1222172 -0.146661,0.2352681 -0.07944,0.1099955 -0.161937,0.1924921 0.08555,0.1436052 0.161937,0.2902658 0.07639,0.1436052 0.152772,0.2902658 0.0275,0.048887 0.05194,0.1069401 0.0275,0.058053 0.04889,0.1191617 0.02139,0.061109 0.03361,0.1222172 0.01528,0.061109 0.01528,0.1161064 z"
         style="fill:#aa0000;stroke-width:0.586643"
         id="path75" />
      <path
         d="m 11.923052,9.1791107 q 0,0.027499 -0.04583,0.045831 -0.04278,0.015277 -0.113051,0.027499 -0.07028,0.012222 -0.155827,0.021388 -0.0825,0.00611 -0.158882,0.00917 -0.07639,0.00306 -0.137495,0.00611 -0.06111,0 -0.08555,0 -0.03055,0 -0.125272,0 -0.09472,-0.00306 -0.198603,-0.012222 -0.10083,-0.00917 -0.180271,-0.030554 -0.07944,-0.024443 -0.07944,-0.067219 0,-0.051942 0.08555,-0.082497 0.08861,-0.030554 0.201658,-0.042776 0.116107,-0.015277 0.226102,-0.018333 0.113051,-0.00306 0.164993,-0.00306 0.03055,0 0.08555,0.00306 0.05805,0.00306 0.122218,0.012222 0.06722,0.00611 0.137494,0.018333 0.07027,0.012222 0.125273,0.027499 0.05805,0.015277 0.09472,0.036665 0.03667,0.021388 0.03667,0.048887 z"
         style="fill:#aa0000;stroke-width:0.586643"
         id="path77" />
      <path
         d="m 13.429379,8.1524863 q 0,0.2108246 -0.103885,0.3849841 -0.103884,0.1711041 -0.278044,0.2872104 0.09166,0.018333 0.158882,0.064164 0.06722,0.042776 0.109996,0.10694 0.04583,0.064164 0.06722,0.1466606 0.02444,0.079441 0.02444,0.1680487 0,0.1741595 -0.0825,0.3055429 -0.07944,0.1283281 -0.207769,0.2138801 -0.128328,0.082497 -0.28721,0.1252726 -0.155827,0.039721 -0.311654,0.039721 -0.08555,0 -0.171104,-0.012222 -0.08555,-0.012222 -0.161938,-0.042776 -0.0275,-0.00917 -0.04583,-0.07333 -0.01833,-0.06722 -0.03055,-0.1619378 -0.0092,-0.094718 -0.01528,-0.2047138 -0.0061,-0.1099955 -0.0092,-0.2108246 -0.0031,-0.1008292 -0.0031,-0.177215 0,-0.076386 0,-0.10694 0,-0.1069401 0,-0.2138801 0,-0.1099955 0.0061,-0.2169355 0,-0.027499 0,-0.085552 0.0031,-0.058053 0.0031,-0.1283281 0.0031,-0.07333 0.0061,-0.1527715 0.0061,-0.079441 0.01222,-0.1466606 0.0092,-0.070275 0.02139,-0.1191618 0.01528,-0.048887 0.03361,-0.061109 0.07027,-0.045831 0.155827,-0.085552 0.08555,-0.042776 0.177215,-0.07333 0.09166,-0.030554 0.183326,-0.048887 0.09166,-0.018333 0.174159,-0.018333 0.113051,0 0.216936,0.03361 0.10694,0.030554 0.183325,0.094718 0.07944,0.064164 0.125273,0.1588823 0.04889,0.091663 0.04889,0.2108247 z m -0.507201,0.1619378 q 0,-0.051942 -0.03361,-0.076386 -0.03055,-0.024443 -0.0825,-0.024443 -0.04278,0 -0.09166,0.018332 -0.04583,0.018333 -0.07944,0.048887 -0.0092,0.00917 -0.01833,0.051942 -0.0061,0.042776 -0.01222,0.097774 -0.0031,0.051942 -0.0061,0.1008292 0,0.045831 0,0.061109 0,0.00611 0,0.021388 0,0.012222 0,0.027499 0.0031,0.015277 0.0061,0.027499 0.0031,0.012222 0.0092,0.012222 0.05194,0 0.10694,-0.036665 0.055,-0.039721 0.09777,-0.094718 0.04583,-0.058053 0.07333,-0.1222171 0.03056,-0.064164 0.03056,-0.1130509 z m -0.01222,0.8830192 q 0,-0.051942 -0.03666,-0.07333 -0.03667,-0.021388 -0.0825,-0.021388 -0.04278,0 -0.09166,0.021388 -0.04583,0.018333 -0.07639,0.045832 -0.0092,0.00611 -0.01528,0.030554 -0.0031,0.024443 -0.0061,0.054998 0,0.027499 -0.0031,0.054998 0,0.024443 0,0.03361 0,0.00611 0,0.024443 0,0.018333 0,0.039721 0.0031,0.018333 0.0061,0.036665 0.0061,0.015277 0.01222,0.015277 0.04278,0 0.09472,-0.024443 0.05194,-0.024444 0.09472,-0.061109 0.04583,-0.036665 0.07333,-0.082497 0.03055,-0.048887 0.03055,-0.094718 z"
         style="fill:#aa0000;stroke-width:0.586643"
         id="path79" />
      <path
         d="m 15.027369,9.536596 q 0,0.076386 -0.06416,0.1436052 -0.06111,0.067219 -0.161938,0.1222172 -0.09777,0.054998 -0.219991,0.097774 -0.122217,0.039721 -0.241379,0.06722 -0.119161,0.030554 -0.226101,0.045831 -0.103885,0.01528 -0.164994,0.01528 -0.05805,0 -0.125272,-0.01222 -0.06416,-0.0092 -0.10694,-0.045831 -0.02444,-0.018333 -0.04278,-0.082497 -0.01833,-0.064164 -0.03666,-0.1527715 -0.01528,-0.088608 -0.0275,-0.1894366 -0.01222,-0.1038847 -0.02139,-0.2016584 -0.0061,-0.097774 -0.01222,-0.1802704 -0.0031,-0.082497 -0.0031,-0.128328 0,-0.076386 0.0031,-0.1833258 0.0061,-0.1099955 0.01528,-0.2322127 0.0092,-0.1252726 0.02444,-0.2536006 0.01528,-0.1283281 0.03361,-0.241379 0.02139,-0.1161063 0.04889,-0.2077692 0.03055,-0.091663 0.06416,-0.1436052 0.05805,-0.082497 0.146661,-0.082497 0.06111,0 0.103884,0.042776 0.04278,0.039721 0.06722,0.10694 0.0275,0.064164 0.03972,0.1466607 0.01528,0.079441 0.02139,0.1588823 0.0061,0.079441 0.0061,0.1466606 0,0.067219 0,0.1069401 0,0.2383235 -0.01222,0.4735916 -0.0092,0.2322127 -0.0092,0.4705362 v 0.1191618 q 0.137495,-0.042776 0.299432,-0.079441 0.161938,-0.039721 0.308599,-0.039721 0.05194,0 0.103884,0.00611 0.055,0.00611 0.09472,0.027499 0.04278,0.018333 0.06722,0.058053 0.0275,0.036665 0.0275,0.1008292 z"
         style="fill:#aa0000;stroke-width:0.586643"
         id="path81" />
      <path
         d="m 16.435922,9.4785428 q 0,0.058053 -0.03055,0.1130509 -0.03055,0.051942 -0.143605,0.1222172 -0.113051,0.070275 -0.250545,0.1344389 -0.137495,0.061109 -0.265823,0.10694 -0.128328,0.042776 -0.189436,0.042776 -0.04278,0 -0.10083,-0.021388 -0.05805,-0.018333 -0.116106,-0.048887 -0.05805,-0.030554 -0.10694,-0.070275 -0.04583,-0.039721 -0.06722,-0.076386 -0.01222,-0.021388 -0.02444,-0.085552 -0.0092,-0.064164 -0.01833,-0.149716 -0.0061,-0.085552 -0.01222,-0.1802704 -0.0061,-0.097774 -0.01222,-0.1833258 -0.0031,-0.088608 -0.0061,-0.1558269 0,-0.06722 0,-0.097774 0,-0.1130509 0.0061,-0.2597115 0.0092,-0.1466606 0.03055,-0.2933213 0.02139,-0.149716 0.06111,-0.2841549 0.04278,-0.1374944 0.113051,-0.2322127 0.02139,-0.027499 0.08555,-0.058053 0.06416,-0.030554 0.149716,-0.058053 0.08861,-0.027499 0.189437,-0.051942 0.100829,-0.024444 0.192492,-0.039721 0.09472,-0.018333 0.171104,-0.027499 0.07639,-0.012222 0.116106,-0.012222 0.04583,0 0.08555,0.021388 0.04278,0.018333 0.07027,0.051942 0.03055,0.03361 0.04583,0.076386 0.01833,0.039721 0.01833,0.085552 0,0.039721 -0.01222,0.067219 -0.0092,0.027499 -0.03055,0.061109 -0.03055,0.039721 -0.128328,0.094718 -0.09777,0.054998 -0.21388,0.1099954 -0.113051,0.051942 -0.219991,0.094718 -0.103885,0.042776 -0.146661,0.061109 -0.01222,0.070275 -0.0275,0.1436052 -0.01222,0.070275 -0.01833,0.1436052 0.09472,-0.048887 0.21388,-0.091663 0.119162,-0.042776 0.226102,-0.042776 0.216935,0 0.216935,0.21388 0,0.051942 -0.02139,0.091663 -0.01833,0.039721 -0.05194,0.070275 -0.03055,0.030554 -0.07333,0.054998 -0.03972,0.021388 -0.07944,0.042776 -0.09777,0.051942 -0.204714,0.091663 -0.10694,0.036665 -0.21388,0.07333 -0.0061,0.024443 -0.01222,0.054998 -0.0061,0.027499 -0.0061,0.054998 0,0.042776 0.0061,0.085552 0.0061,0.042776 0.01222,0.085552 0.03667,-0.012222 0.116106,-0.039721 0.0825,-0.027499 0.171104,-0.054998 0.08861,-0.027499 0.171104,-0.045832 0.0825,-0.021388 0.122217,-0.021388 0.04583,0 0.08555,0.021388 0.03972,0.018333 0.06722,0.051942 0.0275,0.030554 0.04278,0.07333 0.01833,0.042776 0.01833,0.085552 z"
         style="fill:#aa0000;stroke-width:0.586643"
         id="path83" />
    </g>
  </g>
  <g
     inkscape:label="F.Mask"
     inkscape:groupmode="layer"
     id="g59"
     style="display:inline">
    <g
       aria-label="The K-BLE"
       transform="scale(0.88691482,1.127504)"
       id="g102"
       style="font-size:3.12876px;line-height:1.25;font-family:Chewy;-inkscape-font-specification:Chewy;fill:#808000;stroke-width:0.586643">
      <path
         d="m 5.4333193,7.8713867 q 0,0.076386 -0.061109,0.1405498 Q 5.3141573,8.0730455 5.2286051,8.121932 5.1461081,8.167763 5.057501,8.198318 4.968894,8.228872 4.9108404,8.241094 4.8863974,8.4763621 4.8711194,8.7116302 4.8588974,8.9438429 4.8588974,9.179111 q 0,0.1252726 0.00611,0.2474898 0.00611,0.1222172 0.00611,0.2444344 0,0.054998 -0.012222,0.1222172 -0.00917,0.064164 -0.036665,0.1222172 -0.024443,0.058053 -0.070275,0.097774 -0.045831,0.03972 -0.1130509,0.03972 -0.079441,0 -0.128328,-0.04583 -0.045832,-0.042776 -0.07333,-0.1069431 -0.024444,-0.064164 -0.03361,-0.1344389 -0.00917,-0.07333 -0.00917,-0.1313835 -0.00611,-0.1833258 -0.00917,-0.3666516 -0.00306,-0.1863812 -0.00306,-0.3727624 0,-0.1558269 0,-0.305543 0.00306,-0.149716 0.00306,-0.3055429 -0.042776,0.00611 -0.088608,0.00917 -0.042776,0.00306 -0.088607,0.00306 -0.036665,0 -0.097774,-0.00611 Q 4.0522545,8.280821 3.9972566,8.262492 3.9422586,8.241104 3.9025386,8.207494 3.8628176,8.170829 3.8628176,8.115831 q 0,-0.091663 0.07333,-0.1588823 0.070275,-0.070275 0.1802704,-0.1191618 0.1130509,-0.051942 0.2474898,-0.085552 0.1374943,-0.036665 0.2688778,-0.054998 0.1344389,-0.021388 0.2444344,-0.030554 0.1130509,-0.00917 0.1741595,-0.00917 0.058053,0 0.1222172,0.00611 0.067219,0.00306 0.1252726,0.024443 0.058053,0.021388 0.094718,0.064164 0.039721,0.042776 0.039721,0.1191617 z"
         style="fill:#808000;stroke-width:0.586643"
         id="path86" />
      <path
         d="m 6.6646575,9.166889 q 0,0.051942 -0.00306,0.1558269 0,0.1008292 -0.00917,0.2138801 -0.00611,0.1099954 -0.018333,0.2108246 -0.012222,0.097774 -0.030554,0.1436052 -0.024443,0.058053 -0.064164,0.1008292 -0.039721,0.042776 -0.10694,0.042776 -0.1038846,0 -0.1497161,-0.082497 Q 6.2368974,9.869638 6.2216204,9.7474206 6.2063434,9.6252034 6.2093984,9.4815982 6.2124584,9.337993 6.2063384,9.2157758 6.2002284,9.0935586 6.1727284,9.011062 6.1452294,8.928565 6.0718993,8.928565 q -0.1008292,0 -0.155827,0.03361 -0.051942,0.030554 -0.076386,0.082497 -0.021388,0.051942 -0.027499,0.1191617 -0.00306,0.067219 -0.00917,0.1405498 -0.00611,0.070275 -0.00917,0.1894367 -0.00306,0.1191617 -0.027499,0.235268 -0.024444,0.1161064 -0.082497,0.2016584 -0.054998,0.082497 -0.1649932,0.082497 -0.06722,0 -0.1099955,-0.051942 Q 5.3691553,9.9093584 5.3447119,9.8268618 5.3202684,9.7443652 5.3080467,9.643536 5.2988804,9.5427068 5.295825,9.4479885 q 0,-0.097774 0,-0.1772149 0.00306,-0.079441 0.00306,-0.1191618 0,-0.061109 0.00306,-0.2016584 Q 5.308055,8.8094037 5.323333,8.6382996 5.33861,8.4641401 5.363053,8.2808143 5.387497,8.0974885 5.427217,7.9477725 5.466938,7.795001 5.521935,7.7002827 q 0.058053,-0.094718 0.1344389,-0.091663 0.048887,0.00306 0.082497,0.042776 0.036665,0.039721 0.058053,0.1038846 0.024443,0.061109 0.039721,0.1344389 0.015277,0.07333 0.021388,0.1466606 0.00917,0.070275 0.00917,0.1313835 0.00306,0.061109 0.00306,0.094718 0,0.079441 -0.00306,0.1588824 -0.00306,0.079441 -0.00917,0.1588823 0.070275,-0.094718 0.1863812,-0.1558269 0.1191618,-0.061109 0.2383235,-0.061109 0.1527715,0 0.2291572,0.085552 0.079441,0.082497 0.1130509,0.2077692 0.03361,0.1222172 0.036665,0.262767 0.00306,0.1374943 0.00306,0.2474898 z"
         style="fill:#808000;stroke-width:0.586643"
         id="path88" />
      <path
         d="m 8.1648734,9.4143788 q 0,0.1038846 -0.067219,0.2047138 -0.064164,0.097774 -0.1649933,0.1772149 -0.097774,0.076386 -0.2108246,0.1252726 -0.1130509,0.045832 -0.2077692,0.045832 -0.1619378,0 -0.2902659,-0.079441 Q 7.0985284,9.8054738 7.0129764,9.6802012 6.9274243,9.5549285 6.8815929,9.4052125 6.8388169,9.252441 6.8388169,9.1088358 q 0,-0.1527715 0.042776,-0.326931 0.042776,-0.1741595 0.1283281,-0.3208201 0.088607,-0.1466606 0.2199909,-0.2444344 0.1344389,-0.097774 0.3177647,-0.097774 0.1038846,0 0.1986029,0.036665 0.094718,0.03361 0.1649932,0.097774 0.070275,0.064164 0.1130509,0.1527714 0.042776,0.088608 0.042776,0.198603 0,0.1436052 -0.061109,0.2688778 -0.061109,0.1252726 -0.1619378,0.2169355 -0.1008292,0.091663 -0.2322127,0.1497161 -0.1313835,0.054998 -0.2688778,0.061109 0.012222,0.088607 0.070275,0.128328 0.061109,0.039721 0.1436052,0.039721 0.061109,0 0.1191617,-0.030554 0.058053,-0.030554 0.1130509,-0.067219 0.054998,-0.039721 0.1069401,-0.070275 0.054998,-0.030554 0.1099955,-0.030554 0.061109,0 0.1099954,0.039721 0.048887,0.039721 0.048887,0.1038846 z M 7.6698938,8.6657985 q 0,-0.039721 -0.021388,-0.082497 -0.021388,-0.042776 -0.067219,-0.042776 -0.067219,0 -0.1130509,0.036665 -0.045831,0.03361 -0.076386,0.088608 -0.030554,0.051942 -0.048887,0.1130509 -0.015277,0.061109 -0.018333,0.1130509 0.042776,-0.00917 0.1008292,-0.024444 0.061109,-0.015277 0.1130509,-0.03972 0.054998,-0.027499 0.091663,-0.06722 0.039721,-0.039721 0.039721,-0.094718 z"
         style="fill:#808000;stroke-width:0.586643"
         id="path90" />
      <path
         d="m 10.563386,9.8238064 q 0,0.085552 -0.04278,0.1374943 -0.04278,0.054997 -0.131384,0.054997 -0.07028,0 -0.131383,-0.042776 Q 10.19979,9.9307464 10.147847,9.8696378 10.098961,9.8054738 10.05924,9.7351989 10.022575,9.664924 9.9981313,9.6129817 9.9339673,9.4846537 9.8698033,9.3563256 9.8086947,9.2279976 9.7475861,9.0966141 L 9.5642603,9.209665 q 0.00306,0.088607 -0.00917,0.1772149 -0.012222,0.088608 -0.018333,0.1772149 -0.00611,0.061109 -0.021388,0.1344389 -0.012222,0.070275 -0.042776,0.134439 -0.030554,0.061109 -0.082497,0.1038846 -0.051942,0.042776 -0.128328,0.042776 -0.070275,0 -0.1161064,-0.027499 Q 9.099835,9.9215801 9.0692807,9.8757487 9.0417818,9.8299172 9.0295601,9.7718641 9.0173384,9.7138109 9.0173384,9.6527023 v -0.024443 q 0,-0.1802704 0.018333,-0.3605408 0.021388,-0.1833257 0.027499,-0.3666515 0.00611,-0.241379 0.015277,-0.4827579 0.00917,-0.241379 0.024443,-0.4827579 0.00306,-0.054998 0.018333,-0.1069401 0.015277,-0.051942 0.045831,-0.091663 0.030554,-0.042776 0.07333,-0.067219 0.045831,-0.024444 0.10694,-0.024444 0.094718,0 0.1405498,0.06722 0.048887,0.067219 0.067219,0.1619378 0.018333,0.094718 0.015277,0.1955475 0,0.1008292 0,0.1680486 0,0.1924921 -0.00917,0.3849842 0.088607,-0.07333 0.171104,-0.1680487 0.085552,-0.094718 0.1497161,-0.1924921 0.039721,-0.058053 0.091663,-0.1588823 0.051942,-0.1038846 0.1130507,-0.1986029 0.06111,-0.097774 0.134439,-0.1680487 0.07333,-0.07333 0.155827,-0.07333 0.08861,0 0.128328,0.051942 0.04278,0.048887 0.04278,0.1313835 0,0.1222172 -0.03972,0.2505452 -0.03666,0.1283281 -0.100829,0.2536007 -0.06416,0.1222172 -0.146661,0.2352681 -0.07944,0.1099955 -0.161937,0.1924921 0.08555,0.1436052 0.161937,0.2902658 0.07639,0.1436052 0.152772,0.2902658 0.0275,0.048887 0.05194,0.1069401 0.0275,0.058053 0.04889,0.1191617 0.02139,0.061109 0.03361,0.1222172 0.01528,0.061109 0.01528,0.1161064 z"
         style="fill:#808000;stroke-width:0.586643"
         id="path92" />
      <path
         d="m 11.923052,9.1791107 q 0,0.027499 -0.04583,0.045831 -0.04278,0.015277 -0.113051,0.027499 -0.07028,0.012222 -0.155827,0.021388 -0.0825,0.00611 -0.158882,0.00917 -0.07639,0.00306 -0.137495,0.00611 -0.06111,0 -0.08555,0 -0.03055,0 -0.125272,0 -0.09472,-0.00306 -0.198603,-0.012222 -0.10083,-0.00917 -0.180271,-0.030554 -0.07944,-0.024443 -0.07944,-0.067219 0,-0.051942 0.08555,-0.082497 0.08861,-0.030554 0.201658,-0.042776 0.116107,-0.015277 0.226102,-0.018333 0.113051,-0.00306 0.164993,-0.00306 0.03055,0 0.08555,0.00306 0.05805,0.00306 0.122218,0.012222 0.06722,0.00611 0.137494,0.018333 0.07027,0.012222 0.125273,0.027499 0.05805,0.015277 0.09472,0.036665 0.03667,0.021388 0.03667,0.048887 z"
         style="fill:#808000;stroke-width:0.586643"
         id="path94" />
      <path
         d="m 13.429379,8.1524863 q 0,0.2108246 -0.103885,0.3849841 -0.103884,0.1711041 -0.278044,0.2872104 0.09166,0.018333 0.158882,0.064164 0.06722,0.042776 0.109996,0.10694 0.04583,0.064164 0.06722,0.1466606 0.02444,0.079441 0.02444,0.1680487 0,0.1741595 -0.0825,0.3055429 -0.07944,0.1283281 -0.207769,0.2138801 -0.128328,0.082497 -0.28721,0.1252726 -0.155827,0.039721 -0.311654,0.039721 -0.08555,0 -0.171104,-0.012222 -0.08555,-0.012222 -0.161938,-0.042776 -0.0275,-0.00917 -0.04583,-0.07333 -0.01833,-0.06722 -0.03055,-0.1619378 -0.0092,-0.094718 -0.01528,-0.2047138 -0.0061,-0.1099955 -0.0092,-0.2108246 -0.0031,-0.1008292 -0.0031,-0.177215 0,-0.076386 0,-0.10694 0,-0.1069401 0,-0.2138801 0,-0.1099955 0.0061,-0.2169355 0,-0.027499 0,-0.085552 0.0031,-0.058053 0.0031,-0.1283281 0.0031,-0.07333 0.0061,-0.1527715 0.0061,-0.079441 0.01222,-0.1466606 0.0092,-0.070275 0.02139,-0.1191618 0.01528,-0.048887 0.03361,-0.061109 0.07027,-0.045831 0.155827,-0.085552 0.08555,-0.042776 0.177215,-0.07333 0.09166,-0.030554 0.183326,-0.048887 0.09166,-0.018333 0.174159,-0.018333 0.113051,0 0.216936,0.03361 0.10694,0.030554 0.183325,0.094718 0.07944,0.064164 0.125273,0.1588823 0.04889,0.091663 0.04889,0.2108247 z m -0.507201,0.1619378 q 0,-0.051942 -0.03361,-0.076386 -0.03055,-0.024443 -0.0825,-0.024443 -0.04278,0 -0.09166,0.018332 -0.04583,0.018333 -0.07944,0.048887 -0.0092,0.00917 -0.01833,0.051942 -0.0061,0.042776 -0.01222,0.097774 -0.0031,0.051942 -0.0061,0.1008292 0,0.045831 0,0.061109 0,0.00611 0,0.021388 0,0.012222 0,0.027499 0.0031,0.015277 0.0061,0.027499 0.0031,0.012222 0.0092,0.012222 0.05194,0 0.10694,-0.036665 0.055,-0.039721 0.09777,-0.094718 0.04583,-0.058053 0.07333,-0.1222171 0.03056,-0.064164 0.03056,-0.1130509 z m -0.01222,0.8830192 q 0,-0.051942 -0.03666,-0.07333 -0.03667,-0.021388 -0.0825,-0.021388 -0.04278,0 -0.09166,0.021388 -0.04583,0.018333 -0.07639,0.045832 -0.0092,0.00611 -0.01528,0.030554 -0.0031,0.024443 -0.0061,0.054998 0,0.027499 -0.0031,0.054998 0,0.024443 0,0.03361 0,0.00611 0,0.024443 0,0.018333 0,0.039721 0.0031,0.018333 0.0061,0.036665 0.0061,0.015277 0.01222,0.015277 0.04278,0 0.09472,-0.024443 0.05194,-0.024444 0.09472,-0.061109 0.04583,-0.036665 0.07333,-0.082497 0.03055,-0.048887 0.03055,-0.094718 z"
         style="fill:#808000;stroke-width:0.586643"
         id="path96" />
      <path
         d="m 15.027369,9.536596 q 0,0.076386 -0.06416,0.1436052 -0.06111,0.067219 -0.161938,0.1222172 -0.09777,0.054998 -0.219991,0.097774 -0.122217,0.039721 -0.241379,0.06722 -0.119161,0.030554 -0.226101,0.045831 -0.103885,0.01528 -0.164994,0.01528 -0.05805,0 -0.125272,-0.01222 -0.06416,-0.0092 -0.10694,-0.045831 -0.02444,-0.018333 -0.04278,-0.082497 -0.01833,-0.064164 -0.03666,-0.1527715 -0.01528,-0.088608 -0.0275,-0.1894366 -0.01222,-0.1038847 -0.02139,-0.2016584 -0.0061,-0.097774 -0.01222,-0.1802704 -0.0031,-0.082497 -0.0031,-0.128328 0,-0.076386 0.0031,-0.1833258 0.0061,-0.1099955 0.01528,-0.2322127 0.0092,-0.1252726 0.02444,-0.2536006 0.01528,-0.1283281 0.03361,-0.241379 0.02139,-0.1161063 0.04889,-0.2077692 0.03055,-0.091663 0.06416,-0.1436052 0.05805,-0.082497 0.146661,-0.082497 0.06111,0 0.103884,0.042776 0.04278,0.039721 0.06722,0.10694 0.0275,0.064164 0.03972,0.1466607 0.01528,0.079441 0.02139,0.1588823 0.0061,0.079441 0.0061,0.1466606 0,0.067219 0,0.1069401 0,0.2383235 -0.01222,0.4735916 -0.0092,0.2322127 -0.0092,0.4705362 v 0.1191618 q 0.137495,-0.042776 0.299432,-0.079441 0.161938,-0.039721 0.308599,-0.039721 0.05194,0 0.103884,0.00611 0.055,0.00611 0.09472,0.027499 0.04278,0.018333 0.06722,0.058053 0.0275,0.036665 0.0275,0.1008292 z"
         style="fill:#808000;stroke-width:0.586643"
         id="path98" />
      <path
         d="m 16.435922,9.4785428 q 0,0.058053 -0.03055,0.1130509 -0.03055,0.051942 -0.143605,0.1222172 -0.113051,0.070275 -0.250545,0.1344389 -0.137495,0.061109 -0.265823,0.10694 -0.128328,0.042776 -0.189436,0.042776 -0.04278,0 -0.10083,-0.021388 -0.05805,-0.018333 -0.116106,-0.048887 -0.05805,-0.030554 -0.10694,-0.070275 -0.04583,-0.039721 -0.06722,-0.076386 -0.01222,-0.021388 -0.02444,-0.085552 -0.0092,-0.064164 -0.01833,-0.149716 -0.0061,-0.085552 -0.01222,-0.1802704 -0.0061,-0.097774 -0.01222,-0.1833258 -0.0031,-0.088608 -0.0061,-0.1558269 0,-0.06722 0,-0.097774 0,-0.1130509 0.0061,-0.2597115 0.0092,-0.1466606 0.03055,-0.2933213 0.02139,-0.149716 0.06111,-0.2841549 0.04278,-0.1374944 0.113051,-0.2322127 0.02139,-0.027499 0.08555,-0.058053 0.06416,-0.030554 0.149716,-0.058053 0.08861,-0.027499 0.189437,-0.051942 0.100829,-0.024444 0.192492,-0.039721 0.09472,-0.018333 0.171104,-0.027499 0.07639,-0.012222 0.116106,-0.012222 0.04583,0 0.08555,0.021388 0.04278,0.018333 0.07027,0.051942 0.03055,0.03361 0.04583,0.076386 0.01833,0.039721 0.01833,0.085552 0,0.039721 -0.01222,0.067219 -0.0092,0.027499 -0.03055,0.061109 -0.03055,0.039721 -0.128328,0.094718 -0.09777,0.054998 -0.21388,0.1099954 -0.113051,0.051942 -0.219991,0.094718 -0.103885,0.042776 -0.146661,0.061109 -0.01222,0.070275 -0.0275,0.1436052 -0.01222,0.070275 -0.01833,0.1436052 0.09472,-0.048887 0.21388,-0.091663 0.119162,-0.042776 0.226102,-0.042776 0.216935,0 0.216935,0.21388 0,0.051942 -0.02139,0.091663 -0.01833,0.039721 -0.05194,0.070275 -0.03055,0.030554 -0.07333,0.054998 -0.03972,0.021388 -0.07944,0.042776 -0.09777,0.051942 -0.204714,0.091663 -0.10694,0.036665 -0.21388,0.07333 -0.0061,0.024443 -0.01222,0.054998 -0.0061,0.027499 -0.0061,0.054998 0,0.042776 0.0061,0.085552 0.0061,0.042776 0.01222,0.085552 0.03667,-0.012222 0.116106,-0.039721 0.0825,-0.027499 0.171104,-0.054998 0.08861,-0.027499 0.171104,-0.045832 0.0825,-0.021388 0.122217,-0.021388 0.04583,0 0.08555,0.021388 0.03972,0.018333 0.06722,0.051942 0.0275,0.030554 0.04278,0.07333 0.01833,0.042776 0.01833,0.085552 z"
         style="fill:#808000;stroke-width:0.586643"
         id="path100" />
    </g>
  </g>
  <g
     inkscape:label="F.SilkS"
     inkscape:groupmode="layer"
     id="g61" />
  <g
     inkscape:label="Dwgs.User"
     inkscape:groupmode="layer"
     id="g63" />
  <g
     inkscape:label="Drill"
     inkscape:groupmode="layer"
     id="g65" />
</svg>
