G04 #@! TF.GenerationSoftware,KiCad,Pcbnew,(5.1.9-0-10_14)*
G04 #@! TF.CreationDate,2022-01-02T12:30:46-07:00*
G04 #@! TF.ProjectId,MS88SF2_01,4d533838-5346-4325-9f30-312e6b696361,rev?*
G04 #@! TF.SameCoordinates,Original*
G04 #@! TF.FileFunction,Legend,Top*
G04 #@! TF.FilePolarity,Positive*
%FSLAX46Y46*%
G04 Gerber Fmt 4.6, Leading zero omitted, Abs format (unit mm)*
G04 Created by KiCad (PCBNEW (5.1.9-0-10_14)) date 2022-01-02 12:30:46*
%MOMM*%
%LPD*%
G01*
G04 APERTURE LIST*
%ADD10C,0.200000*%
G04 APERTURE END LIST*
D10*
X157374221Y-79919661D02*
X156997097Y-80673908D01*
X157751345Y-80296784D01*
X157374221Y-81051032D02*
X157939906Y-80485346D01*
X158074593Y-80620033D01*
X158128468Y-80727783D01*
X158128468Y-80835532D01*
X158101531Y-80916345D01*
X158020719Y-81051032D01*
X157939906Y-81131844D01*
X157805219Y-81212656D01*
X157724407Y-81239593D01*
X157616658Y-81239593D01*
X157508908Y-81185719D01*
X157374221Y-81051032D01*
X157939906Y-81616717D02*
X158505592Y-81051032D01*
X158640279Y-81185719D01*
X158694154Y-81293468D01*
X158694154Y-81401218D01*
X158667216Y-81482030D01*
X158586404Y-81616717D01*
X158505592Y-81697529D01*
X158370905Y-81778341D01*
X158290093Y-81805279D01*
X158182343Y-81805279D01*
X158074593Y-81751404D01*
X157939906Y-81616717D01*
X158505592Y-82182402D02*
X159071277Y-81616717D01*
X158801903Y-81886091D02*
X159125152Y-82209340D01*
X158828841Y-82505651D02*
X159394526Y-81939966D01*
X155074752Y-81672563D02*
X155640438Y-81106877D01*
X155775125Y-81241564D01*
X155829000Y-81349314D01*
X155829000Y-81457064D01*
X155802062Y-81537876D01*
X155721250Y-81672563D01*
X155640438Y-81753375D01*
X155505751Y-81834187D01*
X155424938Y-81861125D01*
X155317189Y-81861125D01*
X155209439Y-81807250D01*
X155074752Y-81672563D01*
X155855937Y-82022749D02*
X156286935Y-82453748D01*
X146608129Y-80444940D02*
X147173815Y-79879255D01*
X147389314Y-80094754D01*
X147416251Y-80175566D01*
X147416251Y-80229441D01*
X147389314Y-80310253D01*
X147308502Y-80391065D01*
X147227690Y-80418003D01*
X147173815Y-80418003D01*
X147093003Y-80391065D01*
X146877503Y-80175566D01*
X147847250Y-80552690D02*
X147901125Y-80606564D01*
X147928062Y-80687377D01*
X147928062Y-80741251D01*
X147901125Y-80822064D01*
X147820312Y-80956751D01*
X147685625Y-81091438D01*
X147550938Y-81172250D01*
X147470126Y-81199187D01*
X147416251Y-81199187D01*
X147335439Y-81172250D01*
X147281564Y-81118375D01*
X147254627Y-81037563D01*
X147254627Y-80983688D01*
X147281564Y-80902876D01*
X147362377Y-80768189D01*
X147497064Y-80633502D01*
X147631751Y-80552690D01*
X147712563Y-80525752D01*
X147766438Y-80525752D01*
X147847250Y-80552690D01*
X147766438Y-81495499D02*
X147766438Y-81549374D01*
X147712563Y-81549374D01*
X147712563Y-81495499D01*
X147766438Y-81495499D01*
X147712563Y-81549374D01*
X148278248Y-82115059D02*
X147955000Y-81791810D01*
X148116624Y-81953435D02*
X148682309Y-81387749D01*
X148547622Y-81414687D01*
X148439873Y-81414687D01*
X148359061Y-81387749D01*
X149355744Y-82061184D02*
X149086370Y-81791810D01*
X148790059Y-82034247D01*
X148843934Y-82034247D01*
X148924746Y-82061184D01*
X149059433Y-82195871D01*
X149086370Y-82276683D01*
X149086370Y-82330558D01*
X149059433Y-82411370D01*
X148924746Y-82546057D01*
X148843934Y-82572995D01*
X148790059Y-82572995D01*
X148709247Y-82546057D01*
X148574560Y-82411370D01*
X148547622Y-82330558D01*
X148547622Y-82276683D01*
X149275129Y-80444940D02*
X149840815Y-79879255D01*
X150056314Y-80094754D01*
X150083251Y-80175566D01*
X150083251Y-80229441D01*
X150056314Y-80310253D01*
X149975502Y-80391065D01*
X149894690Y-80418003D01*
X149840815Y-80418003D01*
X149760003Y-80391065D01*
X149544503Y-80175566D01*
X150514250Y-80552690D02*
X150568125Y-80606564D01*
X150595062Y-80687377D01*
X150595062Y-80741251D01*
X150568125Y-80822064D01*
X150487312Y-80956751D01*
X150352625Y-81091438D01*
X150217938Y-81172250D01*
X150137126Y-81199187D01*
X150083251Y-81199187D01*
X150002439Y-81172250D01*
X149948564Y-81118375D01*
X149921627Y-81037563D01*
X149921627Y-80983688D01*
X149948564Y-80902876D01*
X150029377Y-80768189D01*
X150164064Y-80633502D01*
X150298751Y-80552690D01*
X150379563Y-80525752D01*
X150433438Y-80525752D01*
X150514250Y-80552690D01*
X150433438Y-81495499D02*
X150433438Y-81549374D01*
X150379563Y-81549374D01*
X150379563Y-81495499D01*
X150433438Y-81495499D01*
X150379563Y-81549374D01*
X150945248Y-82115059D02*
X150622000Y-81791810D01*
X150783624Y-81953435D02*
X151349309Y-81387749D01*
X151214622Y-81414687D01*
X151106873Y-81414687D01*
X151026061Y-81387749D01*
X151699496Y-81737935D02*
X152049682Y-82088122D01*
X151645621Y-82115059D01*
X151726433Y-82195871D01*
X151753370Y-82276683D01*
X151753370Y-82330558D01*
X151726433Y-82411370D01*
X151591746Y-82546057D01*
X151510934Y-82572995D01*
X151457059Y-82572995D01*
X151376247Y-82546057D01*
X151214622Y-82384433D01*
X151187685Y-82303621D01*
X151187685Y-82249746D01*
X136194129Y-80317940D02*
X136759815Y-79752255D01*
X136975314Y-79967754D01*
X137002251Y-80048566D01*
X137002251Y-80102441D01*
X136975314Y-80183253D01*
X136894502Y-80264065D01*
X136813690Y-80291003D01*
X136759815Y-80291003D01*
X136679003Y-80264065D01*
X136463503Y-80048566D01*
X137433250Y-80425690D02*
X137487125Y-80479564D01*
X137514062Y-80560377D01*
X137514062Y-80614251D01*
X137487125Y-80695064D01*
X137406312Y-80829751D01*
X137271625Y-80964438D01*
X137136938Y-81045250D01*
X137056126Y-81072187D01*
X137002251Y-81072187D01*
X136921439Y-81045250D01*
X136867564Y-80991375D01*
X136840627Y-80910563D01*
X136840627Y-80856688D01*
X136867564Y-80775876D01*
X136948377Y-80641189D01*
X137083064Y-80506502D01*
X137217751Y-80425690D01*
X137298563Y-80398752D01*
X137352438Y-80398752D01*
X137433250Y-80425690D01*
X137352438Y-81368499D02*
X137352438Y-81422374D01*
X137298563Y-81422374D01*
X137298563Y-81368499D01*
X137352438Y-81368499D01*
X137298563Y-81422374D01*
X138052810Y-81152999D02*
X138106685Y-81153000D01*
X138187497Y-81179937D01*
X138322184Y-81314624D01*
X138349122Y-81395436D01*
X138349122Y-81449311D01*
X138322184Y-81530123D01*
X138268309Y-81583998D01*
X138160560Y-81637873D01*
X137514062Y-81637873D01*
X137864248Y-81988059D01*
X138726245Y-82095809D02*
X138349122Y-82472932D01*
X138807057Y-81745622D02*
X138268309Y-82014996D01*
X138618496Y-82365183D01*
X152661752Y-81672563D02*
X153227438Y-81106877D01*
X153362125Y-81241564D01*
X153416000Y-81349314D01*
X153416000Y-81457064D01*
X153389062Y-81537876D01*
X153308250Y-81672563D01*
X153227438Y-81753375D01*
X153092751Y-81834187D01*
X153011938Y-81861125D01*
X152904189Y-81861125D01*
X152796439Y-81807250D01*
X152661752Y-81672563D01*
X153442937Y-82022749D02*
X153873935Y-82453748D01*
X153442937Y-82453748D02*
X153873935Y-82022749D01*
X141274129Y-80444940D02*
X141839815Y-79879255D01*
X142055314Y-80094754D01*
X142082251Y-80175566D01*
X142082251Y-80229441D01*
X142055314Y-80310253D01*
X141974502Y-80391065D01*
X141893690Y-80418003D01*
X141839815Y-80418003D01*
X141759003Y-80391065D01*
X141543503Y-80175566D01*
X142513250Y-80552690D02*
X142567125Y-80606564D01*
X142594062Y-80687377D01*
X142594062Y-80741251D01*
X142567125Y-80822064D01*
X142486312Y-80956751D01*
X142351625Y-81091438D01*
X142216938Y-81172250D01*
X142136126Y-81199187D01*
X142082251Y-81199187D01*
X142001439Y-81172250D01*
X141947564Y-81118375D01*
X141920627Y-81037563D01*
X141920627Y-80983688D01*
X141947564Y-80902876D01*
X142028377Y-80768189D01*
X142163064Y-80633502D01*
X142297751Y-80552690D01*
X142378563Y-80525752D01*
X142432438Y-80525752D01*
X142513250Y-80552690D01*
X142432438Y-81495499D02*
X142432438Y-81549374D01*
X142378563Y-81549374D01*
X142378563Y-81495499D01*
X142432438Y-81495499D01*
X142378563Y-81549374D01*
X143132810Y-81279999D02*
X143186685Y-81280000D01*
X143267497Y-81306937D01*
X143402184Y-81441624D01*
X143429122Y-81522436D01*
X143429122Y-81576311D01*
X143402184Y-81657123D01*
X143348309Y-81710998D01*
X143240560Y-81764873D01*
X142594062Y-81764873D01*
X142944248Y-82115059D01*
X143860120Y-81899560D02*
X143913995Y-81953435D01*
X143940932Y-82034247D01*
X143940932Y-82088122D01*
X143913995Y-82168934D01*
X143833183Y-82303621D01*
X143698496Y-82438308D01*
X143563809Y-82519120D01*
X143482996Y-82546057D01*
X143429122Y-82546057D01*
X143348309Y-82519120D01*
X143294435Y-82465245D01*
X143267497Y-82384433D01*
X143267497Y-82330558D01*
X143294435Y-82249746D01*
X143375247Y-82115059D01*
X143509934Y-81980372D01*
X143644621Y-81899560D01*
X143725433Y-81872622D01*
X143779308Y-81872622D01*
X143860120Y-81899560D01*
X131033317Y-80183253D02*
X131087192Y-80291003D01*
X131221879Y-80425690D01*
X131302691Y-80452627D01*
X131356566Y-80452627D01*
X131437378Y-80425690D01*
X131491253Y-80371815D01*
X131518190Y-80291003D01*
X131518190Y-80237128D01*
X131491253Y-80156316D01*
X131410441Y-80021629D01*
X131383503Y-79940816D01*
X131383503Y-79886942D01*
X131410441Y-79806129D01*
X131464316Y-79752255D01*
X131545128Y-79725317D01*
X131599003Y-79725317D01*
X131679815Y-79752255D01*
X131814502Y-79886942D01*
X131868377Y-79994691D01*
X132083876Y-80156316D02*
X131652877Y-80856688D01*
X132164688Y-80560377D01*
X131868377Y-81072187D01*
X132568749Y-80641189D01*
X132218563Y-81422374D02*
X132784248Y-80856688D01*
X132918935Y-80991375D01*
X132972810Y-81099125D01*
X132972810Y-81206874D01*
X132945873Y-81287687D01*
X132865061Y-81422374D01*
X132784248Y-81503186D01*
X132649561Y-81583998D01*
X132568749Y-81610935D01*
X132461000Y-81610935D01*
X132353250Y-81557061D01*
X132218563Y-81422374D01*
X132784248Y-81988059D02*
X133349934Y-81422374D01*
X133727057Y-81799497D02*
X133834807Y-81907247D01*
X133861744Y-81988059D01*
X133861744Y-82095809D01*
X133780932Y-82230496D01*
X133592370Y-82419057D01*
X133457683Y-82499870D01*
X133349934Y-82499870D01*
X133269122Y-82472932D01*
X133161372Y-82365183D01*
X133134435Y-82284370D01*
X133134435Y-82176621D01*
X133215247Y-82041934D01*
X133403809Y-81853372D01*
X133538496Y-81772560D01*
X133646245Y-81772560D01*
X133727057Y-81799497D01*
X126295816Y-80579627D02*
X126861502Y-80013942D01*
X126619065Y-80902876D01*
X127184751Y-80337190D01*
X127373312Y-81064500D02*
X127184751Y-80875938D01*
X126888439Y-81172250D02*
X127454125Y-80606564D01*
X127723499Y-80875938D01*
X127750436Y-81926497D02*
X127696561Y-81926497D01*
X127588812Y-81872622D01*
X127534937Y-81818748D01*
X127481062Y-81710998D01*
X127481062Y-81603248D01*
X127508000Y-81522436D01*
X127588812Y-81387749D01*
X127669624Y-81306937D01*
X127804311Y-81226125D01*
X127885123Y-81199187D01*
X127992873Y-81199187D01*
X128100622Y-81253062D01*
X128154497Y-81306937D01*
X128208372Y-81414687D01*
X128208372Y-81468561D01*
X128235309Y-82519120D02*
X127912061Y-82195871D01*
X128073685Y-82357496D02*
X128639370Y-81791810D01*
X128504683Y-81818748D01*
X128396934Y-81818748D01*
X128316122Y-81791810D01*
X144083503Y-80714314D02*
X144164316Y-80256378D01*
X143760255Y-80391065D02*
X144325940Y-79825380D01*
X144541439Y-80040879D01*
X144568377Y-80121691D01*
X144568377Y-80175566D01*
X144541439Y-80256378D01*
X144460627Y-80337190D01*
X144379815Y-80364128D01*
X144325940Y-80364128D01*
X144245128Y-80337190D01*
X144029629Y-80121691D01*
X144622251Y-80660439D02*
X144810813Y-80849001D01*
X144595314Y-81226125D02*
X144325940Y-80956751D01*
X144891625Y-80391065D01*
X145161000Y-80660439D01*
X144837751Y-81414687D02*
X144891625Y-81522436D01*
X145026312Y-81657123D01*
X145107125Y-81684061D01*
X145161000Y-81684061D01*
X145241812Y-81657123D01*
X145295687Y-81603248D01*
X145322624Y-81522436D01*
X145322624Y-81468561D01*
X145295687Y-81387749D01*
X145214874Y-81253062D01*
X145187937Y-81172250D01*
X145187937Y-81118375D01*
X145214874Y-81037563D01*
X145268749Y-80983688D01*
X145349561Y-80956751D01*
X145403436Y-80956751D01*
X145484248Y-80983688D01*
X145618935Y-81118375D01*
X145672810Y-81226125D01*
X145672810Y-81710998D02*
X145861372Y-81899560D01*
X145645873Y-82276683D02*
X145376499Y-82007309D01*
X145942184Y-81441624D01*
X146211558Y-81710998D01*
X146373183Y-81872622D02*
X146696431Y-82195871D01*
X145969122Y-82599932D02*
X146534807Y-82034247D01*
X128158505Y-79975441D02*
X128212380Y-80083190D01*
X128347067Y-80217877D01*
X128427879Y-80244815D01*
X128481754Y-80244815D01*
X128562566Y-80217877D01*
X128616441Y-80164003D01*
X128643378Y-80083190D01*
X128643378Y-80029316D01*
X128616441Y-79948503D01*
X128535629Y-79813816D01*
X128508691Y-79733004D01*
X128508691Y-79679129D01*
X128535629Y-79598317D01*
X128589503Y-79544442D01*
X128670316Y-79517505D01*
X128724190Y-79517505D01*
X128805003Y-79544442D01*
X128939690Y-79679129D01*
X128993564Y-79786879D01*
X129209064Y-79948503D02*
X128778065Y-80648876D01*
X129289876Y-80352564D01*
X128993564Y-80864375D01*
X129693937Y-80433377D01*
X129720874Y-81483935D02*
X129667000Y-81483935D01*
X129559250Y-81430061D01*
X129505375Y-81376186D01*
X129451500Y-81268436D01*
X129451500Y-81160687D01*
X129478438Y-81079874D01*
X129559250Y-80945187D01*
X129640062Y-80864375D01*
X129774749Y-80783563D01*
X129855561Y-80756625D01*
X129963311Y-80756625D01*
X130071061Y-80810500D01*
X130124935Y-80864375D01*
X130178810Y-80972125D01*
X130178810Y-81026000D01*
X130178810Y-82049621D02*
X129909436Y-81780247D01*
X130475122Y-81214561D01*
X130367372Y-82238183D02*
X130933057Y-81672497D01*
X130690621Y-82561431D02*
X130771433Y-81995746D01*
X131256306Y-81995746D02*
X130609809Y-81995746D01*
X138734129Y-80317940D02*
X139299815Y-79752255D01*
X139515314Y-79967754D01*
X139542251Y-80048566D01*
X139542251Y-80102441D01*
X139515314Y-80183253D01*
X139434502Y-80264065D01*
X139353690Y-80291003D01*
X139299815Y-80291003D01*
X139219003Y-80264065D01*
X139003503Y-80048566D01*
X139973250Y-80425690D02*
X140027125Y-80479564D01*
X140054062Y-80560377D01*
X140054062Y-80614251D01*
X140027125Y-80695064D01*
X139946312Y-80829751D01*
X139811625Y-80964438D01*
X139676938Y-81045250D01*
X139596126Y-81072187D01*
X139542251Y-81072187D01*
X139461439Y-81045250D01*
X139407564Y-80991375D01*
X139380627Y-80910563D01*
X139380627Y-80856688D01*
X139407564Y-80775876D01*
X139488377Y-80641189D01*
X139623064Y-80506502D01*
X139757751Y-80425690D01*
X139838563Y-80398752D01*
X139892438Y-80398752D01*
X139973250Y-80425690D01*
X139892438Y-81368499D02*
X139892438Y-81422374D01*
X139838563Y-81422374D01*
X139838563Y-81368499D01*
X139892438Y-81368499D01*
X139838563Y-81422374D01*
X140592810Y-81152999D02*
X140646685Y-81153000D01*
X140727497Y-81179937D01*
X140862184Y-81314624D01*
X140889122Y-81395436D01*
X140889122Y-81449311D01*
X140862184Y-81530123D01*
X140808309Y-81583998D01*
X140700560Y-81637873D01*
X140054062Y-81637873D01*
X140404248Y-81988059D01*
X141131558Y-81691748D02*
X141185433Y-81691748D01*
X141266245Y-81718685D01*
X141400932Y-81853372D01*
X141427870Y-81934184D01*
X141427870Y-81988059D01*
X141400932Y-82068871D01*
X141347057Y-82122746D01*
X141239308Y-82176621D01*
X140592810Y-82176621D01*
X140942996Y-82526807D01*
X133654129Y-80444940D02*
X134219815Y-79879255D01*
X134435314Y-80094754D01*
X134462251Y-80175566D01*
X134462251Y-80229441D01*
X134435314Y-80310253D01*
X134354502Y-80391065D01*
X134273690Y-80418003D01*
X134219815Y-80418003D01*
X134139003Y-80391065D01*
X133923503Y-80175566D01*
X134516126Y-81306937D02*
X134192877Y-80983688D01*
X134354502Y-81145312D02*
X134920187Y-80579627D01*
X134785500Y-80606564D01*
X134677751Y-80606564D01*
X134596938Y-80579627D01*
X134812438Y-81495499D02*
X134812438Y-81549374D01*
X134758563Y-81549374D01*
X134758563Y-81495499D01*
X134812438Y-81495499D01*
X134758563Y-81549374D01*
X135701372Y-81360812D02*
X135755247Y-81414687D01*
X135782184Y-81495499D01*
X135782184Y-81549374D01*
X135755247Y-81630186D01*
X135674435Y-81764873D01*
X135539748Y-81899560D01*
X135405061Y-81980372D01*
X135324248Y-82007309D01*
X135270374Y-82007309D01*
X135189561Y-81980372D01*
X135135687Y-81926497D01*
X135108749Y-81845685D01*
X135108749Y-81791810D01*
X135135687Y-81710998D01*
X135216499Y-81576311D01*
X135351186Y-81441624D01*
X135485873Y-81360812D01*
X135566685Y-81333874D01*
X135620560Y-81333874D01*
X135701372Y-81360812D01*
X136240120Y-81899560D02*
X136293995Y-81953435D01*
X136320932Y-82034247D01*
X136320932Y-82088122D01*
X136293995Y-82168934D01*
X136213183Y-82303621D01*
X136078496Y-82438308D01*
X135943809Y-82519120D01*
X135862996Y-82546057D01*
X135809122Y-82546057D01*
X135728309Y-82519120D01*
X135674435Y-82465245D01*
X135647497Y-82384433D01*
X135647497Y-82330558D01*
X135674435Y-82249746D01*
X135755247Y-82115059D01*
X135889934Y-81980372D01*
X136024621Y-81899560D01*
X136105433Y-81872622D01*
X136159308Y-81872622D01*
X136240120Y-81899560D01*
X123628816Y-80579627D02*
X124194502Y-80013942D01*
X123952065Y-80902876D01*
X124517751Y-80337190D01*
X124706312Y-81064500D02*
X124517751Y-80875938D01*
X124221439Y-81172250D02*
X124787125Y-80606564D01*
X125056499Y-80875938D01*
X125083436Y-81926497D02*
X125029561Y-81926497D01*
X124921812Y-81872622D01*
X124867937Y-81818748D01*
X124814062Y-81710998D01*
X124814062Y-81603248D01*
X124841000Y-81522436D01*
X124921812Y-81387749D01*
X125002624Y-81306937D01*
X125137311Y-81226125D01*
X125218123Y-81199187D01*
X125325873Y-81199187D01*
X125433622Y-81253062D01*
X125487497Y-81306937D01*
X125541372Y-81414687D01*
X125541372Y-81468561D01*
X125756871Y-81684061D02*
X125810746Y-81684061D01*
X125891558Y-81710998D01*
X126026245Y-81845685D01*
X126053183Y-81926497D01*
X126053183Y-81980372D01*
X126026245Y-82061184D01*
X125972370Y-82115059D01*
X125864621Y-82168934D01*
X125218123Y-82168934D01*
X125568309Y-82519120D01*
X158813532Y-67261972D02*
X158436409Y-68016219D01*
X159190656Y-67639096D01*
X158813532Y-68393343D02*
X159379218Y-67827658D01*
X159513905Y-67962345D01*
X159567780Y-68070094D01*
X159567780Y-68177844D01*
X159540842Y-68258656D01*
X159460030Y-68393343D01*
X159379218Y-68474155D01*
X159244531Y-68554967D01*
X159163719Y-68581905D01*
X159055969Y-68581905D01*
X158948219Y-68528030D01*
X158813532Y-68393343D01*
X159379218Y-68959028D02*
X159944903Y-68393343D01*
X160079590Y-68528030D01*
X160133465Y-68635780D01*
X160133465Y-68743529D01*
X160106528Y-68824341D01*
X160025715Y-68959028D01*
X159944903Y-69039841D01*
X159810216Y-69120653D01*
X159729404Y-69147590D01*
X159621654Y-69147590D01*
X159513905Y-69093715D01*
X159379218Y-68959028D01*
X156569844Y-67485158D02*
X156542906Y-67404346D01*
X156462094Y-67323534D01*
X156354345Y-67269659D01*
X156246595Y-67269659D01*
X156165783Y-67296597D01*
X156031096Y-67377409D01*
X155950284Y-67458221D01*
X155869471Y-67592908D01*
X155842534Y-67673720D01*
X155842534Y-67781470D01*
X155896409Y-67889219D01*
X155950284Y-67943094D01*
X156058033Y-67996969D01*
X156111908Y-67996969D01*
X156300470Y-67808407D01*
X156192720Y-67700658D01*
X156300470Y-68293280D02*
X156866155Y-67727595D01*
X156623719Y-68616529D01*
X157189404Y-68050844D01*
X156893093Y-68885903D02*
X157458778Y-68320218D01*
X157593465Y-68454905D01*
X157647340Y-68562654D01*
X157647340Y-68670404D01*
X157620402Y-68751216D01*
X157539590Y-68885903D01*
X157458778Y-68966715D01*
X157324091Y-69047528D01*
X157243279Y-69074465D01*
X157135529Y-69074465D01*
X157027780Y-69020590D01*
X156893093Y-68885903D01*
X150672129Y-67871940D02*
X151237815Y-67306255D01*
X151453314Y-67521754D01*
X151480251Y-67602566D01*
X151480251Y-67656441D01*
X151453314Y-67737253D01*
X151372502Y-67818065D01*
X151291690Y-67845003D01*
X151237815Y-67845003D01*
X151157003Y-67818065D01*
X150941503Y-67602566D01*
X151534126Y-68733937D02*
X151210877Y-68410688D01*
X151372502Y-68572312D02*
X151938187Y-68006627D01*
X151803500Y-68033564D01*
X151695751Y-68033564D01*
X151614938Y-68006627D01*
X151830438Y-68922499D02*
X151830438Y-68976374D01*
X151776563Y-68976374D01*
X151776563Y-68922499D01*
X151830438Y-68922499D01*
X151776563Y-68976374D01*
X152719372Y-68787812D02*
X152773247Y-68841687D01*
X152800184Y-68922499D01*
X152800184Y-68976374D01*
X152773247Y-69057186D01*
X152692435Y-69191873D01*
X152557748Y-69326560D01*
X152423061Y-69407372D01*
X152342248Y-69434309D01*
X152288374Y-69434309D01*
X152207561Y-69407372D01*
X152153687Y-69353497D01*
X152126749Y-69272685D01*
X152126749Y-69218810D01*
X152153687Y-69137998D01*
X152234499Y-69003311D01*
X152369186Y-68868624D01*
X152503873Y-68787812D01*
X152584685Y-68760874D01*
X152638560Y-68760874D01*
X152719372Y-68787812D01*
X152611622Y-69811433D02*
X152719372Y-69919183D01*
X152800184Y-69946120D01*
X152854059Y-69946120D01*
X152988746Y-69919183D01*
X153123433Y-69838370D01*
X153338932Y-69622871D01*
X153365870Y-69542059D01*
X153365870Y-69488184D01*
X153338932Y-69407372D01*
X153231183Y-69299622D01*
X153150370Y-69272685D01*
X153096496Y-69272685D01*
X153015683Y-69299622D01*
X152880996Y-69434309D01*
X152854059Y-69515122D01*
X152854059Y-69568996D01*
X152880996Y-69649809D01*
X152988746Y-69757558D01*
X153069558Y-69784496D01*
X153123433Y-69784496D01*
X153204245Y-69757558D01*
X145592129Y-67871940D02*
X146157815Y-67306255D01*
X146373314Y-67521754D01*
X146400251Y-67602566D01*
X146400251Y-67656441D01*
X146373314Y-67737253D01*
X146292502Y-67818065D01*
X146211690Y-67845003D01*
X146157815Y-67845003D01*
X146077003Y-67818065D01*
X145861503Y-67602566D01*
X146831250Y-67979690D02*
X146885125Y-68033564D01*
X146912062Y-68114377D01*
X146912062Y-68168251D01*
X146885125Y-68249064D01*
X146804312Y-68383751D01*
X146669625Y-68518438D01*
X146534938Y-68599250D01*
X146454126Y-68626187D01*
X146400251Y-68626187D01*
X146319439Y-68599250D01*
X146265564Y-68545375D01*
X146238627Y-68464563D01*
X146238627Y-68410688D01*
X146265564Y-68329876D01*
X146346377Y-68195189D01*
X146481064Y-68060502D01*
X146615751Y-67979690D01*
X146696563Y-67952752D01*
X146750438Y-67952752D01*
X146831250Y-67979690D01*
X146750438Y-68922499D02*
X146750438Y-68976374D01*
X146696563Y-68976374D01*
X146696563Y-68922499D01*
X146750438Y-68922499D01*
X146696563Y-68976374D01*
X147639372Y-68787812D02*
X147693247Y-68841687D01*
X147720184Y-68922499D01*
X147720184Y-68976374D01*
X147693247Y-69057186D01*
X147612435Y-69191873D01*
X147477748Y-69326560D01*
X147343061Y-69407372D01*
X147262248Y-69434309D01*
X147208374Y-69434309D01*
X147127561Y-69407372D01*
X147073687Y-69353497D01*
X147046749Y-69272685D01*
X147046749Y-69218810D01*
X147073687Y-69137998D01*
X147154499Y-69003311D01*
X147289186Y-68868624D01*
X147423873Y-68787812D01*
X147504685Y-68760874D01*
X147558560Y-68760874D01*
X147639372Y-68787812D01*
X148312807Y-69461247D02*
X148205057Y-69353497D01*
X148124245Y-69326560D01*
X148070370Y-69326560D01*
X147935683Y-69353497D01*
X147800996Y-69434309D01*
X147585497Y-69649809D01*
X147558560Y-69730621D01*
X147558560Y-69784496D01*
X147585497Y-69865308D01*
X147693247Y-69973057D01*
X147774059Y-69999995D01*
X147827934Y-69999995D01*
X147908746Y-69973057D01*
X148043433Y-69838370D01*
X148070370Y-69757558D01*
X148070370Y-69703683D01*
X148043433Y-69622871D01*
X147935683Y-69515122D01*
X147854871Y-69488184D01*
X147800996Y-69488184D01*
X147720184Y-69515122D01*
X148132129Y-67871940D02*
X148697815Y-67306255D01*
X148913314Y-67521754D01*
X148940251Y-67602566D01*
X148940251Y-67656441D01*
X148913314Y-67737253D01*
X148832502Y-67818065D01*
X148751690Y-67845003D01*
X148697815Y-67845003D01*
X148617003Y-67818065D01*
X148401503Y-67602566D01*
X149371250Y-67979690D02*
X149425125Y-68033564D01*
X149452062Y-68114377D01*
X149452062Y-68168251D01*
X149425125Y-68249064D01*
X149344312Y-68383751D01*
X149209625Y-68518438D01*
X149074938Y-68599250D01*
X148994126Y-68626187D01*
X148940251Y-68626187D01*
X148859439Y-68599250D01*
X148805564Y-68545375D01*
X148778627Y-68464563D01*
X148778627Y-68410688D01*
X148805564Y-68329876D01*
X148886377Y-68195189D01*
X149021064Y-68060502D01*
X149155751Y-67979690D01*
X149236563Y-67952752D01*
X149290438Y-67952752D01*
X149371250Y-67979690D01*
X149290438Y-68922499D02*
X149290438Y-68976374D01*
X149236563Y-68976374D01*
X149236563Y-68922499D01*
X149290438Y-68922499D01*
X149236563Y-68976374D01*
X150179372Y-68787812D02*
X150233247Y-68841687D01*
X150260184Y-68922499D01*
X150260184Y-68976374D01*
X150233247Y-69057186D01*
X150152435Y-69191873D01*
X150017748Y-69326560D01*
X149883061Y-69407372D01*
X149802248Y-69434309D01*
X149748374Y-69434309D01*
X149667561Y-69407372D01*
X149613687Y-69353497D01*
X149586749Y-69272685D01*
X149586749Y-69218810D01*
X149613687Y-69137998D01*
X149694499Y-69003311D01*
X149829186Y-68868624D01*
X149963873Y-68787812D01*
X150044685Y-68760874D01*
X150098560Y-68760874D01*
X150179372Y-68787812D01*
X150448746Y-69542059D02*
X150421809Y-69461247D01*
X150421809Y-69407372D01*
X150448746Y-69326560D01*
X150475683Y-69299622D01*
X150556496Y-69272685D01*
X150610370Y-69272685D01*
X150691183Y-69299622D01*
X150798932Y-69407372D01*
X150825870Y-69488184D01*
X150825870Y-69542059D01*
X150798932Y-69622871D01*
X150771995Y-69649809D01*
X150691183Y-69676746D01*
X150637308Y-69676746D01*
X150556496Y-69649809D01*
X150448746Y-69542059D01*
X150367934Y-69515122D01*
X150314059Y-69515122D01*
X150233247Y-69542059D01*
X150125497Y-69649809D01*
X150098560Y-69730621D01*
X150098560Y-69784496D01*
X150125497Y-69865308D01*
X150233247Y-69973057D01*
X150314059Y-69999995D01*
X150367934Y-69999995D01*
X150448746Y-69973057D01*
X150556496Y-69865308D01*
X150583433Y-69784496D01*
X150583433Y-69730621D01*
X150556496Y-69649809D01*
X153212129Y-67871940D02*
X153777815Y-67306255D01*
X153993314Y-67521754D01*
X154020251Y-67602566D01*
X154020251Y-67656441D01*
X153993314Y-67737253D01*
X153912502Y-67818065D01*
X153831690Y-67845003D01*
X153777815Y-67845003D01*
X153697003Y-67818065D01*
X153481503Y-67602566D01*
X154451250Y-67979690D02*
X154505125Y-68033564D01*
X154532062Y-68114377D01*
X154532062Y-68168251D01*
X154505125Y-68249064D01*
X154424312Y-68383751D01*
X154289625Y-68518438D01*
X154154938Y-68599250D01*
X154074126Y-68626187D01*
X154020251Y-68626187D01*
X153939439Y-68599250D01*
X153885564Y-68545375D01*
X153858627Y-68464563D01*
X153858627Y-68410688D01*
X153885564Y-68329876D01*
X153966377Y-68195189D01*
X154101064Y-68060502D01*
X154235751Y-67979690D01*
X154316563Y-67952752D01*
X154370438Y-67952752D01*
X154451250Y-67979690D01*
X154370438Y-68922499D02*
X154370438Y-68976374D01*
X154316563Y-68976374D01*
X154316563Y-68922499D01*
X154370438Y-68922499D01*
X154316563Y-68976374D01*
X154882248Y-69542059D02*
X154559000Y-69218810D01*
X154720624Y-69380435D02*
X155286309Y-68814749D01*
X155151622Y-68841687D01*
X155043873Y-68841687D01*
X154963061Y-68814749D01*
X155609558Y-69245748D02*
X155663433Y-69245748D01*
X155744245Y-69272685D01*
X155878932Y-69407372D01*
X155905870Y-69488184D01*
X155905870Y-69542059D01*
X155878932Y-69622871D01*
X155825057Y-69676746D01*
X155717308Y-69730621D01*
X155070810Y-69730621D01*
X155420996Y-70080807D01*
X143088659Y-67585221D02*
X143358033Y-67854595D01*
X142873160Y-67692971D02*
X143627407Y-67315847D01*
X143250284Y-68070094D01*
X143438845Y-68258656D02*
X144004531Y-67692971D01*
X143708219Y-68528030D02*
X144273905Y-67962345D01*
X144031468Y-68851279D01*
X144597154Y-68285593D01*
X144785715Y-68581905D02*
X144839590Y-68581905D01*
X144920402Y-68608842D01*
X145055089Y-68743529D01*
X145082027Y-68824341D01*
X145082027Y-68878216D01*
X145055089Y-68959028D01*
X145001215Y-69012903D01*
X144893465Y-69066778D01*
X144246967Y-69066778D01*
X144597154Y-69416964D01*
X138008659Y-67585221D02*
X138278033Y-67854595D01*
X137793160Y-67692971D02*
X138547407Y-67315847D01*
X138170284Y-68070094D01*
X138358845Y-68258656D02*
X138924531Y-67692971D01*
X138628219Y-68528030D02*
X139193905Y-67962345D01*
X138951468Y-68851279D01*
X139517154Y-68285593D01*
X139732653Y-68501093D02*
X140109776Y-68878216D01*
X139301654Y-69201465D01*
X140512129Y-67871940D02*
X141077815Y-67306255D01*
X141293314Y-67521754D01*
X141320251Y-67602566D01*
X141320251Y-67656441D01*
X141293314Y-67737253D01*
X141212502Y-67818065D01*
X141131690Y-67845003D01*
X141077815Y-67845003D01*
X140997003Y-67818065D01*
X140781503Y-67602566D01*
X141751250Y-67979690D02*
X141805125Y-68033564D01*
X141832062Y-68114377D01*
X141832062Y-68168251D01*
X141805125Y-68249064D01*
X141724312Y-68383751D01*
X141589625Y-68518438D01*
X141454938Y-68599250D01*
X141374126Y-68626187D01*
X141320251Y-68626187D01*
X141239439Y-68599250D01*
X141185564Y-68545375D01*
X141158627Y-68464563D01*
X141158627Y-68410688D01*
X141185564Y-68329876D01*
X141266377Y-68195189D01*
X141401064Y-68060502D01*
X141535751Y-67979690D01*
X141616563Y-67952752D01*
X141670438Y-67952752D01*
X141751250Y-67979690D01*
X141670438Y-68922499D02*
X141670438Y-68976374D01*
X141616563Y-68976374D01*
X141616563Y-68922499D01*
X141670438Y-68922499D01*
X141616563Y-68976374D01*
X142370810Y-68706999D02*
X142424685Y-68707000D01*
X142505497Y-68733937D01*
X142640184Y-68868624D01*
X142667122Y-68949436D01*
X142667122Y-69003311D01*
X142640184Y-69084123D01*
X142586309Y-69137998D01*
X142478560Y-69191873D01*
X141832062Y-69191873D01*
X142182248Y-69542059D01*
X143232807Y-69461247D02*
X143125057Y-69353497D01*
X143044245Y-69326560D01*
X142990370Y-69326560D01*
X142855683Y-69353497D01*
X142720996Y-69434309D01*
X142505497Y-69649809D01*
X142478560Y-69730621D01*
X142478560Y-69784496D01*
X142505497Y-69865308D01*
X142613247Y-69973057D01*
X142694059Y-69999995D01*
X142747934Y-69999995D01*
X142828746Y-69973057D01*
X142963433Y-69838370D01*
X142990370Y-69757558D01*
X142990370Y-69703683D01*
X142963433Y-69622871D01*
X142855683Y-69515122D01*
X142774871Y-69488184D01*
X142720996Y-69488184D01*
X142640184Y-69515122D01*
X135468659Y-67585221D02*
X135738033Y-67854595D01*
X135253160Y-67692971D02*
X136007407Y-67315847D01*
X135630284Y-68070094D01*
X135818845Y-68258656D02*
X136384531Y-67692971D01*
X136088219Y-68528030D02*
X136653905Y-67962345D01*
X136411468Y-68851279D01*
X136977154Y-68285593D01*
X137515902Y-68824341D02*
X137246528Y-68554967D01*
X136950216Y-68797404D01*
X137004091Y-68797404D01*
X137084903Y-68824341D01*
X137219590Y-68959028D01*
X137246528Y-69039841D01*
X137246528Y-69093715D01*
X137219590Y-69174528D01*
X137084903Y-69309215D01*
X137004091Y-69336152D01*
X136950216Y-69336152D01*
X136869404Y-69309215D01*
X136734717Y-69174528D01*
X136707780Y-69093715D01*
X136707780Y-69039841D01*
X132928659Y-67585221D02*
X133198033Y-67854595D01*
X132713160Y-67692971D02*
X133467407Y-67315847D01*
X133090284Y-68070094D01*
X133278845Y-68258656D02*
X133844531Y-67692971D01*
X133548219Y-68528030D02*
X134113905Y-67962345D01*
X133871468Y-68851279D01*
X134437154Y-68285593D01*
X134814277Y-68662717D02*
X134868152Y-68716592D01*
X134895089Y-68797404D01*
X134895089Y-68851279D01*
X134868152Y-68932091D01*
X134787340Y-69066778D01*
X134652653Y-69201465D01*
X134517966Y-69282277D01*
X134437154Y-69309215D01*
X134383279Y-69309215D01*
X134302467Y-69282277D01*
X134248592Y-69228402D01*
X134221654Y-69147590D01*
X134221654Y-69093715D01*
X134248592Y-69012903D01*
X134329404Y-68878216D01*
X134464091Y-68743529D01*
X134598778Y-68662717D01*
X134679590Y-68635780D01*
X134733465Y-68635780D01*
X134814277Y-68662717D01*
X130352129Y-67871940D02*
X130917815Y-67306255D01*
X131133314Y-67521754D01*
X131160251Y-67602566D01*
X131160251Y-67656441D01*
X131133314Y-67737253D01*
X131052502Y-67818065D01*
X130971690Y-67845003D01*
X130917815Y-67845003D01*
X130837003Y-67818065D01*
X130621503Y-67602566D01*
X131214126Y-68733937D02*
X130890877Y-68410688D01*
X131052502Y-68572312D02*
X131618187Y-68006627D01*
X131483500Y-68033564D01*
X131375751Y-68033564D01*
X131294938Y-68006627D01*
X131510438Y-68922499D02*
X131510438Y-68976374D01*
X131456563Y-68976374D01*
X131456563Y-68922499D01*
X131510438Y-68922499D01*
X131456563Y-68976374D01*
X132022248Y-69542059D02*
X131699000Y-69218810D01*
X131860624Y-69380435D02*
X132426309Y-68814749D01*
X132291622Y-68841687D01*
X132183873Y-68841687D01*
X132103061Y-68814749D01*
X133099744Y-69488184D02*
X132830370Y-69218810D01*
X132534059Y-69461247D01*
X132587934Y-69461247D01*
X132668746Y-69488184D01*
X132803433Y-69622871D01*
X132830370Y-69703683D01*
X132830370Y-69757558D01*
X132803433Y-69838370D01*
X132668746Y-69973057D01*
X132587934Y-69999995D01*
X132534059Y-69999995D01*
X132453247Y-69973057D01*
X132318560Y-69838370D01*
X132291622Y-69757558D01*
X132291622Y-69703683D01*
X127812129Y-67871940D02*
X128377815Y-67306255D01*
X128593314Y-67521754D01*
X128620251Y-67602566D01*
X128620251Y-67656441D01*
X128593314Y-67737253D01*
X128512502Y-67818065D01*
X128431690Y-67845003D01*
X128377815Y-67845003D01*
X128297003Y-67818065D01*
X128081503Y-67602566D01*
X128674126Y-68733937D02*
X128350877Y-68410688D01*
X128512502Y-68572312D02*
X129078187Y-68006627D01*
X128943500Y-68033564D01*
X128835751Y-68033564D01*
X128754938Y-68006627D01*
X128970438Y-68922499D02*
X128970438Y-68976374D01*
X128916563Y-68976374D01*
X128916563Y-68922499D01*
X128970438Y-68922499D01*
X128916563Y-68976374D01*
X129482248Y-69542059D02*
X129159000Y-69218810D01*
X129320624Y-69380435D02*
X129886309Y-68814749D01*
X129751622Y-68841687D01*
X129643873Y-68841687D01*
X129563061Y-68814749D01*
X130236496Y-69164935D02*
X130586682Y-69515122D01*
X130182621Y-69542059D01*
X130263433Y-69622871D01*
X130290370Y-69703683D01*
X130290370Y-69757558D01*
X130263433Y-69838370D01*
X130128746Y-69973057D01*
X130047934Y-69999995D01*
X129994059Y-69999995D01*
X129913247Y-69973057D01*
X129751622Y-69811433D01*
X129724685Y-69730621D01*
X129724685Y-69676746D01*
M02*
