G04 #@! TF.GenerationSoftware,KiCad,Pcbnew,(5.1.9-0-10_14)*
G04 #@! TF.CreationDate,2022-01-02T12:30:46-07:00*
G04 #@! TF.ProjectId,MS88SF2_01,4d533838-5346-4325-9f30-312e6b696361,rev?*
G04 #@! TF.SameCoordinates,Original*
G04 #@! TF.FileFunction,Legend,Bot*
G04 #@! TF.FilePolarity,Positive*
%FSLAX46Y46*%
G04 Gerber Fmt 4.6, Leading zero omitted, Abs format (unit mm)*
G04 Created by KiCad (PCBNEW (5.1.9-0-10_14)) date 2022-01-02 12:30:46*
%MOMM*%
%LPD*%
G01*
G04 APERTURE LIST*
%ADD10C,0.375000*%
G04 APERTURE END LIST*
D10*
X173056285Y-72451857D02*
X172842000Y-72523285D01*
X172770571Y-72594714D01*
X172699142Y-72737571D01*
X172699142Y-72951857D01*
X172770571Y-73094714D01*
X172842000Y-73166142D01*
X172984857Y-73237571D01*
X173556285Y-73237571D01*
X173556285Y-71737571D01*
X173056285Y-71737571D01*
X172913428Y-71809000D01*
X172842000Y-71880428D01*
X172770571Y-72023285D01*
X172770571Y-72166142D01*
X172842000Y-72309000D01*
X172913428Y-72380428D01*
X173056285Y-72451857D01*
X173556285Y-72451857D01*
X172056285Y-73237571D02*
X172056285Y-72237571D01*
X172056285Y-72523285D02*
X171984857Y-72380428D01*
X171913428Y-72309000D01*
X171770571Y-72237571D01*
X171627714Y-72237571D01*
X170556285Y-73166142D02*
X170699142Y-73237571D01*
X170984857Y-73237571D01*
X171127714Y-73166142D01*
X171199142Y-73023285D01*
X171199142Y-72451857D01*
X171127714Y-72309000D01*
X170984857Y-72237571D01*
X170699142Y-72237571D01*
X170556285Y-72309000D01*
X170484857Y-72451857D01*
X170484857Y-72594714D01*
X171199142Y-72737571D01*
X169199142Y-73237571D02*
X169199142Y-72451857D01*
X169270571Y-72309000D01*
X169413428Y-72237571D01*
X169699142Y-72237571D01*
X169842000Y-72309000D01*
X169199142Y-73166142D02*
X169342000Y-73237571D01*
X169699142Y-73237571D01*
X169842000Y-73166142D01*
X169913428Y-73023285D01*
X169913428Y-72880428D01*
X169842000Y-72737571D01*
X169699142Y-72666142D01*
X169342000Y-72666142D01*
X169199142Y-72594714D01*
X168484857Y-73237571D02*
X168484857Y-71737571D01*
X168342000Y-72666142D02*
X167913428Y-73237571D01*
X167913428Y-72237571D02*
X168484857Y-72809000D01*
X167056285Y-73237571D02*
X167199142Y-73166142D01*
X167270571Y-73094714D01*
X167342000Y-72951857D01*
X167342000Y-72523285D01*
X167270571Y-72380428D01*
X167199142Y-72309000D01*
X167056285Y-72237571D01*
X166842000Y-72237571D01*
X166699142Y-72309000D01*
X166627714Y-72380428D01*
X166556285Y-72523285D01*
X166556285Y-72951857D01*
X166627714Y-73094714D01*
X166699142Y-73166142D01*
X166842000Y-73237571D01*
X167056285Y-73237571D01*
X165270571Y-72237571D02*
X165270571Y-73237571D01*
X165913428Y-72237571D02*
X165913428Y-73023285D01*
X165842000Y-73166142D01*
X165699142Y-73237571D01*
X165484857Y-73237571D01*
X165342000Y-73166142D01*
X165270571Y-73094714D01*
X164770571Y-72237571D02*
X164199142Y-72237571D01*
X164556285Y-71737571D02*
X164556285Y-73023285D01*
X164484857Y-73166142D01*
X164342000Y-73237571D01*
X164199142Y-73237571D01*
X162056285Y-72451857D02*
X161842000Y-72523285D01*
X161770571Y-72594714D01*
X161699142Y-72737571D01*
X161699142Y-72951857D01*
X161770571Y-73094714D01*
X161842000Y-73166142D01*
X161984857Y-73237571D01*
X162556285Y-73237571D01*
X162556285Y-71737571D01*
X162056285Y-71737571D01*
X161913428Y-71809000D01*
X161842000Y-71880428D01*
X161770571Y-72023285D01*
X161770571Y-72166142D01*
X161842000Y-72309000D01*
X161913428Y-72380428D01*
X162056285Y-72451857D01*
X162556285Y-72451857D01*
X160842000Y-73237571D02*
X160984857Y-73166142D01*
X161056285Y-73094714D01*
X161127714Y-72951857D01*
X161127714Y-72523285D01*
X161056285Y-72380428D01*
X160984857Y-72309000D01*
X160842000Y-72237571D01*
X160627714Y-72237571D01*
X160484857Y-72309000D01*
X160413428Y-72380428D01*
X160342000Y-72523285D01*
X160342000Y-72951857D01*
X160413428Y-73094714D01*
X160484857Y-73166142D01*
X160627714Y-73237571D01*
X160842000Y-73237571D01*
X159056285Y-73237571D02*
X159056285Y-72451857D01*
X159127714Y-72309000D01*
X159270571Y-72237571D01*
X159556285Y-72237571D01*
X159699142Y-72309000D01*
X159056285Y-73166142D02*
X159199142Y-73237571D01*
X159556285Y-73237571D01*
X159699142Y-73166142D01*
X159770571Y-73023285D01*
X159770571Y-72880428D01*
X159699142Y-72737571D01*
X159556285Y-72666142D01*
X159199142Y-72666142D01*
X159056285Y-72594714D01*
X158342000Y-73237571D02*
X158342000Y-72237571D01*
X158342000Y-72523285D02*
X158270571Y-72380428D01*
X158199142Y-72309000D01*
X158056285Y-72237571D01*
X157913428Y-72237571D01*
X156770571Y-73237571D02*
X156770571Y-71737571D01*
X156770571Y-73166142D02*
X156913428Y-73237571D01*
X157199142Y-73237571D01*
X157342000Y-73166142D01*
X157413428Y-73094714D01*
X157484857Y-72951857D01*
X157484857Y-72523285D01*
X157413428Y-72380428D01*
X157342000Y-72309000D01*
X157199142Y-72237571D01*
X156913428Y-72237571D01*
X156770571Y-72309000D01*
X172806285Y-74862571D02*
X172234857Y-74862571D01*
X172592000Y-75862571D02*
X172592000Y-74576857D01*
X172520571Y-74434000D01*
X172377714Y-74362571D01*
X172234857Y-74362571D01*
X171520571Y-75862571D02*
X171663428Y-75791142D01*
X171734857Y-75719714D01*
X171806285Y-75576857D01*
X171806285Y-75148285D01*
X171734857Y-75005428D01*
X171663428Y-74934000D01*
X171520571Y-74862571D01*
X171306285Y-74862571D01*
X171163428Y-74934000D01*
X171092000Y-75005428D01*
X171020571Y-75148285D01*
X171020571Y-75576857D01*
X171092000Y-75719714D01*
X171163428Y-75791142D01*
X171306285Y-75862571D01*
X171520571Y-75862571D01*
X170377714Y-75862571D02*
X170377714Y-74862571D01*
X170377714Y-75148285D02*
X170306285Y-75005428D01*
X170234857Y-74934000D01*
X170092000Y-74862571D01*
X169949142Y-74862571D01*
X168306285Y-74862571D02*
X168306285Y-75862571D01*
X168306285Y-75005428D02*
X168234857Y-74934000D01*
X168092000Y-74862571D01*
X167877714Y-74862571D01*
X167734857Y-74934000D01*
X167663428Y-75076857D01*
X167663428Y-75862571D01*
X166092000Y-75862571D02*
X166592000Y-75148285D01*
X166949142Y-75862571D02*
X166949142Y-74362571D01*
X166377714Y-74362571D01*
X166234857Y-74434000D01*
X166163428Y-74505428D01*
X166092000Y-74648285D01*
X166092000Y-74862571D01*
X166163428Y-75005428D01*
X166234857Y-75076857D01*
X166377714Y-75148285D01*
X166949142Y-75148285D01*
X164949142Y-75076857D02*
X165449142Y-75076857D01*
X165449142Y-75862571D02*
X165449142Y-74362571D01*
X164734857Y-74362571D01*
X163449142Y-74362571D02*
X164163428Y-74362571D01*
X164234857Y-75076857D01*
X164163428Y-75005428D01*
X164020571Y-74934000D01*
X163663428Y-74934000D01*
X163520571Y-75005428D01*
X163449142Y-75076857D01*
X163377714Y-75219714D01*
X163377714Y-75576857D01*
X163449142Y-75719714D01*
X163520571Y-75791142D01*
X163663428Y-75862571D01*
X164020571Y-75862571D01*
X164163428Y-75791142D01*
X164234857Y-75719714D01*
X162806285Y-74505428D02*
X162734857Y-74434000D01*
X162592000Y-74362571D01*
X162234857Y-74362571D01*
X162092000Y-74434000D01*
X162020571Y-74505428D01*
X161949142Y-74648285D01*
X161949142Y-74791142D01*
X162020571Y-75005428D01*
X162877714Y-75862571D01*
X161949142Y-75862571D01*
X161092000Y-75005428D02*
X161234857Y-74934000D01*
X161306285Y-74862571D01*
X161377714Y-74719714D01*
X161377714Y-74648285D01*
X161306285Y-74505428D01*
X161234857Y-74434000D01*
X161092000Y-74362571D01*
X160806285Y-74362571D01*
X160663428Y-74434000D01*
X160592000Y-74505428D01*
X160520571Y-74648285D01*
X160520571Y-74719714D01*
X160592000Y-74862571D01*
X160663428Y-74934000D01*
X160806285Y-75005428D01*
X161092000Y-75005428D01*
X161234857Y-75076857D01*
X161306285Y-75148285D01*
X161377714Y-75291142D01*
X161377714Y-75576857D01*
X161306285Y-75719714D01*
X161234857Y-75791142D01*
X161092000Y-75862571D01*
X160806285Y-75862571D01*
X160663428Y-75791142D01*
X160592000Y-75719714D01*
X160520571Y-75576857D01*
X160520571Y-75291142D01*
X160592000Y-75148285D01*
X160663428Y-75076857D01*
X160806285Y-75005428D01*
X159234857Y-74862571D02*
X159234857Y-75862571D01*
X159592000Y-74291142D02*
X159949142Y-75362571D01*
X159020571Y-75362571D01*
X158163428Y-74362571D02*
X158020571Y-74362571D01*
X157877714Y-74434000D01*
X157806285Y-74505428D01*
X157734857Y-74648285D01*
X157663428Y-74934000D01*
X157663428Y-75291142D01*
X157734857Y-75576857D01*
X157806285Y-75719714D01*
X157877714Y-75791142D01*
X158020571Y-75862571D01*
X158163428Y-75862571D01*
X158306285Y-75791142D01*
X158377714Y-75719714D01*
X158449142Y-75576857D01*
X158520571Y-75291142D01*
X158520571Y-74934000D01*
X158449142Y-74648285D01*
X158377714Y-74505428D01*
X158306285Y-74434000D01*
X158163428Y-74362571D01*
X170413428Y-77701857D02*
X170199142Y-77773285D01*
X170127714Y-77844714D01*
X170056285Y-77987571D01*
X170056285Y-78201857D01*
X170127714Y-78344714D01*
X170199142Y-78416142D01*
X170342000Y-78487571D01*
X170913428Y-78487571D01*
X170913428Y-76987571D01*
X170413428Y-76987571D01*
X170270571Y-77059000D01*
X170199142Y-77130428D01*
X170127714Y-77273285D01*
X170127714Y-77416142D01*
X170199142Y-77559000D01*
X170270571Y-77630428D01*
X170413428Y-77701857D01*
X170913428Y-77701857D01*
X168699142Y-78487571D02*
X169413428Y-78487571D01*
X169413428Y-76987571D01*
X168199142Y-77701857D02*
X167699142Y-77701857D01*
X167484857Y-78487571D02*
X168199142Y-78487571D01*
X168199142Y-76987571D01*
X167484857Y-76987571D01*
X165699142Y-78487571D02*
X165699142Y-77487571D01*
X165699142Y-77630428D02*
X165627714Y-77559000D01*
X165484857Y-77487571D01*
X165270571Y-77487571D01*
X165127714Y-77559000D01*
X165056285Y-77701857D01*
X165056285Y-78487571D01*
X165056285Y-77701857D02*
X164984857Y-77559000D01*
X164842000Y-77487571D01*
X164627714Y-77487571D01*
X164484857Y-77559000D01*
X164413428Y-77701857D01*
X164413428Y-78487571D01*
X163484857Y-78487571D02*
X163627714Y-78416142D01*
X163699142Y-78344714D01*
X163770571Y-78201857D01*
X163770571Y-77773285D01*
X163699142Y-77630428D01*
X163627714Y-77559000D01*
X163484857Y-77487571D01*
X163270571Y-77487571D01*
X163127714Y-77559000D01*
X163056285Y-77630428D01*
X162984857Y-77773285D01*
X162984857Y-78201857D01*
X163056285Y-78344714D01*
X163127714Y-78416142D01*
X163270571Y-78487571D01*
X163484857Y-78487571D01*
X161699142Y-78487571D02*
X161699142Y-76987571D01*
X161699142Y-78416142D02*
X161842000Y-78487571D01*
X162127714Y-78487571D01*
X162270571Y-78416142D01*
X162342000Y-78344714D01*
X162413428Y-78201857D01*
X162413428Y-77773285D01*
X162342000Y-77630428D01*
X162270571Y-77559000D01*
X162127714Y-77487571D01*
X161842000Y-77487571D01*
X161699142Y-77559000D01*
X160342000Y-77487571D02*
X160342000Y-78487571D01*
X160984857Y-77487571D02*
X160984857Y-78273285D01*
X160913428Y-78416142D01*
X160770571Y-78487571D01*
X160556285Y-78487571D01*
X160413428Y-78416142D01*
X160342000Y-78344714D01*
X159413428Y-78487571D02*
X159556285Y-78416142D01*
X159627714Y-78273285D01*
X159627714Y-76987571D01*
X158270571Y-78416142D02*
X158413428Y-78487571D01*
X158699142Y-78487571D01*
X158842000Y-78416142D01*
X158913428Y-78273285D01*
X158913428Y-77701857D01*
X158842000Y-77559000D01*
X158699142Y-77487571D01*
X158413428Y-77487571D01*
X158270571Y-77559000D01*
X158199142Y-77701857D01*
X158199142Y-77844714D01*
X158913428Y-77987571D01*
X145498285Y-75203857D02*
X145284000Y-75275285D01*
X145212571Y-75346714D01*
X145141142Y-75489571D01*
X145141142Y-75703857D01*
X145212571Y-75846714D01*
X145284000Y-75918142D01*
X145426857Y-75989571D01*
X145998285Y-75989571D01*
X145998285Y-74489571D01*
X145498285Y-74489571D01*
X145355428Y-74561000D01*
X145284000Y-74632428D01*
X145212571Y-74775285D01*
X145212571Y-74918142D01*
X145284000Y-75061000D01*
X145355428Y-75132428D01*
X145498285Y-75203857D01*
X145998285Y-75203857D01*
X144641142Y-74989571D02*
X144284000Y-75989571D01*
X143926857Y-74989571D02*
X144284000Y-75989571D01*
X144426857Y-76346714D01*
X144498285Y-76418142D01*
X144641142Y-76489571D01*
M02*
