G04 #@! TF.GenerationSoftware,KiCad,Pcbnew,(5.1.9-0-10_14)*
G04 #@! TF.CreationDate,2022-01-02T12:30:46-07:00*
G04 #@! TF.ProjectId,MS88SF2_01,4d533838-5346-4325-9f30-312e6b696361,rev?*
G04 #@! TF.SameCoordinates,Original*
G04 #@! TF.FileFunction,Soldermask,Top*
G04 #@! TF.FilePolarity,Negative*
%FSLAX46Y46*%
G04 Gerber Fmt 4.6, Leading zero omitted, Abs format (unit mm)*
G04 Created by KiCad (PCBNEW (5.1.9-0-10_14)) date 2022-01-02 12:30:46*
%MOMM*%
%LPD*%
G01*
G04 APERTURE LIST*
%ADD10C,0.100000*%
%ADD11C,0.010000*%
%ADD12C,1.802000*%
%ADD13O,1.802000X1.802000*%
G04 APERTURE END LIST*
D10*
G36*
X142748000Y-86360000D02*
G01*
X137795000Y-86360000D01*
X137191750Y-85090000D01*
X143319500Y-85090000D01*
X142748000Y-86360000D01*
G37*
X142748000Y-86360000D02*
X137795000Y-86360000D01*
X137191750Y-85090000D01*
X143319500Y-85090000D01*
X142748000Y-86360000D01*
G36*
X149860000Y-86360000D02*
G01*
X145415000Y-86360000D01*
X144811750Y-85090000D01*
X150495000Y-85090000D01*
X149860000Y-86360000D01*
G37*
X149860000Y-86360000D02*
X145415000Y-86360000D01*
X144811750Y-85090000D01*
X150495000Y-85090000D01*
X149860000Y-86360000D01*
G36*
X157226000Y-86360000D02*
G01*
X153035000Y-86360000D01*
X151828500Y-85090000D01*
X158750000Y-85090000D01*
X157226000Y-86360000D01*
G37*
X157226000Y-86360000D02*
X153035000Y-86360000D01*
X151828500Y-85090000D01*
X158750000Y-85090000D01*
X157226000Y-86360000D01*
G36*
X135953500Y-86360000D02*
G01*
X130048000Y-86360000D01*
X127698500Y-85090000D01*
X137223500Y-85090000D01*
X135953500Y-86360000D01*
G37*
X135953500Y-86360000D02*
X130048000Y-86360000D01*
X127698500Y-85090000D01*
X137223500Y-85090000D01*
X135953500Y-86360000D01*
D11*
G36*
X125675320Y-74763765D02*
G01*
X125817124Y-74774880D01*
X125947875Y-74793633D01*
X126057809Y-74819207D01*
X126137160Y-74850786D01*
X126147027Y-74856772D01*
X126189187Y-74899661D01*
X126190832Y-74943052D01*
X126153516Y-74982745D01*
X126089834Y-75011234D01*
X126030630Y-75022922D01*
X125938702Y-75032845D01*
X125823630Y-75040755D01*
X125694997Y-75046405D01*
X125562384Y-75049547D01*
X125435371Y-75049933D01*
X125323541Y-75047315D01*
X125236474Y-75041445D01*
X125191908Y-75034448D01*
X125112639Y-75008134D01*
X125068678Y-74974601D01*
X125053020Y-74927962D01*
X125052667Y-74917368D01*
X125068466Y-74872578D01*
X125118014Y-74835092D01*
X125204533Y-74803036D01*
X125281250Y-74784407D01*
X125397617Y-74767712D01*
X125532229Y-74761104D01*
X125675320Y-74763765D01*
G37*
X125675320Y-74763765D02*
X125817124Y-74774880D01*
X125947875Y-74793633D01*
X126057809Y-74819207D01*
X126137160Y-74850786D01*
X126147027Y-74856772D01*
X126189187Y-74899661D01*
X126190832Y-74943052D01*
X126153516Y-74982745D01*
X126089834Y-75011234D01*
X126030630Y-75022922D01*
X125938702Y-75032845D01*
X125823630Y-75040755D01*
X125694997Y-75046405D01*
X125562384Y-75049547D01*
X125435371Y-75049933D01*
X125323541Y-75047315D01*
X125236474Y-75041445D01*
X125191908Y-75034448D01*
X125112639Y-75008134D01*
X125068678Y-74974601D01*
X125053020Y-74927962D01*
X125052667Y-74917368D01*
X125068466Y-74872578D01*
X125118014Y-74835092D01*
X125204533Y-74803036D01*
X125281250Y-74784407D01*
X125397617Y-74767712D01*
X125532229Y-74761104D01*
X125675320Y-74763765D01*
G36*
X122409661Y-73735600D02*
G01*
X122520899Y-73781607D01*
X122616369Y-73859145D01*
X122692028Y-73964667D01*
X122743835Y-74094625D01*
X122767749Y-74245470D01*
X122768898Y-74290402D01*
X122749669Y-74478638D01*
X122694582Y-74648828D01*
X122606227Y-74797366D01*
X122487192Y-74920648D01*
X122340068Y-75015068D01*
X122212650Y-75064834D01*
X122162198Y-75082151D01*
X122144918Y-75099873D01*
X122153013Y-75129052D01*
X122158888Y-75141026D01*
X122208309Y-75201738D01*
X122275691Y-75237552D01*
X122346261Y-75240714D01*
X122348003Y-75240292D01*
X122391998Y-75220121D01*
X122454064Y-75180654D01*
X122518382Y-75132305D01*
X122604514Y-75067163D01*
X122670214Y-75031687D01*
X122723285Y-75023995D01*
X122771525Y-75042205D01*
X122800730Y-75064209D01*
X122840130Y-75105367D01*
X122856699Y-75150129D01*
X122858302Y-75212372D01*
X122846731Y-75292787D01*
X122822120Y-75379023D01*
X122811860Y-75404715D01*
X122760677Y-75492359D01*
X122685843Y-75586642D01*
X122598969Y-75675272D01*
X122511665Y-75745955D01*
X122461281Y-75775925D01*
X122359276Y-75808084D01*
X122245251Y-75817321D01*
X122138362Y-75802916D01*
X122099917Y-75789517D01*
X122012657Y-75732080D01*
X121926026Y-75640153D01*
X121844985Y-75521357D01*
X121774493Y-75383313D01*
X121719510Y-75233642D01*
X121705865Y-75184000D01*
X121687677Y-75073791D01*
X121679072Y-74935675D01*
X121679694Y-74782895D01*
X121689183Y-74628692D01*
X121700222Y-74541361D01*
X122131667Y-74541361D01*
X122133733Y-74572711D01*
X122147406Y-74581564D01*
X122183893Y-74570493D01*
X122211042Y-74559573D01*
X122279358Y-74521153D01*
X122343259Y-74469131D01*
X122350923Y-74461134D01*
X122390435Y-74409854D01*
X122403027Y-74363191D01*
X122399298Y-74320265D01*
X122384880Y-74266288D01*
X122365545Y-74232522D01*
X122362907Y-74230515D01*
X122315137Y-74223227D01*
X122259773Y-74245321D01*
X122228845Y-74271702D01*
X122196704Y-74322955D01*
X122165289Y-74397358D01*
X122141358Y-74476157D01*
X122131669Y-74540601D01*
X122131667Y-74541361D01*
X121700222Y-74541361D01*
X121707181Y-74486309D01*
X121727350Y-74390250D01*
X121785276Y-74213061D01*
X121858636Y-74056254D01*
X121943918Y-73925056D01*
X122037609Y-73824694D01*
X122136195Y-73760395D01*
X122156046Y-73752375D01*
X122286696Y-73724674D01*
X122409661Y-73735600D01*
G37*
X122409661Y-73735600D02*
X122520899Y-73781607D01*
X122616369Y-73859145D01*
X122692028Y-73964667D01*
X122743835Y-74094625D01*
X122767749Y-74245470D01*
X122768898Y-74290402D01*
X122749669Y-74478638D01*
X122694582Y-74648828D01*
X122606227Y-74797366D01*
X122487192Y-74920648D01*
X122340068Y-75015068D01*
X122212650Y-75064834D01*
X122162198Y-75082151D01*
X122144918Y-75099873D01*
X122153013Y-75129052D01*
X122158888Y-75141026D01*
X122208309Y-75201738D01*
X122275691Y-75237552D01*
X122346261Y-75240714D01*
X122348003Y-75240292D01*
X122391998Y-75220121D01*
X122454064Y-75180654D01*
X122518382Y-75132305D01*
X122604514Y-75067163D01*
X122670214Y-75031687D01*
X122723285Y-75023995D01*
X122771525Y-75042205D01*
X122800730Y-75064209D01*
X122840130Y-75105367D01*
X122856699Y-75150129D01*
X122858302Y-75212372D01*
X122846731Y-75292787D01*
X122822120Y-75379023D01*
X122811860Y-75404715D01*
X122760677Y-75492359D01*
X122685843Y-75586642D01*
X122598969Y-75675272D01*
X122511665Y-75745955D01*
X122461281Y-75775925D01*
X122359276Y-75808084D01*
X122245251Y-75817321D01*
X122138362Y-75802916D01*
X122099917Y-75789517D01*
X122012657Y-75732080D01*
X121926026Y-75640153D01*
X121844985Y-75521357D01*
X121774493Y-75383313D01*
X121719510Y-75233642D01*
X121705865Y-75184000D01*
X121687677Y-75073791D01*
X121679072Y-74935675D01*
X121679694Y-74782895D01*
X121689183Y-74628692D01*
X121700222Y-74541361D01*
X122131667Y-74541361D01*
X122133733Y-74572711D01*
X122147406Y-74581564D01*
X122183893Y-74570493D01*
X122211042Y-74559573D01*
X122279358Y-74521153D01*
X122343259Y-74469131D01*
X122350923Y-74461134D01*
X122390435Y-74409854D01*
X122403027Y-74363191D01*
X122399298Y-74320265D01*
X122384880Y-74266288D01*
X122365545Y-74232522D01*
X122362907Y-74230515D01*
X122315137Y-74223227D01*
X122259773Y-74245321D01*
X122228845Y-74271702D01*
X122196704Y-74322955D01*
X122165289Y-74397358D01*
X122141358Y-74476157D01*
X122131669Y-74540601D01*
X122131667Y-74541361D01*
X121700222Y-74541361D01*
X121707181Y-74486309D01*
X121727350Y-74390250D01*
X121785276Y-74213061D01*
X121858636Y-74056254D01*
X121943918Y-73925056D01*
X122037609Y-73824694D01*
X122136195Y-73760395D01*
X122156046Y-73752375D01*
X122286696Y-73724674D01*
X122409661Y-73735600D01*
G36*
X130044031Y-73163780D02*
G01*
X130082973Y-73190222D01*
X130094030Y-73200224D01*
X130157532Y-73286321D01*
X130187463Y-73388841D01*
X130180647Y-73495091D01*
X130173658Y-73518407D01*
X130139791Y-73579970D01*
X130078130Y-73646499D01*
X129986181Y-73719797D01*
X129861449Y-73801668D01*
X129701439Y-73893918D01*
X129525185Y-73987316D01*
X129521084Y-74007731D01*
X129514370Y-74059224D01*
X129506482Y-74130733D01*
X129506335Y-74132170D01*
X129491717Y-74274849D01*
X129626983Y-74210858D01*
X129757639Y-74161485D01*
X129867457Y-74146007D01*
X129954810Y-74163934D01*
X130018074Y-74214780D01*
X130055623Y-74298055D01*
X130063263Y-74341945D01*
X130060448Y-74443180D01*
X130026219Y-74534774D01*
X129958082Y-74619546D01*
X129853543Y-74700314D01*
X129710105Y-74779897D01*
X129651120Y-74807599D01*
X129572777Y-74844800D01*
X129525089Y-74873783D01*
X129499315Y-74901814D01*
X129486709Y-74936159D01*
X129484723Y-74945875D01*
X129479767Y-75016604D01*
X129485978Y-75090301D01*
X129486019Y-75090519D01*
X129499566Y-75140120D01*
X129518580Y-75155467D01*
X129536000Y-75151322D01*
X129570244Y-75138074D01*
X129634083Y-75114349D01*
X129717254Y-75083936D01*
X129779677Y-75061346D01*
X129893547Y-75023279D01*
X129977366Y-75004433D01*
X130039194Y-75005601D01*
X130087089Y-75027572D01*
X130129112Y-75071136D01*
X130147887Y-75097451D01*
X130184143Y-75180228D01*
X130196462Y-75274893D01*
X130184231Y-75364723D01*
X130159603Y-75417415D01*
X130099319Y-75484850D01*
X130011320Y-75559179D01*
X129904379Y-75635235D01*
X129787266Y-75707852D01*
X129668755Y-75771862D01*
X129557616Y-75822098D01*
X129462621Y-75853394D01*
X129405978Y-75861333D01*
X129362883Y-75850671D01*
X129299824Y-75823016D01*
X129244456Y-75792541D01*
X129176400Y-75746569D01*
X129118564Y-75699141D01*
X129090931Y-75669734D01*
X129067941Y-75628119D01*
X129049054Y-75569142D01*
X129033933Y-75489109D01*
X129022241Y-75384327D01*
X129013641Y-75251103D01*
X129007797Y-75085744D01*
X129004371Y-74884556D01*
X129003185Y-74707750D01*
X129002955Y-74517183D01*
X129003900Y-74362524D01*
X129006307Y-74237354D01*
X129010464Y-74135256D01*
X129016656Y-74049813D01*
X129025170Y-73974608D01*
X129036293Y-73903223D01*
X129040060Y-73882250D01*
X129079700Y-73698510D01*
X129123236Y-73556554D01*
X129170618Y-73456523D01*
X129206904Y-73410709D01*
X129275110Y-73362863D01*
X129375786Y-73313196D01*
X129499377Y-73265014D01*
X129636331Y-73221620D01*
X129777094Y-73186321D01*
X129912115Y-73162422D01*
X129931584Y-73159989D01*
X129999538Y-73155181D01*
X130044031Y-73163780D01*
G37*
X130044031Y-73163780D02*
X130082973Y-73190222D01*
X130094030Y-73200224D01*
X130157532Y-73286321D01*
X130187463Y-73388841D01*
X130180647Y-73495091D01*
X130173658Y-73518407D01*
X130139791Y-73579970D01*
X130078130Y-73646499D01*
X129986181Y-73719797D01*
X129861449Y-73801668D01*
X129701439Y-73893918D01*
X129525185Y-73987316D01*
X129521084Y-74007731D01*
X129514370Y-74059224D01*
X129506482Y-74130733D01*
X129506335Y-74132170D01*
X129491717Y-74274849D01*
X129626983Y-74210858D01*
X129757639Y-74161485D01*
X129867457Y-74146007D01*
X129954810Y-74163934D01*
X130018074Y-74214780D01*
X130055623Y-74298055D01*
X130063263Y-74341945D01*
X130060448Y-74443180D01*
X130026219Y-74534774D01*
X129958082Y-74619546D01*
X129853543Y-74700314D01*
X129710105Y-74779897D01*
X129651120Y-74807599D01*
X129572777Y-74844800D01*
X129525089Y-74873783D01*
X129499315Y-74901814D01*
X129486709Y-74936159D01*
X129484723Y-74945875D01*
X129479767Y-75016604D01*
X129485978Y-75090301D01*
X129486019Y-75090519D01*
X129499566Y-75140120D01*
X129518580Y-75155467D01*
X129536000Y-75151322D01*
X129570244Y-75138074D01*
X129634083Y-75114349D01*
X129717254Y-75083936D01*
X129779677Y-75061346D01*
X129893547Y-75023279D01*
X129977366Y-75004433D01*
X130039194Y-75005601D01*
X130087089Y-75027572D01*
X130129112Y-75071136D01*
X130147887Y-75097451D01*
X130184143Y-75180228D01*
X130196462Y-75274893D01*
X130184231Y-75364723D01*
X130159603Y-75417415D01*
X130099319Y-75484850D01*
X130011320Y-75559179D01*
X129904379Y-75635235D01*
X129787266Y-75707852D01*
X129668755Y-75771862D01*
X129557616Y-75822098D01*
X129462621Y-75853394D01*
X129405978Y-75861333D01*
X129362883Y-75850671D01*
X129299824Y-75823016D01*
X129244456Y-75792541D01*
X129176400Y-75746569D01*
X129118564Y-75699141D01*
X129090931Y-75669734D01*
X129067941Y-75628119D01*
X129049054Y-75569142D01*
X129033933Y-75489109D01*
X129022241Y-75384327D01*
X129013641Y-75251103D01*
X129007797Y-75085744D01*
X129004371Y-74884556D01*
X129003185Y-74707750D01*
X129002955Y-74517183D01*
X129003900Y-74362524D01*
X129006307Y-74237354D01*
X129010464Y-74135256D01*
X129016656Y-74049813D01*
X129025170Y-73974608D01*
X129036293Y-73903223D01*
X129040060Y-73882250D01*
X129079700Y-73698510D01*
X129123236Y-73556554D01*
X129170618Y-73456523D01*
X129206904Y-73410709D01*
X129275110Y-73362863D01*
X129375786Y-73313196D01*
X129499377Y-73265014D01*
X129636331Y-73221620D01*
X129777094Y-73186321D01*
X129912115Y-73162422D01*
X129931584Y-73159989D01*
X129999538Y-73155181D01*
X130044031Y-73163780D01*
G36*
X127190142Y-73234628D02*
G01*
X127311476Y-73298683D01*
X127411165Y-73392801D01*
X127482626Y-73513240D01*
X127494526Y-73544708D01*
X127527214Y-73701366D01*
X127526825Y-73871351D01*
X127495587Y-74044628D01*
X127435727Y-74211163D01*
X127349472Y-74360920D01*
X127299379Y-74423864D01*
X127218826Y-74514636D01*
X127305205Y-74579599D01*
X127393532Y-74666161D01*
X127454843Y-74775052D01*
X127491435Y-74911558D01*
X127504159Y-75037685D01*
X127495695Y-75228555D01*
X127451582Y-75397487D01*
X127372629Y-75543202D01*
X127259645Y-75664422D01*
X127113438Y-75759867D01*
X127022180Y-75799782D01*
X126884877Y-75837523D01*
X126739871Y-75853756D01*
X126602219Y-75847755D01*
X126502584Y-75824752D01*
X126466262Y-75811138D01*
X126435708Y-75795831D01*
X126410412Y-75775280D01*
X126389867Y-75745933D01*
X126373566Y-75704238D01*
X126361000Y-75646644D01*
X126351663Y-75569599D01*
X126345045Y-75469550D01*
X126340641Y-75342946D01*
X126337941Y-75186235D01*
X126337607Y-75143870D01*
X126790595Y-75143870D01*
X126799134Y-75201563D01*
X126825289Y-75223354D01*
X126870958Y-75211296D01*
X126920026Y-75180658D01*
X126967855Y-75133235D01*
X127010667Y-75068519D01*
X127041581Y-75000211D01*
X127053714Y-74942011D01*
X127050531Y-74920831D01*
X127014185Y-74876190D01*
X126959338Y-74855233D01*
X126922159Y-74859209D01*
X126859390Y-74894487D01*
X126820251Y-74951855D01*
X126798805Y-75040334D01*
X126797776Y-75048218D01*
X126790595Y-75143870D01*
X126337607Y-75143870D01*
X126336438Y-74995866D01*
X126335625Y-74768286D01*
X126335353Y-74654833D01*
X126335013Y-74404874D01*
X126335318Y-74240010D01*
X126794742Y-74240010D01*
X126796967Y-74314992D01*
X126809734Y-74352624D01*
X126834891Y-74355118D01*
X126874287Y-74324689D01*
X126923119Y-74271365D01*
X126980995Y-74188129D01*
X127028104Y-74091640D01*
X127057379Y-73998263D01*
X127063500Y-73946212D01*
X127047446Y-73888548D01*
X127005508Y-73856967D01*
X126947023Y-73854069D01*
X126881328Y-73882450D01*
X126868377Y-73891926D01*
X126842638Y-73916449D01*
X126825508Y-73947931D01*
X126814099Y-73996406D01*
X126805525Y-74071908D01*
X126801209Y-74125464D01*
X126794742Y-74240010D01*
X126335318Y-74240010D01*
X126335404Y-74193670D01*
X126336787Y-74017641D01*
X126339426Y-73873212D01*
X126343581Y-73756804D01*
X126349515Y-73664841D01*
X126357489Y-73593746D01*
X126367767Y-73539941D01*
X126380610Y-73499849D01*
X126396281Y-73469893D01*
X126415040Y-73446495D01*
X126424561Y-73437151D01*
X126493305Y-73386470D01*
X126589469Y-73332260D01*
X126699319Y-73280914D01*
X126809122Y-73238826D01*
X126905143Y-73212391D01*
X126908862Y-73211682D01*
X127053743Y-73204381D01*
X127190142Y-73234628D01*
G37*
X127190142Y-73234628D02*
X127311476Y-73298683D01*
X127411165Y-73392801D01*
X127482626Y-73513240D01*
X127494526Y-73544708D01*
X127527214Y-73701366D01*
X127526825Y-73871351D01*
X127495587Y-74044628D01*
X127435727Y-74211163D01*
X127349472Y-74360920D01*
X127299379Y-74423864D01*
X127218826Y-74514636D01*
X127305205Y-74579599D01*
X127393532Y-74666161D01*
X127454843Y-74775052D01*
X127491435Y-74911558D01*
X127504159Y-75037685D01*
X127495695Y-75228555D01*
X127451582Y-75397487D01*
X127372629Y-75543202D01*
X127259645Y-75664422D01*
X127113438Y-75759867D01*
X127022180Y-75799782D01*
X126884877Y-75837523D01*
X126739871Y-75853756D01*
X126602219Y-75847755D01*
X126502584Y-75824752D01*
X126466262Y-75811138D01*
X126435708Y-75795831D01*
X126410412Y-75775280D01*
X126389867Y-75745933D01*
X126373566Y-75704238D01*
X126361000Y-75646644D01*
X126351663Y-75569599D01*
X126345045Y-75469550D01*
X126340641Y-75342946D01*
X126337941Y-75186235D01*
X126337607Y-75143870D01*
X126790595Y-75143870D01*
X126799134Y-75201563D01*
X126825289Y-75223354D01*
X126870958Y-75211296D01*
X126920026Y-75180658D01*
X126967855Y-75133235D01*
X127010667Y-75068519D01*
X127041581Y-75000211D01*
X127053714Y-74942011D01*
X127050531Y-74920831D01*
X127014185Y-74876190D01*
X126959338Y-74855233D01*
X126922159Y-74859209D01*
X126859390Y-74894487D01*
X126820251Y-74951855D01*
X126798805Y-75040334D01*
X126797776Y-75048218D01*
X126790595Y-75143870D01*
X126337607Y-75143870D01*
X126336438Y-74995866D01*
X126335625Y-74768286D01*
X126335353Y-74654833D01*
X126335013Y-74404874D01*
X126335318Y-74240010D01*
X126794742Y-74240010D01*
X126796967Y-74314992D01*
X126809734Y-74352624D01*
X126834891Y-74355118D01*
X126874287Y-74324689D01*
X126923119Y-74271365D01*
X126980995Y-74188129D01*
X127028104Y-74091640D01*
X127057379Y-73998263D01*
X127063500Y-73946212D01*
X127047446Y-73888548D01*
X127005508Y-73856967D01*
X126947023Y-73854069D01*
X126881328Y-73882450D01*
X126868377Y-73891926D01*
X126842638Y-73916449D01*
X126825508Y-73947931D01*
X126814099Y-73996406D01*
X126805525Y-74071908D01*
X126801209Y-74125464D01*
X126794742Y-74240010D01*
X126335318Y-74240010D01*
X126335404Y-74193670D01*
X126336787Y-74017641D01*
X126339426Y-73873212D01*
X126343581Y-73756804D01*
X126349515Y-73664841D01*
X126357489Y-73593746D01*
X126367767Y-73539941D01*
X126380610Y-73499849D01*
X126396281Y-73469893D01*
X126415040Y-73446495D01*
X126424561Y-73437151D01*
X126493305Y-73386470D01*
X126589469Y-73332260D01*
X126699319Y-73280914D01*
X126809122Y-73238826D01*
X126905143Y-73212391D01*
X126908862Y-73211682D01*
X127053743Y-73204381D01*
X127190142Y-73234628D01*
G36*
X123999866Y-73232469D02*
G01*
X124009203Y-73241958D01*
X124041687Y-73283803D01*
X124066394Y-73332862D01*
X124084252Y-73395126D01*
X124096188Y-73476588D01*
X124103129Y-73583238D01*
X124106002Y-73721070D01*
X124105938Y-73867267D01*
X124103374Y-74275618D01*
X124163510Y-74199946D01*
X124251806Y-74078851D01*
X124332935Y-73944722D01*
X124413531Y-73786105D01*
X124453058Y-73699963D01*
X124525675Y-73545937D01*
X124593670Y-73418405D01*
X124654730Y-73321190D01*
X124706540Y-73258112D01*
X124732651Y-73238013D01*
X124809139Y-73216703D01*
X124883251Y-73229399D01*
X124925667Y-73257833D01*
X124948747Y-73288997D01*
X124961792Y-73332358D01*
X124967290Y-73399492D01*
X124968000Y-73454930D01*
X124951280Y-73643509D01*
X124903336Y-73846571D01*
X124827491Y-74054132D01*
X124727068Y-74256207D01*
X124670089Y-74349899D01*
X124586339Y-74478882D01*
X124722591Y-74799918D01*
X124799154Y-74982890D01*
X124859339Y-75133514D01*
X124904945Y-75257677D01*
X124937769Y-75361264D01*
X124959612Y-75450161D01*
X124972271Y-75530253D01*
X124977545Y-75607425D01*
X124977982Y-75635616D01*
X124977010Y-75721182D01*
X124971560Y-75775573D01*
X124958972Y-75809906D01*
X124936588Y-75835301D01*
X124928614Y-75841991D01*
X124860866Y-75877285D01*
X124788634Y-75873424D01*
X124724584Y-75843031D01*
X124677392Y-75803726D01*
X124628933Y-75741776D01*
X124577189Y-75653408D01*
X124520148Y-75534852D01*
X124455793Y-75382337D01*
X124395029Y-75226333D01*
X124351859Y-75112952D01*
X124313827Y-75013995D01*
X124283466Y-74935978D01*
X124263310Y-74885416D01*
X124256054Y-74868839D01*
X124237028Y-74875249D01*
X124196965Y-74901120D01*
X124178014Y-74915111D01*
X124106541Y-74969625D01*
X124092159Y-75209104D01*
X124076042Y-75399504D01*
X124052289Y-75551241D01*
X124019825Y-75667473D01*
X123977572Y-75751358D01*
X123924453Y-75806054D01*
X123881046Y-75828377D01*
X123801956Y-75835656D01*
X123725847Y-75805567D01*
X123673437Y-75755386D01*
X123641343Y-75693784D01*
X123619627Y-75606875D01*
X123607910Y-75490715D01*
X123605812Y-75341363D01*
X123612954Y-75154875D01*
X123613941Y-75137757D01*
X123619600Y-75031994D01*
X123626189Y-74892679D01*
X123633341Y-74728574D01*
X123640690Y-74548441D01*
X123647869Y-74361042D01*
X123654512Y-74175139D01*
X123655833Y-74136250D01*
X123662172Y-73967197D01*
X123669355Y-73808494D01*
X123677025Y-73665965D01*
X123684822Y-73545439D01*
X123692389Y-73452740D01*
X123699366Y-73393697D01*
X123702443Y-73378879D01*
X123742906Y-73291954D01*
X123800557Y-73230425D01*
X123867718Y-73197716D01*
X123936713Y-73197256D01*
X123999866Y-73232469D01*
G37*
X123999866Y-73232469D02*
X124009203Y-73241958D01*
X124041687Y-73283803D01*
X124066394Y-73332862D01*
X124084252Y-73395126D01*
X124096188Y-73476588D01*
X124103129Y-73583238D01*
X124106002Y-73721070D01*
X124105938Y-73867267D01*
X124103374Y-74275618D01*
X124163510Y-74199946D01*
X124251806Y-74078851D01*
X124332935Y-73944722D01*
X124413531Y-73786105D01*
X124453058Y-73699963D01*
X124525675Y-73545937D01*
X124593670Y-73418405D01*
X124654730Y-73321190D01*
X124706540Y-73258112D01*
X124732651Y-73238013D01*
X124809139Y-73216703D01*
X124883251Y-73229399D01*
X124925667Y-73257833D01*
X124948747Y-73288997D01*
X124961792Y-73332358D01*
X124967290Y-73399492D01*
X124968000Y-73454930D01*
X124951280Y-73643509D01*
X124903336Y-73846571D01*
X124827491Y-74054132D01*
X124727068Y-74256207D01*
X124670089Y-74349899D01*
X124586339Y-74478882D01*
X124722591Y-74799918D01*
X124799154Y-74982890D01*
X124859339Y-75133514D01*
X124904945Y-75257677D01*
X124937769Y-75361264D01*
X124959612Y-75450161D01*
X124972271Y-75530253D01*
X124977545Y-75607425D01*
X124977982Y-75635616D01*
X124977010Y-75721182D01*
X124971560Y-75775573D01*
X124958972Y-75809906D01*
X124936588Y-75835301D01*
X124928614Y-75841991D01*
X124860866Y-75877285D01*
X124788634Y-75873424D01*
X124724584Y-75843031D01*
X124677392Y-75803726D01*
X124628933Y-75741776D01*
X124577189Y-75653408D01*
X124520148Y-75534852D01*
X124455793Y-75382337D01*
X124395029Y-75226333D01*
X124351859Y-75112952D01*
X124313827Y-75013995D01*
X124283466Y-74935978D01*
X124263310Y-74885416D01*
X124256054Y-74868839D01*
X124237028Y-74875249D01*
X124196965Y-74901120D01*
X124178014Y-74915111D01*
X124106541Y-74969625D01*
X124092159Y-75209104D01*
X124076042Y-75399504D01*
X124052289Y-75551241D01*
X124019825Y-75667473D01*
X123977572Y-75751358D01*
X123924453Y-75806054D01*
X123881046Y-75828377D01*
X123801956Y-75835656D01*
X123725847Y-75805567D01*
X123673437Y-75755386D01*
X123641343Y-75693784D01*
X123619627Y-75606875D01*
X123607910Y-75490715D01*
X123605812Y-75341363D01*
X123612954Y-75154875D01*
X123613941Y-75137757D01*
X123619600Y-75031994D01*
X123626189Y-74892679D01*
X123633341Y-74728574D01*
X123640690Y-74548441D01*
X123647869Y-74361042D01*
X123654512Y-74175139D01*
X123655833Y-74136250D01*
X123662172Y-73967197D01*
X123669355Y-73808494D01*
X123677025Y-73665965D01*
X123684822Y-73545439D01*
X123692389Y-73452740D01*
X123699366Y-73393697D01*
X123702443Y-73378879D01*
X123742906Y-73291954D01*
X123800557Y-73230425D01*
X123867718Y-73197716D01*
X123936713Y-73197256D01*
X123999866Y-73232469D01*
G36*
X128029652Y-73280345D02*
G01*
X128083790Y-73356534D01*
X128105730Y-73404162D01*
X128117659Y-73434705D01*
X128127421Y-73464599D01*
X128135232Y-73498247D01*
X128141311Y-73540051D01*
X128145874Y-73594414D01*
X128149139Y-73665740D01*
X128151322Y-73758431D01*
X128152640Y-73876889D01*
X128153312Y-74025518D01*
X128153554Y-74208719D01*
X128153584Y-74374376D01*
X128153837Y-74559616D01*
X128154561Y-74730970D01*
X128155700Y-74883975D01*
X128157198Y-75014166D01*
X128159001Y-75117076D01*
X128161051Y-75188243D01*
X128163295Y-75223201D01*
X128164167Y-75226064D01*
X128187966Y-75219973D01*
X128241585Y-75204066D01*
X128314536Y-75181474D01*
X128333500Y-75175486D01*
X128505789Y-75129709D01*
X128652899Y-75109018D01*
X128772492Y-75113358D01*
X128862230Y-75142674D01*
X128914809Y-75189316D01*
X128940332Y-75255652D01*
X128945536Y-75340315D01*
X128930269Y-75424417D01*
X128916954Y-75456516D01*
X128866096Y-75526841D01*
X128787693Y-75602717D01*
X128693491Y-75673938D01*
X128610643Y-75722748D01*
X128501914Y-75770464D01*
X128377335Y-75813312D01*
X128246864Y-75849042D01*
X128120464Y-75875401D01*
X128008093Y-75890138D01*
X127919712Y-75891001D01*
X127889000Y-75885896D01*
X127818898Y-75860315D01*
X127773926Y-75821506D01*
X127744247Y-75758254D01*
X127729806Y-75704412D01*
X127699596Y-75542981D01*
X127676645Y-75354582D01*
X127660758Y-75145506D01*
X127651739Y-74922043D01*
X127649393Y-74690485D01*
X127653526Y-74457123D01*
X127663941Y-74228248D01*
X127680445Y-74010152D01*
X127702842Y-73809124D01*
X127730937Y-73631457D01*
X127764535Y-73483442D01*
X127802052Y-73374477D01*
X127852896Y-73290357D01*
X127910349Y-73246880D01*
X127970553Y-73243668D01*
X128029652Y-73280345D01*
G37*
X128029652Y-73280345D02*
X128083790Y-73356534D01*
X128105730Y-73404162D01*
X128117659Y-73434705D01*
X128127421Y-73464599D01*
X128135232Y-73498247D01*
X128141311Y-73540051D01*
X128145874Y-73594414D01*
X128149139Y-73665740D01*
X128151322Y-73758431D01*
X128152640Y-73876889D01*
X128153312Y-74025518D01*
X128153554Y-74208719D01*
X128153584Y-74374376D01*
X128153837Y-74559616D01*
X128154561Y-74730970D01*
X128155700Y-74883975D01*
X128157198Y-75014166D01*
X128159001Y-75117076D01*
X128161051Y-75188243D01*
X128163295Y-75223201D01*
X128164167Y-75226064D01*
X128187966Y-75219973D01*
X128241585Y-75204066D01*
X128314536Y-75181474D01*
X128333500Y-75175486D01*
X128505789Y-75129709D01*
X128652899Y-75109018D01*
X128772492Y-75113358D01*
X128862230Y-75142674D01*
X128914809Y-75189316D01*
X128940332Y-75255652D01*
X128945536Y-75340315D01*
X128930269Y-75424417D01*
X128916954Y-75456516D01*
X128866096Y-75526841D01*
X128787693Y-75602717D01*
X128693491Y-75673938D01*
X128610643Y-75722748D01*
X128501914Y-75770464D01*
X128377335Y-75813312D01*
X128246864Y-75849042D01*
X128120464Y-75875401D01*
X128008093Y-75890138D01*
X127919712Y-75891001D01*
X127889000Y-75885896D01*
X127818898Y-75860315D01*
X127773926Y-75821506D01*
X127744247Y-75758254D01*
X127729806Y-75704412D01*
X127699596Y-75542981D01*
X127676645Y-75354582D01*
X127660758Y-75145506D01*
X127651739Y-74922043D01*
X127649393Y-74690485D01*
X127653526Y-74457123D01*
X127663941Y-74228248D01*
X127680445Y-74010152D01*
X127702842Y-73809124D01*
X127730937Y-73631457D01*
X127764535Y-73483442D01*
X127802052Y-73374477D01*
X127852896Y-73290357D01*
X127910349Y-73246880D01*
X127970553Y-73243668D01*
X128029652Y-73280345D01*
G36*
X120685003Y-73182601D02*
G01*
X120733720Y-73246326D01*
X120771277Y-73348139D01*
X120797872Y-73488782D01*
X120813704Y-73668999D01*
X120818966Y-73884264D01*
X120819334Y-74203778D01*
X120901165Y-74125933D01*
X120997210Y-74057169D01*
X121107020Y-74014709D01*
X121216398Y-74003350D01*
X121251517Y-74007528D01*
X121330405Y-74043070D01*
X121400582Y-74115540D01*
X121457937Y-74219787D01*
X121486281Y-74301740D01*
X121506065Y-74398987D01*
X121520689Y-74526029D01*
X121530319Y-74675533D01*
X121535122Y-74840166D01*
X121535266Y-75012596D01*
X121530917Y-75185489D01*
X121522242Y-75351513D01*
X121509409Y-75503335D01*
X121492584Y-75633623D01*
X121471934Y-75735043D01*
X121452357Y-75791333D01*
X121401355Y-75865659D01*
X121340651Y-75899670D01*
X121271807Y-75892691D01*
X121246119Y-75880462D01*
X121212386Y-75855102D01*
X121185440Y-75818232D01*
X121164290Y-75764946D01*
X121147948Y-75690338D01*
X121135422Y-75589502D01*
X121125722Y-75457533D01*
X121117858Y-75289523D01*
X121115836Y-75234945D01*
X121108181Y-75054252D01*
X121098591Y-74912238D01*
X121085706Y-74805252D01*
X121068165Y-74729644D01*
X121044607Y-74681761D01*
X121013671Y-74657955D01*
X120973997Y-74654573D01*
X120924224Y-74667965D01*
X120907031Y-74674744D01*
X120869751Y-74693770D01*
X120840926Y-74719866D01*
X120818907Y-74758822D01*
X120802042Y-74816430D01*
X120788680Y-74898481D01*
X120777169Y-75010766D01*
X120765860Y-75159076D01*
X120764864Y-75173391D01*
X120753800Y-75327282D01*
X120743902Y-75445864D01*
X120734023Y-75536098D01*
X120723014Y-75604946D01*
X120709727Y-75659367D01*
X120693015Y-75706324D01*
X120671728Y-75752778D01*
X120668094Y-75760083D01*
X120613805Y-75837980D01*
X120552596Y-75876427D01*
X120489734Y-75876516D01*
X120430488Y-75839339D01*
X120380124Y-75765987D01*
X120353302Y-75694842D01*
X120334448Y-75601064D01*
X120320329Y-75471367D01*
X120310837Y-75311886D01*
X120305860Y-75128756D01*
X120305287Y-74928113D01*
X120309009Y-74716092D01*
X120316913Y-74498829D01*
X120328890Y-74282459D01*
X120344829Y-74073117D01*
X120364619Y-73876939D01*
X120388149Y-73700060D01*
X120389435Y-73691750D01*
X120402632Y-73607083D01*
X120309358Y-73692290D01*
X120233882Y-73750898D01*
X120144475Y-73806185D01*
X120097003Y-73829851D01*
X119977923Y-73882204D01*
X119962820Y-74030394D01*
X119958972Y-74087187D01*
X119955011Y-74180094D01*
X119951100Y-74302894D01*
X119947401Y-74449369D01*
X119944078Y-74613298D01*
X119941293Y-74788463D01*
X119939812Y-74908833D01*
X119936637Y-75133195D01*
X119932355Y-75325649D01*
X119927052Y-75484037D01*
X119920814Y-75606203D01*
X119913726Y-75689991D01*
X119907252Y-75728865D01*
X119867416Y-75825679D01*
X119812534Y-75890504D01*
X119747411Y-75920425D01*
X119676854Y-75912529D01*
X119638589Y-75891798D01*
X119596632Y-75855043D01*
X119564927Y-75807176D01*
X119541553Y-75741515D01*
X119524588Y-75651374D01*
X119512111Y-75530072D01*
X119505318Y-75428274D01*
X119500591Y-75324504D01*
X119496271Y-75187914D01*
X119492552Y-75028018D01*
X119489629Y-74854329D01*
X119487697Y-74676358D01*
X119486988Y-74533125D01*
X119485834Y-73935166D01*
X119356741Y-73935166D01*
X119240807Y-73924370D01*
X119141903Y-73894345D01*
X119070789Y-73848636D01*
X119060587Y-73837611D01*
X119037995Y-73781399D01*
X119037373Y-73704729D01*
X119057228Y-73622379D01*
X119088678Y-73559569D01*
X119164599Y-73478419D01*
X119276915Y-73403552D01*
X119419873Y-73337321D01*
X119587716Y-73282074D01*
X119774691Y-73240163D01*
X119922317Y-73219079D01*
X120087854Y-73207912D01*
X120217754Y-73215161D01*
X120314834Y-73241537D01*
X120381909Y-73287746D01*
X120417648Y-73343660D01*
X120445101Y-73409939D01*
X120482465Y-73311506D01*
X120518747Y-73227197D01*
X120552644Y-73177872D01*
X120590132Y-73157014D01*
X120624928Y-73156221D01*
X120685003Y-73182601D01*
G37*
X120685003Y-73182601D02*
X120733720Y-73246326D01*
X120771277Y-73348139D01*
X120797872Y-73488782D01*
X120813704Y-73668999D01*
X120818966Y-73884264D01*
X120819334Y-74203778D01*
X120901165Y-74125933D01*
X120997210Y-74057169D01*
X121107020Y-74014709D01*
X121216398Y-74003350D01*
X121251517Y-74007528D01*
X121330405Y-74043070D01*
X121400582Y-74115540D01*
X121457937Y-74219787D01*
X121486281Y-74301740D01*
X121506065Y-74398987D01*
X121520689Y-74526029D01*
X121530319Y-74675533D01*
X121535122Y-74840166D01*
X121535266Y-75012596D01*
X121530917Y-75185489D01*
X121522242Y-75351513D01*
X121509409Y-75503335D01*
X121492584Y-75633623D01*
X121471934Y-75735043D01*
X121452357Y-75791333D01*
X121401355Y-75865659D01*
X121340651Y-75899670D01*
X121271807Y-75892691D01*
X121246119Y-75880462D01*
X121212386Y-75855102D01*
X121185440Y-75818232D01*
X121164290Y-75764946D01*
X121147948Y-75690338D01*
X121135422Y-75589502D01*
X121125722Y-75457533D01*
X121117858Y-75289523D01*
X121115836Y-75234945D01*
X121108181Y-75054252D01*
X121098591Y-74912238D01*
X121085706Y-74805252D01*
X121068165Y-74729644D01*
X121044607Y-74681761D01*
X121013671Y-74657955D01*
X120973997Y-74654573D01*
X120924224Y-74667965D01*
X120907031Y-74674744D01*
X120869751Y-74693770D01*
X120840926Y-74719866D01*
X120818907Y-74758822D01*
X120802042Y-74816430D01*
X120788680Y-74898481D01*
X120777169Y-75010766D01*
X120765860Y-75159076D01*
X120764864Y-75173391D01*
X120753800Y-75327282D01*
X120743902Y-75445864D01*
X120734023Y-75536098D01*
X120723014Y-75604946D01*
X120709727Y-75659367D01*
X120693015Y-75706324D01*
X120671728Y-75752778D01*
X120668094Y-75760083D01*
X120613805Y-75837980D01*
X120552596Y-75876427D01*
X120489734Y-75876516D01*
X120430488Y-75839339D01*
X120380124Y-75765987D01*
X120353302Y-75694842D01*
X120334448Y-75601064D01*
X120320329Y-75471367D01*
X120310837Y-75311886D01*
X120305860Y-75128756D01*
X120305287Y-74928113D01*
X120309009Y-74716092D01*
X120316913Y-74498829D01*
X120328890Y-74282459D01*
X120344829Y-74073117D01*
X120364619Y-73876939D01*
X120388149Y-73700060D01*
X120389435Y-73691750D01*
X120402632Y-73607083D01*
X120309358Y-73692290D01*
X120233882Y-73750898D01*
X120144475Y-73806185D01*
X120097003Y-73829851D01*
X119977923Y-73882204D01*
X119962820Y-74030394D01*
X119958972Y-74087187D01*
X119955011Y-74180094D01*
X119951100Y-74302894D01*
X119947401Y-74449369D01*
X119944078Y-74613298D01*
X119941293Y-74788463D01*
X119939812Y-74908833D01*
X119936637Y-75133195D01*
X119932355Y-75325649D01*
X119927052Y-75484037D01*
X119920814Y-75606203D01*
X119913726Y-75689991D01*
X119907252Y-75728865D01*
X119867416Y-75825679D01*
X119812534Y-75890504D01*
X119747411Y-75920425D01*
X119676854Y-75912529D01*
X119638589Y-75891798D01*
X119596632Y-75855043D01*
X119564927Y-75807176D01*
X119541553Y-75741515D01*
X119524588Y-75651374D01*
X119512111Y-75530072D01*
X119505318Y-75428274D01*
X119500591Y-75324504D01*
X119496271Y-75187914D01*
X119492552Y-75028018D01*
X119489629Y-74854329D01*
X119487697Y-74676358D01*
X119486988Y-74533125D01*
X119485834Y-73935166D01*
X119356741Y-73935166D01*
X119240807Y-73924370D01*
X119141903Y-73894345D01*
X119070789Y-73848636D01*
X119060587Y-73837611D01*
X119037995Y-73781399D01*
X119037373Y-73704729D01*
X119057228Y-73622379D01*
X119088678Y-73559569D01*
X119164599Y-73478419D01*
X119276915Y-73403552D01*
X119419873Y-73337321D01*
X119587716Y-73282074D01*
X119774691Y-73240163D01*
X119922317Y-73219079D01*
X120087854Y-73207912D01*
X120217754Y-73215161D01*
X120314834Y-73241537D01*
X120381909Y-73287746D01*
X120417648Y-73343660D01*
X120445101Y-73409939D01*
X120482465Y-73311506D01*
X120518747Y-73227197D01*
X120552644Y-73177872D01*
X120590132Y-73157014D01*
X120624928Y-73156221D01*
X120685003Y-73182601D01*
D10*
G36*
X142748000Y-86360000D02*
G01*
X137795000Y-86360000D01*
X137191750Y-85090000D01*
X143319500Y-85090000D01*
X142748000Y-86360000D01*
G37*
X142748000Y-86360000D02*
X137795000Y-86360000D01*
X137191750Y-85090000D01*
X143319500Y-85090000D01*
X142748000Y-86360000D01*
G36*
X149860000Y-86360000D02*
G01*
X145415000Y-86360000D01*
X144811750Y-85090000D01*
X150495000Y-85090000D01*
X149860000Y-86360000D01*
G37*
X149860000Y-86360000D02*
X145415000Y-86360000D01*
X144811750Y-85090000D01*
X150495000Y-85090000D01*
X149860000Y-86360000D01*
G36*
X157226000Y-86360000D02*
G01*
X153035000Y-86360000D01*
X151828500Y-85090000D01*
X158750000Y-85090000D01*
X157226000Y-86360000D01*
G37*
X157226000Y-86360000D02*
X153035000Y-86360000D01*
X151828500Y-85090000D01*
X158750000Y-85090000D01*
X157226000Y-86360000D01*
G36*
X135953500Y-86360000D02*
G01*
X130048000Y-86360000D01*
X127698500Y-85090000D01*
X137223500Y-85090000D01*
X135953500Y-86360000D01*
G37*
X135953500Y-86360000D02*
X130048000Y-86360000D01*
X127698500Y-85090000D01*
X137223500Y-85090000D01*
X135953500Y-86360000D01*
D11*
G36*
X125675320Y-74763765D02*
G01*
X125817124Y-74774880D01*
X125947875Y-74793633D01*
X126057809Y-74819207D01*
X126137160Y-74850786D01*
X126147027Y-74856772D01*
X126189187Y-74899661D01*
X126190832Y-74943052D01*
X126153516Y-74982745D01*
X126089834Y-75011234D01*
X126030630Y-75022922D01*
X125938702Y-75032845D01*
X125823630Y-75040755D01*
X125694997Y-75046405D01*
X125562384Y-75049547D01*
X125435371Y-75049933D01*
X125323541Y-75047315D01*
X125236474Y-75041445D01*
X125191908Y-75034448D01*
X125112639Y-75008134D01*
X125068678Y-74974601D01*
X125053020Y-74927962D01*
X125052667Y-74917368D01*
X125068466Y-74872578D01*
X125118014Y-74835092D01*
X125204533Y-74803036D01*
X125281250Y-74784407D01*
X125397617Y-74767712D01*
X125532229Y-74761104D01*
X125675320Y-74763765D01*
G37*
X125675320Y-74763765D02*
X125817124Y-74774880D01*
X125947875Y-74793633D01*
X126057809Y-74819207D01*
X126137160Y-74850786D01*
X126147027Y-74856772D01*
X126189187Y-74899661D01*
X126190832Y-74943052D01*
X126153516Y-74982745D01*
X126089834Y-75011234D01*
X126030630Y-75022922D01*
X125938702Y-75032845D01*
X125823630Y-75040755D01*
X125694997Y-75046405D01*
X125562384Y-75049547D01*
X125435371Y-75049933D01*
X125323541Y-75047315D01*
X125236474Y-75041445D01*
X125191908Y-75034448D01*
X125112639Y-75008134D01*
X125068678Y-74974601D01*
X125053020Y-74927962D01*
X125052667Y-74917368D01*
X125068466Y-74872578D01*
X125118014Y-74835092D01*
X125204533Y-74803036D01*
X125281250Y-74784407D01*
X125397617Y-74767712D01*
X125532229Y-74761104D01*
X125675320Y-74763765D01*
G36*
X122409661Y-73735600D02*
G01*
X122520899Y-73781607D01*
X122616369Y-73859145D01*
X122692028Y-73964667D01*
X122743835Y-74094625D01*
X122767749Y-74245470D01*
X122768898Y-74290402D01*
X122749669Y-74478638D01*
X122694582Y-74648828D01*
X122606227Y-74797366D01*
X122487192Y-74920648D01*
X122340068Y-75015068D01*
X122212650Y-75064834D01*
X122162198Y-75082151D01*
X122144918Y-75099873D01*
X122153013Y-75129052D01*
X122158888Y-75141026D01*
X122208309Y-75201738D01*
X122275691Y-75237552D01*
X122346261Y-75240714D01*
X122348003Y-75240292D01*
X122391998Y-75220121D01*
X122454064Y-75180654D01*
X122518382Y-75132305D01*
X122604514Y-75067163D01*
X122670214Y-75031687D01*
X122723285Y-75023995D01*
X122771525Y-75042205D01*
X122800730Y-75064209D01*
X122840130Y-75105367D01*
X122856699Y-75150129D01*
X122858302Y-75212372D01*
X122846731Y-75292787D01*
X122822120Y-75379023D01*
X122811860Y-75404715D01*
X122760677Y-75492359D01*
X122685843Y-75586642D01*
X122598969Y-75675272D01*
X122511665Y-75745955D01*
X122461281Y-75775925D01*
X122359276Y-75808084D01*
X122245251Y-75817321D01*
X122138362Y-75802916D01*
X122099917Y-75789517D01*
X122012657Y-75732080D01*
X121926026Y-75640153D01*
X121844985Y-75521357D01*
X121774493Y-75383313D01*
X121719510Y-75233642D01*
X121705865Y-75184000D01*
X121687677Y-75073791D01*
X121679072Y-74935675D01*
X121679694Y-74782895D01*
X121689183Y-74628692D01*
X121700222Y-74541361D01*
X122131667Y-74541361D01*
X122133733Y-74572711D01*
X122147406Y-74581564D01*
X122183893Y-74570493D01*
X122211042Y-74559573D01*
X122279358Y-74521153D01*
X122343259Y-74469131D01*
X122350923Y-74461134D01*
X122390435Y-74409854D01*
X122403027Y-74363191D01*
X122399298Y-74320265D01*
X122384880Y-74266288D01*
X122365545Y-74232522D01*
X122362907Y-74230515D01*
X122315137Y-74223227D01*
X122259773Y-74245321D01*
X122228845Y-74271702D01*
X122196704Y-74322955D01*
X122165289Y-74397358D01*
X122141358Y-74476157D01*
X122131669Y-74540601D01*
X122131667Y-74541361D01*
X121700222Y-74541361D01*
X121707181Y-74486309D01*
X121727350Y-74390250D01*
X121785276Y-74213061D01*
X121858636Y-74056254D01*
X121943918Y-73925056D01*
X122037609Y-73824694D01*
X122136195Y-73760395D01*
X122156046Y-73752375D01*
X122286696Y-73724674D01*
X122409661Y-73735600D01*
G37*
X122409661Y-73735600D02*
X122520899Y-73781607D01*
X122616369Y-73859145D01*
X122692028Y-73964667D01*
X122743835Y-74094625D01*
X122767749Y-74245470D01*
X122768898Y-74290402D01*
X122749669Y-74478638D01*
X122694582Y-74648828D01*
X122606227Y-74797366D01*
X122487192Y-74920648D01*
X122340068Y-75015068D01*
X122212650Y-75064834D01*
X122162198Y-75082151D01*
X122144918Y-75099873D01*
X122153013Y-75129052D01*
X122158888Y-75141026D01*
X122208309Y-75201738D01*
X122275691Y-75237552D01*
X122346261Y-75240714D01*
X122348003Y-75240292D01*
X122391998Y-75220121D01*
X122454064Y-75180654D01*
X122518382Y-75132305D01*
X122604514Y-75067163D01*
X122670214Y-75031687D01*
X122723285Y-75023995D01*
X122771525Y-75042205D01*
X122800730Y-75064209D01*
X122840130Y-75105367D01*
X122856699Y-75150129D01*
X122858302Y-75212372D01*
X122846731Y-75292787D01*
X122822120Y-75379023D01*
X122811860Y-75404715D01*
X122760677Y-75492359D01*
X122685843Y-75586642D01*
X122598969Y-75675272D01*
X122511665Y-75745955D01*
X122461281Y-75775925D01*
X122359276Y-75808084D01*
X122245251Y-75817321D01*
X122138362Y-75802916D01*
X122099917Y-75789517D01*
X122012657Y-75732080D01*
X121926026Y-75640153D01*
X121844985Y-75521357D01*
X121774493Y-75383313D01*
X121719510Y-75233642D01*
X121705865Y-75184000D01*
X121687677Y-75073791D01*
X121679072Y-74935675D01*
X121679694Y-74782895D01*
X121689183Y-74628692D01*
X121700222Y-74541361D01*
X122131667Y-74541361D01*
X122133733Y-74572711D01*
X122147406Y-74581564D01*
X122183893Y-74570493D01*
X122211042Y-74559573D01*
X122279358Y-74521153D01*
X122343259Y-74469131D01*
X122350923Y-74461134D01*
X122390435Y-74409854D01*
X122403027Y-74363191D01*
X122399298Y-74320265D01*
X122384880Y-74266288D01*
X122365545Y-74232522D01*
X122362907Y-74230515D01*
X122315137Y-74223227D01*
X122259773Y-74245321D01*
X122228845Y-74271702D01*
X122196704Y-74322955D01*
X122165289Y-74397358D01*
X122141358Y-74476157D01*
X122131669Y-74540601D01*
X122131667Y-74541361D01*
X121700222Y-74541361D01*
X121707181Y-74486309D01*
X121727350Y-74390250D01*
X121785276Y-74213061D01*
X121858636Y-74056254D01*
X121943918Y-73925056D01*
X122037609Y-73824694D01*
X122136195Y-73760395D01*
X122156046Y-73752375D01*
X122286696Y-73724674D01*
X122409661Y-73735600D01*
G36*
X130044031Y-73163780D02*
G01*
X130082973Y-73190222D01*
X130094030Y-73200224D01*
X130157532Y-73286321D01*
X130187463Y-73388841D01*
X130180647Y-73495091D01*
X130173658Y-73518407D01*
X130139791Y-73579970D01*
X130078130Y-73646499D01*
X129986181Y-73719797D01*
X129861449Y-73801668D01*
X129701439Y-73893918D01*
X129525185Y-73987316D01*
X129521084Y-74007731D01*
X129514370Y-74059224D01*
X129506482Y-74130733D01*
X129506335Y-74132170D01*
X129491717Y-74274849D01*
X129626983Y-74210858D01*
X129757639Y-74161485D01*
X129867457Y-74146007D01*
X129954810Y-74163934D01*
X130018074Y-74214780D01*
X130055623Y-74298055D01*
X130063263Y-74341945D01*
X130060448Y-74443180D01*
X130026219Y-74534774D01*
X129958082Y-74619546D01*
X129853543Y-74700314D01*
X129710105Y-74779897D01*
X129651120Y-74807599D01*
X129572777Y-74844800D01*
X129525089Y-74873783D01*
X129499315Y-74901814D01*
X129486709Y-74936159D01*
X129484723Y-74945875D01*
X129479767Y-75016604D01*
X129485978Y-75090301D01*
X129486019Y-75090519D01*
X129499566Y-75140120D01*
X129518580Y-75155467D01*
X129536000Y-75151322D01*
X129570244Y-75138074D01*
X129634083Y-75114349D01*
X129717254Y-75083936D01*
X129779677Y-75061346D01*
X129893547Y-75023279D01*
X129977366Y-75004433D01*
X130039194Y-75005601D01*
X130087089Y-75027572D01*
X130129112Y-75071136D01*
X130147887Y-75097451D01*
X130184143Y-75180228D01*
X130196462Y-75274893D01*
X130184231Y-75364723D01*
X130159603Y-75417415D01*
X130099319Y-75484850D01*
X130011320Y-75559179D01*
X129904379Y-75635235D01*
X129787266Y-75707852D01*
X129668755Y-75771862D01*
X129557616Y-75822098D01*
X129462621Y-75853394D01*
X129405978Y-75861333D01*
X129362883Y-75850671D01*
X129299824Y-75823016D01*
X129244456Y-75792541D01*
X129176400Y-75746569D01*
X129118564Y-75699141D01*
X129090931Y-75669734D01*
X129067941Y-75628119D01*
X129049054Y-75569142D01*
X129033933Y-75489109D01*
X129022241Y-75384327D01*
X129013641Y-75251103D01*
X129007797Y-75085744D01*
X129004371Y-74884556D01*
X129003185Y-74707750D01*
X129002955Y-74517183D01*
X129003900Y-74362524D01*
X129006307Y-74237354D01*
X129010464Y-74135256D01*
X129016656Y-74049813D01*
X129025170Y-73974608D01*
X129036293Y-73903223D01*
X129040060Y-73882250D01*
X129079700Y-73698510D01*
X129123236Y-73556554D01*
X129170618Y-73456523D01*
X129206904Y-73410709D01*
X129275110Y-73362863D01*
X129375786Y-73313196D01*
X129499377Y-73265014D01*
X129636331Y-73221620D01*
X129777094Y-73186321D01*
X129912115Y-73162422D01*
X129931584Y-73159989D01*
X129999538Y-73155181D01*
X130044031Y-73163780D01*
G37*
X130044031Y-73163780D02*
X130082973Y-73190222D01*
X130094030Y-73200224D01*
X130157532Y-73286321D01*
X130187463Y-73388841D01*
X130180647Y-73495091D01*
X130173658Y-73518407D01*
X130139791Y-73579970D01*
X130078130Y-73646499D01*
X129986181Y-73719797D01*
X129861449Y-73801668D01*
X129701439Y-73893918D01*
X129525185Y-73987316D01*
X129521084Y-74007731D01*
X129514370Y-74059224D01*
X129506482Y-74130733D01*
X129506335Y-74132170D01*
X129491717Y-74274849D01*
X129626983Y-74210858D01*
X129757639Y-74161485D01*
X129867457Y-74146007D01*
X129954810Y-74163934D01*
X130018074Y-74214780D01*
X130055623Y-74298055D01*
X130063263Y-74341945D01*
X130060448Y-74443180D01*
X130026219Y-74534774D01*
X129958082Y-74619546D01*
X129853543Y-74700314D01*
X129710105Y-74779897D01*
X129651120Y-74807599D01*
X129572777Y-74844800D01*
X129525089Y-74873783D01*
X129499315Y-74901814D01*
X129486709Y-74936159D01*
X129484723Y-74945875D01*
X129479767Y-75016604D01*
X129485978Y-75090301D01*
X129486019Y-75090519D01*
X129499566Y-75140120D01*
X129518580Y-75155467D01*
X129536000Y-75151322D01*
X129570244Y-75138074D01*
X129634083Y-75114349D01*
X129717254Y-75083936D01*
X129779677Y-75061346D01*
X129893547Y-75023279D01*
X129977366Y-75004433D01*
X130039194Y-75005601D01*
X130087089Y-75027572D01*
X130129112Y-75071136D01*
X130147887Y-75097451D01*
X130184143Y-75180228D01*
X130196462Y-75274893D01*
X130184231Y-75364723D01*
X130159603Y-75417415D01*
X130099319Y-75484850D01*
X130011320Y-75559179D01*
X129904379Y-75635235D01*
X129787266Y-75707852D01*
X129668755Y-75771862D01*
X129557616Y-75822098D01*
X129462621Y-75853394D01*
X129405978Y-75861333D01*
X129362883Y-75850671D01*
X129299824Y-75823016D01*
X129244456Y-75792541D01*
X129176400Y-75746569D01*
X129118564Y-75699141D01*
X129090931Y-75669734D01*
X129067941Y-75628119D01*
X129049054Y-75569142D01*
X129033933Y-75489109D01*
X129022241Y-75384327D01*
X129013641Y-75251103D01*
X129007797Y-75085744D01*
X129004371Y-74884556D01*
X129003185Y-74707750D01*
X129002955Y-74517183D01*
X129003900Y-74362524D01*
X129006307Y-74237354D01*
X129010464Y-74135256D01*
X129016656Y-74049813D01*
X129025170Y-73974608D01*
X129036293Y-73903223D01*
X129040060Y-73882250D01*
X129079700Y-73698510D01*
X129123236Y-73556554D01*
X129170618Y-73456523D01*
X129206904Y-73410709D01*
X129275110Y-73362863D01*
X129375786Y-73313196D01*
X129499377Y-73265014D01*
X129636331Y-73221620D01*
X129777094Y-73186321D01*
X129912115Y-73162422D01*
X129931584Y-73159989D01*
X129999538Y-73155181D01*
X130044031Y-73163780D01*
G36*
X127190142Y-73234628D02*
G01*
X127311476Y-73298683D01*
X127411165Y-73392801D01*
X127482626Y-73513240D01*
X127494526Y-73544708D01*
X127527214Y-73701366D01*
X127526825Y-73871351D01*
X127495587Y-74044628D01*
X127435727Y-74211163D01*
X127349472Y-74360920D01*
X127299379Y-74423864D01*
X127218826Y-74514636D01*
X127305205Y-74579599D01*
X127393532Y-74666161D01*
X127454843Y-74775052D01*
X127491435Y-74911558D01*
X127504159Y-75037685D01*
X127495695Y-75228555D01*
X127451582Y-75397487D01*
X127372629Y-75543202D01*
X127259645Y-75664422D01*
X127113438Y-75759867D01*
X127022180Y-75799782D01*
X126884877Y-75837523D01*
X126739871Y-75853756D01*
X126602219Y-75847755D01*
X126502584Y-75824752D01*
X126466262Y-75811138D01*
X126435708Y-75795831D01*
X126410412Y-75775280D01*
X126389867Y-75745933D01*
X126373566Y-75704238D01*
X126361000Y-75646644D01*
X126351663Y-75569599D01*
X126345045Y-75469550D01*
X126340641Y-75342946D01*
X126337941Y-75186235D01*
X126337607Y-75143870D01*
X126790595Y-75143870D01*
X126799134Y-75201563D01*
X126825289Y-75223354D01*
X126870958Y-75211296D01*
X126920026Y-75180658D01*
X126967855Y-75133235D01*
X127010667Y-75068519D01*
X127041581Y-75000211D01*
X127053714Y-74942011D01*
X127050531Y-74920831D01*
X127014185Y-74876190D01*
X126959338Y-74855233D01*
X126922159Y-74859209D01*
X126859390Y-74894487D01*
X126820251Y-74951855D01*
X126798805Y-75040334D01*
X126797776Y-75048218D01*
X126790595Y-75143870D01*
X126337607Y-75143870D01*
X126336438Y-74995866D01*
X126335625Y-74768286D01*
X126335353Y-74654833D01*
X126335013Y-74404874D01*
X126335318Y-74240010D01*
X126794742Y-74240010D01*
X126796967Y-74314992D01*
X126809734Y-74352624D01*
X126834891Y-74355118D01*
X126874287Y-74324689D01*
X126923119Y-74271365D01*
X126980995Y-74188129D01*
X127028104Y-74091640D01*
X127057379Y-73998263D01*
X127063500Y-73946212D01*
X127047446Y-73888548D01*
X127005508Y-73856967D01*
X126947023Y-73854069D01*
X126881328Y-73882450D01*
X126868377Y-73891926D01*
X126842638Y-73916449D01*
X126825508Y-73947931D01*
X126814099Y-73996406D01*
X126805525Y-74071908D01*
X126801209Y-74125464D01*
X126794742Y-74240010D01*
X126335318Y-74240010D01*
X126335404Y-74193670D01*
X126336787Y-74017641D01*
X126339426Y-73873212D01*
X126343581Y-73756804D01*
X126349515Y-73664841D01*
X126357489Y-73593746D01*
X126367767Y-73539941D01*
X126380610Y-73499849D01*
X126396281Y-73469893D01*
X126415040Y-73446495D01*
X126424561Y-73437151D01*
X126493305Y-73386470D01*
X126589469Y-73332260D01*
X126699319Y-73280914D01*
X126809122Y-73238826D01*
X126905143Y-73212391D01*
X126908862Y-73211682D01*
X127053743Y-73204381D01*
X127190142Y-73234628D01*
G37*
X127190142Y-73234628D02*
X127311476Y-73298683D01*
X127411165Y-73392801D01*
X127482626Y-73513240D01*
X127494526Y-73544708D01*
X127527214Y-73701366D01*
X127526825Y-73871351D01*
X127495587Y-74044628D01*
X127435727Y-74211163D01*
X127349472Y-74360920D01*
X127299379Y-74423864D01*
X127218826Y-74514636D01*
X127305205Y-74579599D01*
X127393532Y-74666161D01*
X127454843Y-74775052D01*
X127491435Y-74911558D01*
X127504159Y-75037685D01*
X127495695Y-75228555D01*
X127451582Y-75397487D01*
X127372629Y-75543202D01*
X127259645Y-75664422D01*
X127113438Y-75759867D01*
X127022180Y-75799782D01*
X126884877Y-75837523D01*
X126739871Y-75853756D01*
X126602219Y-75847755D01*
X126502584Y-75824752D01*
X126466262Y-75811138D01*
X126435708Y-75795831D01*
X126410412Y-75775280D01*
X126389867Y-75745933D01*
X126373566Y-75704238D01*
X126361000Y-75646644D01*
X126351663Y-75569599D01*
X126345045Y-75469550D01*
X126340641Y-75342946D01*
X126337941Y-75186235D01*
X126337607Y-75143870D01*
X126790595Y-75143870D01*
X126799134Y-75201563D01*
X126825289Y-75223354D01*
X126870958Y-75211296D01*
X126920026Y-75180658D01*
X126967855Y-75133235D01*
X127010667Y-75068519D01*
X127041581Y-75000211D01*
X127053714Y-74942011D01*
X127050531Y-74920831D01*
X127014185Y-74876190D01*
X126959338Y-74855233D01*
X126922159Y-74859209D01*
X126859390Y-74894487D01*
X126820251Y-74951855D01*
X126798805Y-75040334D01*
X126797776Y-75048218D01*
X126790595Y-75143870D01*
X126337607Y-75143870D01*
X126336438Y-74995866D01*
X126335625Y-74768286D01*
X126335353Y-74654833D01*
X126335013Y-74404874D01*
X126335318Y-74240010D01*
X126794742Y-74240010D01*
X126796967Y-74314992D01*
X126809734Y-74352624D01*
X126834891Y-74355118D01*
X126874287Y-74324689D01*
X126923119Y-74271365D01*
X126980995Y-74188129D01*
X127028104Y-74091640D01*
X127057379Y-73998263D01*
X127063500Y-73946212D01*
X127047446Y-73888548D01*
X127005508Y-73856967D01*
X126947023Y-73854069D01*
X126881328Y-73882450D01*
X126868377Y-73891926D01*
X126842638Y-73916449D01*
X126825508Y-73947931D01*
X126814099Y-73996406D01*
X126805525Y-74071908D01*
X126801209Y-74125464D01*
X126794742Y-74240010D01*
X126335318Y-74240010D01*
X126335404Y-74193670D01*
X126336787Y-74017641D01*
X126339426Y-73873212D01*
X126343581Y-73756804D01*
X126349515Y-73664841D01*
X126357489Y-73593746D01*
X126367767Y-73539941D01*
X126380610Y-73499849D01*
X126396281Y-73469893D01*
X126415040Y-73446495D01*
X126424561Y-73437151D01*
X126493305Y-73386470D01*
X126589469Y-73332260D01*
X126699319Y-73280914D01*
X126809122Y-73238826D01*
X126905143Y-73212391D01*
X126908862Y-73211682D01*
X127053743Y-73204381D01*
X127190142Y-73234628D01*
G36*
X123999866Y-73232469D02*
G01*
X124009203Y-73241958D01*
X124041687Y-73283803D01*
X124066394Y-73332862D01*
X124084252Y-73395126D01*
X124096188Y-73476588D01*
X124103129Y-73583238D01*
X124106002Y-73721070D01*
X124105938Y-73867267D01*
X124103374Y-74275618D01*
X124163510Y-74199946D01*
X124251806Y-74078851D01*
X124332935Y-73944722D01*
X124413531Y-73786105D01*
X124453058Y-73699963D01*
X124525675Y-73545937D01*
X124593670Y-73418405D01*
X124654730Y-73321190D01*
X124706540Y-73258112D01*
X124732651Y-73238013D01*
X124809139Y-73216703D01*
X124883251Y-73229399D01*
X124925667Y-73257833D01*
X124948747Y-73288997D01*
X124961792Y-73332358D01*
X124967290Y-73399492D01*
X124968000Y-73454930D01*
X124951280Y-73643509D01*
X124903336Y-73846571D01*
X124827491Y-74054132D01*
X124727068Y-74256207D01*
X124670089Y-74349899D01*
X124586339Y-74478882D01*
X124722591Y-74799918D01*
X124799154Y-74982890D01*
X124859339Y-75133514D01*
X124904945Y-75257677D01*
X124937769Y-75361264D01*
X124959612Y-75450161D01*
X124972271Y-75530253D01*
X124977545Y-75607425D01*
X124977982Y-75635616D01*
X124977010Y-75721182D01*
X124971560Y-75775573D01*
X124958972Y-75809906D01*
X124936588Y-75835301D01*
X124928614Y-75841991D01*
X124860866Y-75877285D01*
X124788634Y-75873424D01*
X124724584Y-75843031D01*
X124677392Y-75803726D01*
X124628933Y-75741776D01*
X124577189Y-75653408D01*
X124520148Y-75534852D01*
X124455793Y-75382337D01*
X124395029Y-75226333D01*
X124351859Y-75112952D01*
X124313827Y-75013995D01*
X124283466Y-74935978D01*
X124263310Y-74885416D01*
X124256054Y-74868839D01*
X124237028Y-74875249D01*
X124196965Y-74901120D01*
X124178014Y-74915111D01*
X124106541Y-74969625D01*
X124092159Y-75209104D01*
X124076042Y-75399504D01*
X124052289Y-75551241D01*
X124019825Y-75667473D01*
X123977572Y-75751358D01*
X123924453Y-75806054D01*
X123881046Y-75828377D01*
X123801956Y-75835656D01*
X123725847Y-75805567D01*
X123673437Y-75755386D01*
X123641343Y-75693784D01*
X123619627Y-75606875D01*
X123607910Y-75490715D01*
X123605812Y-75341363D01*
X123612954Y-75154875D01*
X123613941Y-75137757D01*
X123619600Y-75031994D01*
X123626189Y-74892679D01*
X123633341Y-74728574D01*
X123640690Y-74548441D01*
X123647869Y-74361042D01*
X123654512Y-74175139D01*
X123655833Y-74136250D01*
X123662172Y-73967197D01*
X123669355Y-73808494D01*
X123677025Y-73665965D01*
X123684822Y-73545439D01*
X123692389Y-73452740D01*
X123699366Y-73393697D01*
X123702443Y-73378879D01*
X123742906Y-73291954D01*
X123800557Y-73230425D01*
X123867718Y-73197716D01*
X123936713Y-73197256D01*
X123999866Y-73232469D01*
G37*
X123999866Y-73232469D02*
X124009203Y-73241958D01*
X124041687Y-73283803D01*
X124066394Y-73332862D01*
X124084252Y-73395126D01*
X124096188Y-73476588D01*
X124103129Y-73583238D01*
X124106002Y-73721070D01*
X124105938Y-73867267D01*
X124103374Y-74275618D01*
X124163510Y-74199946D01*
X124251806Y-74078851D01*
X124332935Y-73944722D01*
X124413531Y-73786105D01*
X124453058Y-73699963D01*
X124525675Y-73545937D01*
X124593670Y-73418405D01*
X124654730Y-73321190D01*
X124706540Y-73258112D01*
X124732651Y-73238013D01*
X124809139Y-73216703D01*
X124883251Y-73229399D01*
X124925667Y-73257833D01*
X124948747Y-73288997D01*
X124961792Y-73332358D01*
X124967290Y-73399492D01*
X124968000Y-73454930D01*
X124951280Y-73643509D01*
X124903336Y-73846571D01*
X124827491Y-74054132D01*
X124727068Y-74256207D01*
X124670089Y-74349899D01*
X124586339Y-74478882D01*
X124722591Y-74799918D01*
X124799154Y-74982890D01*
X124859339Y-75133514D01*
X124904945Y-75257677D01*
X124937769Y-75361264D01*
X124959612Y-75450161D01*
X124972271Y-75530253D01*
X124977545Y-75607425D01*
X124977982Y-75635616D01*
X124977010Y-75721182D01*
X124971560Y-75775573D01*
X124958972Y-75809906D01*
X124936588Y-75835301D01*
X124928614Y-75841991D01*
X124860866Y-75877285D01*
X124788634Y-75873424D01*
X124724584Y-75843031D01*
X124677392Y-75803726D01*
X124628933Y-75741776D01*
X124577189Y-75653408D01*
X124520148Y-75534852D01*
X124455793Y-75382337D01*
X124395029Y-75226333D01*
X124351859Y-75112952D01*
X124313827Y-75013995D01*
X124283466Y-74935978D01*
X124263310Y-74885416D01*
X124256054Y-74868839D01*
X124237028Y-74875249D01*
X124196965Y-74901120D01*
X124178014Y-74915111D01*
X124106541Y-74969625D01*
X124092159Y-75209104D01*
X124076042Y-75399504D01*
X124052289Y-75551241D01*
X124019825Y-75667473D01*
X123977572Y-75751358D01*
X123924453Y-75806054D01*
X123881046Y-75828377D01*
X123801956Y-75835656D01*
X123725847Y-75805567D01*
X123673437Y-75755386D01*
X123641343Y-75693784D01*
X123619627Y-75606875D01*
X123607910Y-75490715D01*
X123605812Y-75341363D01*
X123612954Y-75154875D01*
X123613941Y-75137757D01*
X123619600Y-75031994D01*
X123626189Y-74892679D01*
X123633341Y-74728574D01*
X123640690Y-74548441D01*
X123647869Y-74361042D01*
X123654512Y-74175139D01*
X123655833Y-74136250D01*
X123662172Y-73967197D01*
X123669355Y-73808494D01*
X123677025Y-73665965D01*
X123684822Y-73545439D01*
X123692389Y-73452740D01*
X123699366Y-73393697D01*
X123702443Y-73378879D01*
X123742906Y-73291954D01*
X123800557Y-73230425D01*
X123867718Y-73197716D01*
X123936713Y-73197256D01*
X123999866Y-73232469D01*
G36*
X128029652Y-73280345D02*
G01*
X128083790Y-73356534D01*
X128105730Y-73404162D01*
X128117659Y-73434705D01*
X128127421Y-73464599D01*
X128135232Y-73498247D01*
X128141311Y-73540051D01*
X128145874Y-73594414D01*
X128149139Y-73665740D01*
X128151322Y-73758431D01*
X128152640Y-73876889D01*
X128153312Y-74025518D01*
X128153554Y-74208719D01*
X128153584Y-74374376D01*
X128153837Y-74559616D01*
X128154561Y-74730970D01*
X128155700Y-74883975D01*
X128157198Y-75014166D01*
X128159001Y-75117076D01*
X128161051Y-75188243D01*
X128163295Y-75223201D01*
X128164167Y-75226064D01*
X128187966Y-75219973D01*
X128241585Y-75204066D01*
X128314536Y-75181474D01*
X128333500Y-75175486D01*
X128505789Y-75129709D01*
X128652899Y-75109018D01*
X128772492Y-75113358D01*
X128862230Y-75142674D01*
X128914809Y-75189316D01*
X128940332Y-75255652D01*
X128945536Y-75340315D01*
X128930269Y-75424417D01*
X128916954Y-75456516D01*
X128866096Y-75526841D01*
X128787693Y-75602717D01*
X128693491Y-75673938D01*
X128610643Y-75722748D01*
X128501914Y-75770464D01*
X128377335Y-75813312D01*
X128246864Y-75849042D01*
X128120464Y-75875401D01*
X128008093Y-75890138D01*
X127919712Y-75891001D01*
X127889000Y-75885896D01*
X127818898Y-75860315D01*
X127773926Y-75821506D01*
X127744247Y-75758254D01*
X127729806Y-75704412D01*
X127699596Y-75542981D01*
X127676645Y-75354582D01*
X127660758Y-75145506D01*
X127651739Y-74922043D01*
X127649393Y-74690485D01*
X127653526Y-74457123D01*
X127663941Y-74228248D01*
X127680445Y-74010152D01*
X127702842Y-73809124D01*
X127730937Y-73631457D01*
X127764535Y-73483442D01*
X127802052Y-73374477D01*
X127852896Y-73290357D01*
X127910349Y-73246880D01*
X127970553Y-73243668D01*
X128029652Y-73280345D01*
G37*
X128029652Y-73280345D02*
X128083790Y-73356534D01*
X128105730Y-73404162D01*
X128117659Y-73434705D01*
X128127421Y-73464599D01*
X128135232Y-73498247D01*
X128141311Y-73540051D01*
X128145874Y-73594414D01*
X128149139Y-73665740D01*
X128151322Y-73758431D01*
X128152640Y-73876889D01*
X128153312Y-74025518D01*
X128153554Y-74208719D01*
X128153584Y-74374376D01*
X128153837Y-74559616D01*
X128154561Y-74730970D01*
X128155700Y-74883975D01*
X128157198Y-75014166D01*
X128159001Y-75117076D01*
X128161051Y-75188243D01*
X128163295Y-75223201D01*
X128164167Y-75226064D01*
X128187966Y-75219973D01*
X128241585Y-75204066D01*
X128314536Y-75181474D01*
X128333500Y-75175486D01*
X128505789Y-75129709D01*
X128652899Y-75109018D01*
X128772492Y-75113358D01*
X128862230Y-75142674D01*
X128914809Y-75189316D01*
X128940332Y-75255652D01*
X128945536Y-75340315D01*
X128930269Y-75424417D01*
X128916954Y-75456516D01*
X128866096Y-75526841D01*
X128787693Y-75602717D01*
X128693491Y-75673938D01*
X128610643Y-75722748D01*
X128501914Y-75770464D01*
X128377335Y-75813312D01*
X128246864Y-75849042D01*
X128120464Y-75875401D01*
X128008093Y-75890138D01*
X127919712Y-75891001D01*
X127889000Y-75885896D01*
X127818898Y-75860315D01*
X127773926Y-75821506D01*
X127744247Y-75758254D01*
X127729806Y-75704412D01*
X127699596Y-75542981D01*
X127676645Y-75354582D01*
X127660758Y-75145506D01*
X127651739Y-74922043D01*
X127649393Y-74690485D01*
X127653526Y-74457123D01*
X127663941Y-74228248D01*
X127680445Y-74010152D01*
X127702842Y-73809124D01*
X127730937Y-73631457D01*
X127764535Y-73483442D01*
X127802052Y-73374477D01*
X127852896Y-73290357D01*
X127910349Y-73246880D01*
X127970553Y-73243668D01*
X128029652Y-73280345D01*
G36*
X120685003Y-73182601D02*
G01*
X120733720Y-73246326D01*
X120771277Y-73348139D01*
X120797872Y-73488782D01*
X120813704Y-73668999D01*
X120818966Y-73884264D01*
X120819334Y-74203778D01*
X120901165Y-74125933D01*
X120997210Y-74057169D01*
X121107020Y-74014709D01*
X121216398Y-74003350D01*
X121251517Y-74007528D01*
X121330405Y-74043070D01*
X121400582Y-74115540D01*
X121457937Y-74219787D01*
X121486281Y-74301740D01*
X121506065Y-74398987D01*
X121520689Y-74526029D01*
X121530319Y-74675533D01*
X121535122Y-74840166D01*
X121535266Y-75012596D01*
X121530917Y-75185489D01*
X121522242Y-75351513D01*
X121509409Y-75503335D01*
X121492584Y-75633623D01*
X121471934Y-75735043D01*
X121452357Y-75791333D01*
X121401355Y-75865659D01*
X121340651Y-75899670D01*
X121271807Y-75892691D01*
X121246119Y-75880462D01*
X121212386Y-75855102D01*
X121185440Y-75818232D01*
X121164290Y-75764946D01*
X121147948Y-75690338D01*
X121135422Y-75589502D01*
X121125722Y-75457533D01*
X121117858Y-75289523D01*
X121115836Y-75234945D01*
X121108181Y-75054252D01*
X121098591Y-74912238D01*
X121085706Y-74805252D01*
X121068165Y-74729644D01*
X121044607Y-74681761D01*
X121013671Y-74657955D01*
X120973997Y-74654573D01*
X120924224Y-74667965D01*
X120907031Y-74674744D01*
X120869751Y-74693770D01*
X120840926Y-74719866D01*
X120818907Y-74758822D01*
X120802042Y-74816430D01*
X120788680Y-74898481D01*
X120777169Y-75010766D01*
X120765860Y-75159076D01*
X120764864Y-75173391D01*
X120753800Y-75327282D01*
X120743902Y-75445864D01*
X120734023Y-75536098D01*
X120723014Y-75604946D01*
X120709727Y-75659367D01*
X120693015Y-75706324D01*
X120671728Y-75752778D01*
X120668094Y-75760083D01*
X120613805Y-75837980D01*
X120552596Y-75876427D01*
X120489734Y-75876516D01*
X120430488Y-75839339D01*
X120380124Y-75765987D01*
X120353302Y-75694842D01*
X120334448Y-75601064D01*
X120320329Y-75471367D01*
X120310837Y-75311886D01*
X120305860Y-75128756D01*
X120305287Y-74928113D01*
X120309009Y-74716092D01*
X120316913Y-74498829D01*
X120328890Y-74282459D01*
X120344829Y-74073117D01*
X120364619Y-73876939D01*
X120388149Y-73700060D01*
X120389435Y-73691750D01*
X120402632Y-73607083D01*
X120309358Y-73692290D01*
X120233882Y-73750898D01*
X120144475Y-73806185D01*
X120097003Y-73829851D01*
X119977923Y-73882204D01*
X119962820Y-74030394D01*
X119958972Y-74087187D01*
X119955011Y-74180094D01*
X119951100Y-74302894D01*
X119947401Y-74449369D01*
X119944078Y-74613298D01*
X119941293Y-74788463D01*
X119939812Y-74908833D01*
X119936637Y-75133195D01*
X119932355Y-75325649D01*
X119927052Y-75484037D01*
X119920814Y-75606203D01*
X119913726Y-75689991D01*
X119907252Y-75728865D01*
X119867416Y-75825679D01*
X119812534Y-75890504D01*
X119747411Y-75920425D01*
X119676854Y-75912529D01*
X119638589Y-75891798D01*
X119596632Y-75855043D01*
X119564927Y-75807176D01*
X119541553Y-75741515D01*
X119524588Y-75651374D01*
X119512111Y-75530072D01*
X119505318Y-75428274D01*
X119500591Y-75324504D01*
X119496271Y-75187914D01*
X119492552Y-75028018D01*
X119489629Y-74854329D01*
X119487697Y-74676358D01*
X119486988Y-74533125D01*
X119485834Y-73935166D01*
X119356741Y-73935166D01*
X119240807Y-73924370D01*
X119141903Y-73894345D01*
X119070789Y-73848636D01*
X119060587Y-73837611D01*
X119037995Y-73781399D01*
X119037373Y-73704729D01*
X119057228Y-73622379D01*
X119088678Y-73559569D01*
X119164599Y-73478419D01*
X119276915Y-73403552D01*
X119419873Y-73337321D01*
X119587716Y-73282074D01*
X119774691Y-73240163D01*
X119922317Y-73219079D01*
X120087854Y-73207912D01*
X120217754Y-73215161D01*
X120314834Y-73241537D01*
X120381909Y-73287746D01*
X120417648Y-73343660D01*
X120445101Y-73409939D01*
X120482465Y-73311506D01*
X120518747Y-73227197D01*
X120552644Y-73177872D01*
X120590132Y-73157014D01*
X120624928Y-73156221D01*
X120685003Y-73182601D01*
G37*
X120685003Y-73182601D02*
X120733720Y-73246326D01*
X120771277Y-73348139D01*
X120797872Y-73488782D01*
X120813704Y-73668999D01*
X120818966Y-73884264D01*
X120819334Y-74203778D01*
X120901165Y-74125933D01*
X120997210Y-74057169D01*
X121107020Y-74014709D01*
X121216398Y-74003350D01*
X121251517Y-74007528D01*
X121330405Y-74043070D01*
X121400582Y-74115540D01*
X121457937Y-74219787D01*
X121486281Y-74301740D01*
X121506065Y-74398987D01*
X121520689Y-74526029D01*
X121530319Y-74675533D01*
X121535122Y-74840166D01*
X121535266Y-75012596D01*
X121530917Y-75185489D01*
X121522242Y-75351513D01*
X121509409Y-75503335D01*
X121492584Y-75633623D01*
X121471934Y-75735043D01*
X121452357Y-75791333D01*
X121401355Y-75865659D01*
X121340651Y-75899670D01*
X121271807Y-75892691D01*
X121246119Y-75880462D01*
X121212386Y-75855102D01*
X121185440Y-75818232D01*
X121164290Y-75764946D01*
X121147948Y-75690338D01*
X121135422Y-75589502D01*
X121125722Y-75457533D01*
X121117858Y-75289523D01*
X121115836Y-75234945D01*
X121108181Y-75054252D01*
X121098591Y-74912238D01*
X121085706Y-74805252D01*
X121068165Y-74729644D01*
X121044607Y-74681761D01*
X121013671Y-74657955D01*
X120973997Y-74654573D01*
X120924224Y-74667965D01*
X120907031Y-74674744D01*
X120869751Y-74693770D01*
X120840926Y-74719866D01*
X120818907Y-74758822D01*
X120802042Y-74816430D01*
X120788680Y-74898481D01*
X120777169Y-75010766D01*
X120765860Y-75159076D01*
X120764864Y-75173391D01*
X120753800Y-75327282D01*
X120743902Y-75445864D01*
X120734023Y-75536098D01*
X120723014Y-75604946D01*
X120709727Y-75659367D01*
X120693015Y-75706324D01*
X120671728Y-75752778D01*
X120668094Y-75760083D01*
X120613805Y-75837980D01*
X120552596Y-75876427D01*
X120489734Y-75876516D01*
X120430488Y-75839339D01*
X120380124Y-75765987D01*
X120353302Y-75694842D01*
X120334448Y-75601064D01*
X120320329Y-75471367D01*
X120310837Y-75311886D01*
X120305860Y-75128756D01*
X120305287Y-74928113D01*
X120309009Y-74716092D01*
X120316913Y-74498829D01*
X120328890Y-74282459D01*
X120344829Y-74073117D01*
X120364619Y-73876939D01*
X120388149Y-73700060D01*
X120389435Y-73691750D01*
X120402632Y-73607083D01*
X120309358Y-73692290D01*
X120233882Y-73750898D01*
X120144475Y-73806185D01*
X120097003Y-73829851D01*
X119977923Y-73882204D01*
X119962820Y-74030394D01*
X119958972Y-74087187D01*
X119955011Y-74180094D01*
X119951100Y-74302894D01*
X119947401Y-74449369D01*
X119944078Y-74613298D01*
X119941293Y-74788463D01*
X119939812Y-74908833D01*
X119936637Y-75133195D01*
X119932355Y-75325649D01*
X119927052Y-75484037D01*
X119920814Y-75606203D01*
X119913726Y-75689991D01*
X119907252Y-75728865D01*
X119867416Y-75825679D01*
X119812534Y-75890504D01*
X119747411Y-75920425D01*
X119676854Y-75912529D01*
X119638589Y-75891798D01*
X119596632Y-75855043D01*
X119564927Y-75807176D01*
X119541553Y-75741515D01*
X119524588Y-75651374D01*
X119512111Y-75530072D01*
X119505318Y-75428274D01*
X119500591Y-75324504D01*
X119496271Y-75187914D01*
X119492552Y-75028018D01*
X119489629Y-74854329D01*
X119487697Y-74676358D01*
X119486988Y-74533125D01*
X119485834Y-73935166D01*
X119356741Y-73935166D01*
X119240807Y-73924370D01*
X119141903Y-73894345D01*
X119070789Y-73848636D01*
X119060587Y-73837611D01*
X119037995Y-73781399D01*
X119037373Y-73704729D01*
X119057228Y-73622379D01*
X119088678Y-73559569D01*
X119164599Y-73478419D01*
X119276915Y-73403552D01*
X119419873Y-73337321D01*
X119587716Y-73282074D01*
X119774691Y-73240163D01*
X119922317Y-73219079D01*
X120087854Y-73207912D01*
X120217754Y-73215161D01*
X120314834Y-73241537D01*
X120381909Y-73287746D01*
X120417648Y-73343660D01*
X120445101Y-73409939D01*
X120482465Y-73311506D01*
X120518747Y-73227197D01*
X120552644Y-73177872D01*
X120590132Y-73157014D01*
X120624928Y-73156221D01*
X120685003Y-73182601D01*
D12*
X128270000Y-66040000D03*
D13*
X130810000Y-66040000D03*
X133350000Y-66040000D03*
X135890000Y-66040000D03*
X138430000Y-66040000D03*
X140970000Y-66040000D03*
X143510000Y-66040000D03*
X146050000Y-66040000D03*
X148590000Y-66040000D03*
X151130000Y-66040000D03*
X153670000Y-66040000D03*
X156210000Y-66040000D03*
X158750000Y-66040000D03*
D12*
X125730000Y-83820000D03*
D13*
X128270000Y-83820000D03*
X130810000Y-83820000D03*
X133350000Y-83820000D03*
X135890000Y-83820000D03*
X138430000Y-83820000D03*
X140970000Y-83820000D03*
X143510000Y-83820000D03*
X146050000Y-83820000D03*
X148590000Y-83820000D03*
X151130000Y-83820000D03*
X153670000Y-83820000D03*
X156210000Y-83820000D03*
X158750000Y-83820000D03*
G36*
G01*
X161830000Y-82379000D02*
X162630000Y-82379000D01*
G75*
G02*
X162681000Y-82430000I0J-51000D01*
G01*
X162681000Y-84830000D01*
G75*
G02*
X162630000Y-84881000I-51000J0D01*
G01*
X161830000Y-84881000D01*
G75*
G02*
X161779000Y-84830000I0J51000D01*
G01*
X161779000Y-82430000D01*
G75*
G02*
X161830000Y-82379000I51000J0D01*
G01*
G37*
G36*
G01*
X162930000Y-82379000D02*
X163730000Y-82379000D01*
G75*
G02*
X163781000Y-82430000I0J-51000D01*
G01*
X163781000Y-84830000D01*
G75*
G02*
X163730000Y-84881000I-51000J0D01*
G01*
X162930000Y-84881000D01*
G75*
G02*
X162879000Y-84830000I0J51000D01*
G01*
X162879000Y-82430000D01*
G75*
G02*
X162930000Y-82379000I51000J0D01*
G01*
G37*
G36*
G01*
X164030000Y-82379000D02*
X164830000Y-82379000D01*
G75*
G02*
X164881000Y-82430000I0J-51000D01*
G01*
X164881000Y-84830000D01*
G75*
G02*
X164830000Y-84881000I-51000J0D01*
G01*
X164030000Y-84881000D01*
G75*
G02*
X163979000Y-84830000I0J51000D01*
G01*
X163979000Y-82430000D01*
G75*
G02*
X164030000Y-82379000I51000J0D01*
G01*
G37*
G36*
G01*
X165130000Y-82379000D02*
X165930000Y-82379000D01*
G75*
G02*
X165981000Y-82430000I0J-51000D01*
G01*
X165981000Y-84830000D01*
G75*
G02*
X165930000Y-84881000I-51000J0D01*
G01*
X165130000Y-84881000D01*
G75*
G02*
X165079000Y-84830000I0J51000D01*
G01*
X165079000Y-82430000D01*
G75*
G02*
X165130000Y-82379000I51000J0D01*
G01*
G37*
G36*
G01*
X166230000Y-82379000D02*
X167030000Y-82379000D01*
G75*
G02*
X167081000Y-82430000I0J-51000D01*
G01*
X167081000Y-84830000D01*
G75*
G02*
X167030000Y-84881000I-51000J0D01*
G01*
X166230000Y-84881000D01*
G75*
G02*
X166179000Y-84830000I0J51000D01*
G01*
X166179000Y-82430000D01*
G75*
G02*
X166230000Y-82379000I51000J0D01*
G01*
G37*
G36*
G01*
X167330000Y-82379000D02*
X168130000Y-82379000D01*
G75*
G02*
X168181000Y-82430000I0J-51000D01*
G01*
X168181000Y-84830000D01*
G75*
G02*
X168130000Y-84881000I-51000J0D01*
G01*
X167330000Y-84881000D01*
G75*
G02*
X167279000Y-84830000I0J51000D01*
G01*
X167279000Y-82430000D01*
G75*
G02*
X167330000Y-82379000I51000J0D01*
G01*
G37*
G36*
G01*
X168430000Y-82379000D02*
X169230000Y-82379000D01*
G75*
G02*
X169281000Y-82430000I0J-51000D01*
G01*
X169281000Y-84830000D01*
G75*
G02*
X169230000Y-84881000I-51000J0D01*
G01*
X168430000Y-84881000D01*
G75*
G02*
X168379000Y-84830000I0J51000D01*
G01*
X168379000Y-82430000D01*
G75*
G02*
X168430000Y-82379000I51000J0D01*
G01*
G37*
G36*
G01*
X169530000Y-82379000D02*
X170330000Y-82379000D01*
G75*
G02*
X170381000Y-82430000I0J-51000D01*
G01*
X170381000Y-84830000D01*
G75*
G02*
X170330000Y-84881000I-51000J0D01*
G01*
X169530000Y-84881000D01*
G75*
G02*
X169479000Y-84830000I0J51000D01*
G01*
X169479000Y-82430000D01*
G75*
G02*
X169530000Y-82379000I51000J0D01*
G01*
G37*
G36*
G01*
X170630000Y-82379000D02*
X171430000Y-82379000D01*
G75*
G02*
X171481000Y-82430000I0J-51000D01*
G01*
X171481000Y-84830000D01*
G75*
G02*
X171430000Y-84881000I-51000J0D01*
G01*
X170630000Y-84881000D01*
G75*
G02*
X170579000Y-84830000I0J51000D01*
G01*
X170579000Y-82430000D01*
G75*
G02*
X170630000Y-82379000I51000J0D01*
G01*
G37*
G36*
G01*
X171730000Y-82379000D02*
X172530000Y-82379000D01*
G75*
G02*
X172581000Y-82430000I0J-51000D01*
G01*
X172581000Y-84830000D01*
G75*
G02*
X172530000Y-84881000I-51000J0D01*
G01*
X171730000Y-84881000D01*
G75*
G02*
X171679000Y-84830000I0J51000D01*
G01*
X171679000Y-82430000D01*
G75*
G02*
X171730000Y-82379000I51000J0D01*
G01*
G37*
G36*
G01*
X172830000Y-82379000D02*
X173630000Y-82379000D01*
G75*
G02*
X173681000Y-82430000I0J-51000D01*
G01*
X173681000Y-84830000D01*
G75*
G02*
X173630000Y-84881000I-51000J0D01*
G01*
X172830000Y-84881000D01*
G75*
G02*
X172779000Y-84830000I0J51000D01*
G01*
X172779000Y-82430000D01*
G75*
G02*
X172830000Y-82379000I51000J0D01*
G01*
G37*
G36*
G01*
X173930000Y-82379000D02*
X174730000Y-82379000D01*
G75*
G02*
X174781000Y-82430000I0J-51000D01*
G01*
X174781000Y-84830000D01*
G75*
G02*
X174730000Y-84881000I-51000J0D01*
G01*
X173930000Y-84881000D01*
G75*
G02*
X173879000Y-84830000I0J51000D01*
G01*
X173879000Y-82430000D01*
G75*
G02*
X173930000Y-82379000I51000J0D01*
G01*
G37*
G36*
G01*
X175030000Y-82379000D02*
X175830000Y-82379000D01*
G75*
G02*
X175881000Y-82430000I0J-51000D01*
G01*
X175881000Y-84830000D01*
G75*
G02*
X175830000Y-84881000I-51000J0D01*
G01*
X175030000Y-84881000D01*
G75*
G02*
X174979000Y-84830000I0J51000D01*
G01*
X174979000Y-82430000D01*
G75*
G02*
X175030000Y-82379000I51000J0D01*
G01*
G37*
G36*
G01*
X176130000Y-82379000D02*
X176930000Y-82379000D01*
G75*
G02*
X176981000Y-82430000I0J-51000D01*
G01*
X176981000Y-84830000D01*
G75*
G02*
X176930000Y-84881000I-51000J0D01*
G01*
X176130000Y-84881000D01*
G75*
G02*
X176079000Y-84830000I0J51000D01*
G01*
X176079000Y-82430000D01*
G75*
G02*
X176130000Y-82379000I51000J0D01*
G01*
G37*
G36*
G01*
X161830000Y-64979000D02*
X162630000Y-64979000D01*
G75*
G02*
X162681000Y-65030000I0J-51000D01*
G01*
X162681000Y-67430000D01*
G75*
G02*
X162630000Y-67481000I-51000J0D01*
G01*
X161830000Y-67481000D01*
G75*
G02*
X161779000Y-67430000I0J51000D01*
G01*
X161779000Y-65030000D01*
G75*
G02*
X161830000Y-64979000I51000J0D01*
G01*
G37*
G36*
G01*
X162930000Y-64979000D02*
X163730000Y-64979000D01*
G75*
G02*
X163781000Y-65030000I0J-51000D01*
G01*
X163781000Y-67430000D01*
G75*
G02*
X163730000Y-67481000I-51000J0D01*
G01*
X162930000Y-67481000D01*
G75*
G02*
X162879000Y-67430000I0J51000D01*
G01*
X162879000Y-65030000D01*
G75*
G02*
X162930000Y-64979000I51000J0D01*
G01*
G37*
G36*
G01*
X164030000Y-64979000D02*
X164830000Y-64979000D01*
G75*
G02*
X164881000Y-65030000I0J-51000D01*
G01*
X164881000Y-67430000D01*
G75*
G02*
X164830000Y-67481000I-51000J0D01*
G01*
X164030000Y-67481000D01*
G75*
G02*
X163979000Y-67430000I0J51000D01*
G01*
X163979000Y-65030000D01*
G75*
G02*
X164030000Y-64979000I51000J0D01*
G01*
G37*
G36*
G01*
X165130000Y-64979000D02*
X165930000Y-64979000D01*
G75*
G02*
X165981000Y-65030000I0J-51000D01*
G01*
X165981000Y-67430000D01*
G75*
G02*
X165930000Y-67481000I-51000J0D01*
G01*
X165130000Y-67481000D01*
G75*
G02*
X165079000Y-67430000I0J51000D01*
G01*
X165079000Y-65030000D01*
G75*
G02*
X165130000Y-64979000I51000J0D01*
G01*
G37*
G36*
G01*
X166230000Y-64979000D02*
X167030000Y-64979000D01*
G75*
G02*
X167081000Y-65030000I0J-51000D01*
G01*
X167081000Y-67430000D01*
G75*
G02*
X167030000Y-67481000I-51000J0D01*
G01*
X166230000Y-67481000D01*
G75*
G02*
X166179000Y-67430000I0J51000D01*
G01*
X166179000Y-65030000D01*
G75*
G02*
X166230000Y-64979000I51000J0D01*
G01*
G37*
G36*
G01*
X167330000Y-64979000D02*
X168130000Y-64979000D01*
G75*
G02*
X168181000Y-65030000I0J-51000D01*
G01*
X168181000Y-67430000D01*
G75*
G02*
X168130000Y-67481000I-51000J0D01*
G01*
X167330000Y-67481000D01*
G75*
G02*
X167279000Y-67430000I0J51000D01*
G01*
X167279000Y-65030000D01*
G75*
G02*
X167330000Y-64979000I51000J0D01*
G01*
G37*
G36*
G01*
X168430000Y-64979000D02*
X169230000Y-64979000D01*
G75*
G02*
X169281000Y-65030000I0J-51000D01*
G01*
X169281000Y-67430000D01*
G75*
G02*
X169230000Y-67481000I-51000J0D01*
G01*
X168430000Y-67481000D01*
G75*
G02*
X168379000Y-67430000I0J51000D01*
G01*
X168379000Y-65030000D01*
G75*
G02*
X168430000Y-64979000I51000J0D01*
G01*
G37*
G36*
G01*
X169530000Y-64979000D02*
X170330000Y-64979000D01*
G75*
G02*
X170381000Y-65030000I0J-51000D01*
G01*
X170381000Y-67430000D01*
G75*
G02*
X170330000Y-67481000I-51000J0D01*
G01*
X169530000Y-67481000D01*
G75*
G02*
X169479000Y-67430000I0J51000D01*
G01*
X169479000Y-65030000D01*
G75*
G02*
X169530000Y-64979000I51000J0D01*
G01*
G37*
G36*
G01*
X170630000Y-64979000D02*
X171430000Y-64979000D01*
G75*
G02*
X171481000Y-65030000I0J-51000D01*
G01*
X171481000Y-67430000D01*
G75*
G02*
X171430000Y-67481000I-51000J0D01*
G01*
X170630000Y-67481000D01*
G75*
G02*
X170579000Y-67430000I0J51000D01*
G01*
X170579000Y-65030000D01*
G75*
G02*
X170630000Y-64979000I51000J0D01*
G01*
G37*
G36*
G01*
X171730000Y-64979000D02*
X172530000Y-64979000D01*
G75*
G02*
X172581000Y-65030000I0J-51000D01*
G01*
X172581000Y-67430000D01*
G75*
G02*
X172530000Y-67481000I-51000J0D01*
G01*
X171730000Y-67481000D01*
G75*
G02*
X171679000Y-67430000I0J51000D01*
G01*
X171679000Y-65030000D01*
G75*
G02*
X171730000Y-64979000I51000J0D01*
G01*
G37*
G36*
G01*
X172830000Y-64979000D02*
X173630000Y-64979000D01*
G75*
G02*
X173681000Y-65030000I0J-51000D01*
G01*
X173681000Y-67430000D01*
G75*
G02*
X173630000Y-67481000I-51000J0D01*
G01*
X172830000Y-67481000D01*
G75*
G02*
X172779000Y-67430000I0J51000D01*
G01*
X172779000Y-65030000D01*
G75*
G02*
X172830000Y-64979000I51000J0D01*
G01*
G37*
G36*
G01*
X173930000Y-64979000D02*
X174730000Y-64979000D01*
G75*
G02*
X174781000Y-65030000I0J-51000D01*
G01*
X174781000Y-67430000D01*
G75*
G02*
X174730000Y-67481000I-51000J0D01*
G01*
X173930000Y-67481000D01*
G75*
G02*
X173879000Y-67430000I0J51000D01*
G01*
X173879000Y-65030000D01*
G75*
G02*
X173930000Y-64979000I51000J0D01*
G01*
G37*
G36*
G01*
X175030000Y-64979000D02*
X175830000Y-64979000D01*
G75*
G02*
X175881000Y-65030000I0J-51000D01*
G01*
X175881000Y-67430000D01*
G75*
G02*
X175830000Y-67481000I-51000J0D01*
G01*
X175030000Y-67481000D01*
G75*
G02*
X174979000Y-67430000I0J51000D01*
G01*
X174979000Y-65030000D01*
G75*
G02*
X175030000Y-64979000I51000J0D01*
G01*
G37*
G36*
G01*
X176130000Y-64979000D02*
X176930000Y-64979000D01*
G75*
G02*
X176981000Y-65030000I0J-51000D01*
G01*
X176981000Y-67430000D01*
G75*
G02*
X176930000Y-67481000I-51000J0D01*
G01*
X176130000Y-67481000D01*
G75*
G02*
X176079000Y-67430000I0J51000D01*
G01*
X176079000Y-65030000D01*
G75*
G02*
X176130000Y-64979000I51000J0D01*
G01*
G37*
D10*
G36*
X176080732Y-82378000D02*
G01*
X176081000Y-82379000D01*
X176081000Y-84881000D01*
X176080000Y-84882732D01*
X176079000Y-84883000D01*
X175881000Y-84883000D01*
X175879268Y-84882000D01*
X175879000Y-84881000D01*
X175879000Y-82379000D01*
X175880000Y-82377268D01*
X175881000Y-82377000D01*
X176079000Y-82377000D01*
X176080732Y-82378000D01*
G37*
G36*
X174980732Y-82378000D02*
G01*
X174981000Y-82379000D01*
X174981000Y-84881000D01*
X174980000Y-84882732D01*
X174979000Y-84883000D01*
X174781000Y-84883000D01*
X174779268Y-84882000D01*
X174779000Y-84881000D01*
X174779000Y-82379000D01*
X174780000Y-82377268D01*
X174781000Y-82377000D01*
X174979000Y-82377000D01*
X174980732Y-82378000D01*
G37*
G36*
X173880732Y-82378000D02*
G01*
X173881000Y-82379000D01*
X173881000Y-84881000D01*
X173880000Y-84882732D01*
X173879000Y-84883000D01*
X173681000Y-84883000D01*
X173679268Y-84882000D01*
X173679000Y-84881000D01*
X173679000Y-82379000D01*
X173680000Y-82377268D01*
X173681000Y-82377000D01*
X173879000Y-82377000D01*
X173880732Y-82378000D01*
G37*
G36*
X172780732Y-82378000D02*
G01*
X172781000Y-82379000D01*
X172781000Y-84881000D01*
X172780000Y-84882732D01*
X172779000Y-84883000D01*
X172581000Y-84883000D01*
X172579268Y-84882000D01*
X172579000Y-84881000D01*
X172579000Y-82379000D01*
X172580000Y-82377268D01*
X172581000Y-82377000D01*
X172779000Y-82377000D01*
X172780732Y-82378000D01*
G37*
G36*
X171680732Y-82378000D02*
G01*
X171681000Y-82379000D01*
X171681000Y-84881000D01*
X171680000Y-84882732D01*
X171679000Y-84883000D01*
X171481000Y-84883000D01*
X171479268Y-84882000D01*
X171479000Y-84881000D01*
X171479000Y-82379000D01*
X171480000Y-82377268D01*
X171481000Y-82377000D01*
X171679000Y-82377000D01*
X171680732Y-82378000D01*
G37*
G36*
X170580732Y-82378000D02*
G01*
X170581000Y-82379000D01*
X170581000Y-84881000D01*
X170580000Y-84882732D01*
X170579000Y-84883000D01*
X170381000Y-84883000D01*
X170379268Y-84882000D01*
X170379000Y-84881000D01*
X170379000Y-82379000D01*
X170380000Y-82377268D01*
X170381000Y-82377000D01*
X170579000Y-82377000D01*
X170580732Y-82378000D01*
G37*
G36*
X169480732Y-82378000D02*
G01*
X169481000Y-82379000D01*
X169481000Y-84881000D01*
X169480000Y-84882732D01*
X169479000Y-84883000D01*
X169281000Y-84883000D01*
X169279268Y-84882000D01*
X169279000Y-84881000D01*
X169279000Y-82379000D01*
X169280000Y-82377268D01*
X169281000Y-82377000D01*
X169479000Y-82377000D01*
X169480732Y-82378000D01*
G37*
G36*
X168380732Y-82378000D02*
G01*
X168381000Y-82379000D01*
X168381000Y-84881000D01*
X168380000Y-84882732D01*
X168379000Y-84883000D01*
X168181000Y-84883000D01*
X168179268Y-84882000D01*
X168179000Y-84881000D01*
X168179000Y-82379000D01*
X168180000Y-82377268D01*
X168181000Y-82377000D01*
X168379000Y-82377000D01*
X168380732Y-82378000D01*
G37*
G36*
X167280732Y-82378000D02*
G01*
X167281000Y-82379000D01*
X167281000Y-84881000D01*
X167280000Y-84882732D01*
X167279000Y-84883000D01*
X167081000Y-84883000D01*
X167079268Y-84882000D01*
X167079000Y-84881000D01*
X167079000Y-82379000D01*
X167080000Y-82377268D01*
X167081000Y-82377000D01*
X167279000Y-82377000D01*
X167280732Y-82378000D01*
G37*
G36*
X166180732Y-82378000D02*
G01*
X166181000Y-82379000D01*
X166181000Y-84881000D01*
X166180000Y-84882732D01*
X166179000Y-84883000D01*
X165981000Y-84883000D01*
X165979268Y-84882000D01*
X165979000Y-84881000D01*
X165979000Y-82379000D01*
X165980000Y-82377268D01*
X165981000Y-82377000D01*
X166179000Y-82377000D01*
X166180732Y-82378000D01*
G37*
G36*
X165080732Y-82378000D02*
G01*
X165081000Y-82379000D01*
X165081000Y-84881000D01*
X165080000Y-84882732D01*
X165079000Y-84883000D01*
X164881000Y-84883000D01*
X164879268Y-84882000D01*
X164879000Y-84881000D01*
X164879000Y-82379000D01*
X164880000Y-82377268D01*
X164881000Y-82377000D01*
X165079000Y-82377000D01*
X165080732Y-82378000D01*
G37*
G36*
X163980732Y-82378000D02*
G01*
X163981000Y-82379000D01*
X163981000Y-84881000D01*
X163980000Y-84882732D01*
X163979000Y-84883000D01*
X163781000Y-84883000D01*
X163779268Y-84882000D01*
X163779000Y-84881000D01*
X163779000Y-82379000D01*
X163780000Y-82377268D01*
X163781000Y-82377000D01*
X163979000Y-82377000D01*
X163980732Y-82378000D01*
G37*
G36*
X162880732Y-82378000D02*
G01*
X162881000Y-82379000D01*
X162881000Y-84881000D01*
X162880000Y-84882732D01*
X162879000Y-84883000D01*
X162681000Y-84883000D01*
X162679268Y-84882000D01*
X162679000Y-84881000D01*
X162679000Y-82379000D01*
X162680000Y-82377268D01*
X162681000Y-82377000D01*
X162879000Y-82377000D01*
X162880732Y-82378000D01*
G37*
G36*
X176080732Y-64978000D02*
G01*
X176081000Y-64979000D01*
X176081000Y-67481000D01*
X176080000Y-67482732D01*
X176079000Y-67483000D01*
X175881000Y-67483000D01*
X175879268Y-67482000D01*
X175879000Y-67481000D01*
X175879000Y-64979000D01*
X175880000Y-64977268D01*
X175881000Y-64977000D01*
X176079000Y-64977000D01*
X176080732Y-64978000D01*
G37*
G36*
X174980732Y-64978000D02*
G01*
X174981000Y-64979000D01*
X174981000Y-67481000D01*
X174980000Y-67482732D01*
X174979000Y-67483000D01*
X174781000Y-67483000D01*
X174779268Y-67482000D01*
X174779000Y-67481000D01*
X174779000Y-64979000D01*
X174780000Y-64977268D01*
X174781000Y-64977000D01*
X174979000Y-64977000D01*
X174980732Y-64978000D01*
G37*
G36*
X173880732Y-64978000D02*
G01*
X173881000Y-64979000D01*
X173881000Y-67481000D01*
X173880000Y-67482732D01*
X173879000Y-67483000D01*
X173681000Y-67483000D01*
X173679268Y-67482000D01*
X173679000Y-67481000D01*
X173679000Y-64979000D01*
X173680000Y-64977268D01*
X173681000Y-64977000D01*
X173879000Y-64977000D01*
X173880732Y-64978000D01*
G37*
G36*
X172780732Y-64978000D02*
G01*
X172781000Y-64979000D01*
X172781000Y-67481000D01*
X172780000Y-67482732D01*
X172779000Y-67483000D01*
X172581000Y-67483000D01*
X172579268Y-67482000D01*
X172579000Y-67481000D01*
X172579000Y-64979000D01*
X172580000Y-64977268D01*
X172581000Y-64977000D01*
X172779000Y-64977000D01*
X172780732Y-64978000D01*
G37*
G36*
X171680732Y-64978000D02*
G01*
X171681000Y-64979000D01*
X171681000Y-67481000D01*
X171680000Y-67482732D01*
X171679000Y-67483000D01*
X171481000Y-67483000D01*
X171479268Y-67482000D01*
X171479000Y-67481000D01*
X171479000Y-64979000D01*
X171480000Y-64977268D01*
X171481000Y-64977000D01*
X171679000Y-64977000D01*
X171680732Y-64978000D01*
G37*
G36*
X170580732Y-64978000D02*
G01*
X170581000Y-64979000D01*
X170581000Y-67481000D01*
X170580000Y-67482732D01*
X170579000Y-67483000D01*
X170381000Y-67483000D01*
X170379268Y-67482000D01*
X170379000Y-67481000D01*
X170379000Y-64979000D01*
X170380000Y-64977268D01*
X170381000Y-64977000D01*
X170579000Y-64977000D01*
X170580732Y-64978000D01*
G37*
G36*
X169480732Y-64978000D02*
G01*
X169481000Y-64979000D01*
X169481000Y-67481000D01*
X169480000Y-67482732D01*
X169479000Y-67483000D01*
X169281000Y-67483000D01*
X169279268Y-67482000D01*
X169279000Y-67481000D01*
X169279000Y-64979000D01*
X169280000Y-64977268D01*
X169281000Y-64977000D01*
X169479000Y-64977000D01*
X169480732Y-64978000D01*
G37*
G36*
X168380732Y-64978000D02*
G01*
X168381000Y-64979000D01*
X168381000Y-67481000D01*
X168380000Y-67482732D01*
X168379000Y-67483000D01*
X168181000Y-67483000D01*
X168179268Y-67482000D01*
X168179000Y-67481000D01*
X168179000Y-64979000D01*
X168180000Y-64977268D01*
X168181000Y-64977000D01*
X168379000Y-64977000D01*
X168380732Y-64978000D01*
G37*
G36*
X167280732Y-64978000D02*
G01*
X167281000Y-64979000D01*
X167281000Y-67481000D01*
X167280000Y-67482732D01*
X167279000Y-67483000D01*
X167081000Y-67483000D01*
X167079268Y-67482000D01*
X167079000Y-67481000D01*
X167079000Y-64979000D01*
X167080000Y-64977268D01*
X167081000Y-64977000D01*
X167279000Y-64977000D01*
X167280732Y-64978000D01*
G37*
G36*
X166180732Y-64978000D02*
G01*
X166181000Y-64979000D01*
X166181000Y-67481000D01*
X166180000Y-67482732D01*
X166179000Y-67483000D01*
X165981000Y-67483000D01*
X165979268Y-67482000D01*
X165979000Y-67481000D01*
X165979000Y-64979000D01*
X165980000Y-64977268D01*
X165981000Y-64977000D01*
X166179000Y-64977000D01*
X166180732Y-64978000D01*
G37*
G36*
X165080732Y-64978000D02*
G01*
X165081000Y-64979000D01*
X165081000Y-67481000D01*
X165080000Y-67482732D01*
X165079000Y-67483000D01*
X164881000Y-67483000D01*
X164879268Y-67482000D01*
X164879000Y-67481000D01*
X164879000Y-64979000D01*
X164880000Y-64977268D01*
X164881000Y-64977000D01*
X165079000Y-64977000D01*
X165080732Y-64978000D01*
G37*
G36*
X163980732Y-64978000D02*
G01*
X163981000Y-64979000D01*
X163981000Y-67481000D01*
X163980000Y-67482732D01*
X163979000Y-67483000D01*
X163781000Y-67483000D01*
X163779268Y-67482000D01*
X163779000Y-67481000D01*
X163779000Y-64979000D01*
X163780000Y-64977268D01*
X163781000Y-64977000D01*
X163979000Y-64977000D01*
X163980732Y-64978000D01*
G37*
G36*
X162880732Y-64978000D02*
G01*
X162881000Y-64979000D01*
X162881000Y-67481000D01*
X162880000Y-67482732D01*
X162879000Y-67483000D01*
X162681000Y-67483000D01*
X162679268Y-67482000D01*
X162679000Y-67481000D01*
X162679000Y-64979000D01*
X162680000Y-64977268D01*
X162681000Y-64977000D01*
X162879000Y-64977000D01*
X162880732Y-64978000D01*
G37*
M02*
