G04 #@! TF.GenerationSoftware,KiCad,Pcbnew,(5.1.9-0-10_14)*
G04 #@! TF.CreationDate,2022-01-02T12:30:46-07:00*
G04 #@! TF.ProjectId,MS88SF2_01,4d533838-5346-4325-9f30-312e6b696361,rev?*
G04 #@! TF.SameCoordinates,Original*
G04 #@! TF.FileFunction,Profile,NP*
%FSLAX46Y46*%
G04 Gerber Fmt 4.6, Leading zero omitted, Abs format (unit mm)*
G04 Created by KiCad (PCBNEW (5.1.9-0-10_14)) date 2022-01-02 12:30:46*
%MOMM*%
%LPD*%
G01*
G04 APERTURE LIST*
G04 #@! TA.AperFunction,Profile*
%ADD10C,0.050000*%
G04 #@! TD*
G04 APERTURE END LIST*
D10*
X143256000Y-85090000D02*
X144780000Y-85090000D01*
X142748000Y-86360000D02*
X143256000Y-85090000D01*
X140970000Y-86360000D02*
X142748000Y-86360000D01*
X137795000Y-86360000D02*
X140970000Y-86360000D01*
X125095000Y-64770000D02*
X158750000Y-64770000D01*
X125095000Y-64770000D02*
X115595400Y-74396600D01*
X122555000Y-83820000D02*
X115595400Y-74396600D01*
X123825000Y-85090000D02*
X122555000Y-83820000D01*
X127635000Y-85090000D02*
X123825000Y-85090000D01*
X130175000Y-86360000D02*
X127635000Y-85090000D01*
X135890000Y-86360000D02*
X130175000Y-86360000D01*
X137160000Y-85090000D02*
X135890000Y-86360000D01*
X137795000Y-86360000D02*
X137160000Y-85090000D01*
X145415000Y-86360000D02*
X144780000Y-85090000D01*
X149860000Y-86360000D02*
X145415000Y-86360000D01*
X150495000Y-85090000D02*
X149860000Y-86360000D01*
X151765000Y-85090000D02*
X150495000Y-85090000D01*
X153035000Y-86360000D02*
X151765000Y-85090000D01*
X156845000Y-86360000D02*
X153035000Y-86360000D01*
X158750000Y-85090000D02*
X156845000Y-86360000D01*
X161290000Y-86360000D02*
X161290000Y-85725000D01*
X177165000Y-86360000D02*
X161290000Y-86360000D01*
X177165000Y-85725000D02*
X177165000Y-86360000D01*
X161290000Y-85090000D02*
X158750000Y-85090000D01*
X161290000Y-85725000D02*
X161290000Y-85090000D01*
X177165000Y-85090000D02*
X177165000Y-85725000D01*
X177165000Y-63500000D02*
X177165000Y-85090000D01*
X161290000Y-63500000D02*
X177165000Y-63500000D01*
X161290000Y-64770000D02*
X161290000Y-63500000D01*
X158750000Y-64770000D02*
X161290000Y-64770000D01*
M02*
