M48
; DRILL file {KiCad (5.1.9-0-10_14)} date Sunday, January 02, 2022 at 12:30:32 PM
; FORMAT={-:-/ absolute / inch / decimal}
; #@! TF.CreationDate,2022-01-02T12:30:32-07:00
; #@! TF.GenerationSoftware,Kicad,Pcbnew,(5.1.9-0-10_14)
; #@! TF.FileFunction,Plated,1,2,PTH
FMAT,2
INCH
T1C0.0157
T2C0.0394
%
G90
G05
T1
X6.945Y-2.69
T2
X4.95Y-3.3
X5.05Y-2.6
X5.05Y-3.3
X5.15Y-2.6
X5.15Y-3.3
X5.25Y-2.6
X5.25Y-3.3
X5.35Y-2.6
X5.35Y-3.3
X5.45Y-2.6
X5.45Y-3.3
X5.55Y-2.6
X5.55Y-3.3
X5.65Y-2.6
X5.65Y-3.3
X5.75Y-2.6
X5.75Y-3.3
X5.85Y-2.6
X5.85Y-3.3
X5.95Y-2.6
X5.95Y-3.3
X6.05Y-2.6
X6.05Y-3.3
X6.15Y-2.6
X6.15Y-3.3
X6.25Y-2.6
X6.25Y-3.3
T0
M30
